<svg xmlns="http://www.w3.org/2000/svg" width="22.5" height="24.5" viewBox="0 0 22.5 24.5">
    <g>
        <path fill="#343434" d="M8.832 23.817a2.271 2.271 0 0 1-.683-1.669h4.7A2.334 2.334 0 0 1 10.5 24.5a2.271 2.271 0 0 1-1.668-.683zM0 21v-1.2l2.352-2.3v-7a7.971 7.971 0 0 1 1.613-4.9 7.922 7.922 0 0 1 4.184-2.921V2.3A2.205 2.205 0 0 1 8.832.684a2.376 2.376 0 0 1 3.336 0 2.206 2.206 0 0 1 .684 1.616v.382a7.924 7.924 0 0 1 4.183 2.926 7.971 7.971 0 0 1 1.613 4.9v7L21 19.8V21z" transform="translate(-7493.5 -3539.352) translate(7493.5 3539.352)"/>
        <g fill="#f85050">
            <path d="M5.5 10C3.019 10 1 7.981 1 5.5S3.019 1 5.5 1 10 3.019 10 5.5 7.981 10 5.5 10z" transform="translate(-7493.5 -3539.352) translate(7505 3540.5)"/>
            <path fill="#fff" d="M5.5 2C3.57 2 2 3.57 2 5.5S3.57 9 5.5 9 9 7.43 9 5.5 7.43 2 5.5 2m0-2C8.538 0 11 2.462 11 5.5S8.538 11 5.5 11 0 8.538 0 5.5 2.462 0 5.5 0z" transform="translate(-7493.5 -3539.352) translate(7505 3540.5)"/>
        </g>
    </g>
</svg>
