<svg xmlns="http://www.w3.org/2000/svg" width="28" height="28" viewBox="0 0 28 28">
    <g>
        <path fill="#343434" d="M8.832 23.817a2.271 2.271 0 0 1-.683-1.669h4.7A2.334 2.334 0 0 1 10.5 24.5a2.271 2.271 0 0 1-1.668-.683zM0 21v-1.2l2.352-2.3v-7a7.971 7.971 0 0 1 1.613-4.9 7.922 7.922 0 0 1 4.184-2.921V2.3A2.205 2.205 0 0 1 8.832.684a2.376 2.376 0 0 1 3.336 0 2.206 2.206 0 0 1 .684 1.616v.382a7.924 7.924 0 0 1 4.183 2.926 7.971 7.971 0 0 1 1.613 4.9v7L21 19.8V21z" transform="translate(-268 -13) translate(272 15)"/>
        <path fill="none" d="M0 0H28V28H0z" opacity="0.4" transform="translate(-268 -13) translate(268 13)"/>
    </g>
</svg>
