<svg xmlns="http://www.w3.org/2000/svg" width="24" height="24" viewBox="0 0 24 24">
    <path fill="rgba(52,151,253,0)" d="M0 0H24V24H0z"/>
    <g>
        <path fill="#292a2b" d="M17.082 14.085c-.751-.807-2.157-2.021-2.157-6a6.139 6.139 0 0 0-4.974-6.031v-.81a1.243 1.243 0 1 0-2.487 0v.81a6.139 6.139 0 0 0-4.973 6.033c0 3.977-1.405 5.191-2.157 6a1.215 1.215 0 0 0-.334.842 1.245 1.245 0 0 0 1.248 1.244h14.921a1.245 1.245 0 0 0 1.248-1.244 1.214 1.214 0 0 0-.335-.844zm-14.457.222c.825-1.087 1.727-2.89 1.731-6.2v-.023a4.354 4.354 0 1 1 8.709 0v.023c0 3.309.906 5.111 1.731 6.2zm6.083 5.6a2.488 2.488 0 0 0 2.492-2.49H6.221a2.488 2.488 0 0 0 2.487 2.489z" transform="translate(-285.686 -36.823) translate(288.001 38.823)"/>
    </g>
</svg>
