<svg xmlns="http://www.w3.org/2000/svg" width="131" height="173.789" viewBox="0 0 131 173.789">
    <defs>
        <style>
            .cls-1{fill:#ffe388}.cls-2{fill:#fcd268}.cls-3{fill:#fff1a1}.cls-4{fill:#fff080}.cls-5{fill:#f7cb52}.cls-6{fill:#fff4a6}.cls-7{fill:#ef9f97}.cls-8{fill:#f7b3b0}.cls-9{fill:#ce7a76}.cls-13{fill:#f7b99a}.cls-14{fill:#ffc3a1}.cls-16{fill:#ffdac5}.cls-23{fill:#343434}
        </style>
    </defs>
    <g id="_1" transform="translate(-19 -43)">
        <g id="그룹_5697" transform="translate(22 52.567)">
            <g id="그룹_5475" transform="translate(6.767 119.238)">
                <g id="그룹_5317" transform="translate(0 1.616)">
                    <g id="그룹_5316">
                        <g id="그룹_5315">
                            <path id="사각형_4706" d="M0 0H113.596V36.193H0z" class="cls-1"/>
                        </g>
                    </g>
                </g>
                <g id="그룹_5474">
                    <g id="그룹_5334" transform="translate(6.012 15.38)">
                        <g id="그룹_5324" transform="translate(3.232)">
                            <g id="그룹_5320">
                                <g id="그룹_5319">
                                    <g id="그룹_5318">
                                        <circle id="타원_316" cx="5.1" cy="5.1" r="5.1" class="cls-2" transform="rotate(-76.59 6.281 4.96)"/>
                                    </g>
                                </g>
                            </g>
                            <g id="그룹_5323" transform="translate(18.342 4.699)">
                                <g id="그룹_5322">
                                    <g id="그룹_5321">
                                        <circle id="타원_317" cx="6.493" cy="6.493" r="6.493" class="cls-3" transform="matrix(.927 -.376 .376 .927 0 4.886)"/>
                                    </g>
                                </g>
                            </g>
                        </g>
                        <g id="그룹_5327" transform="translate(0 10.293)">
                            <g id="그룹_5326">
                                <g id="그룹_5325">
                                    <path id="패스_4892" d="M281.5 828.071h6.412a6.493 6.493 0 1 0-6.412 0z" class="cls-2" transform="translate(-278.208 -815.936)"/>
                                </g>
                            </g>
                        </g>
                        <g id="그룹_5330" transform="translate(14.58 12.309)">
                            <g id="그룹_5329">
                                <g id="그룹_5328">
                                    <path id="패스_4893" d="M353.068 834.762a6.493 6.493 0 1 0-10.774 0z" class="cls-4" transform="translate(-341.188 -824.642)"/>
                                </g>
                            </g>
                        </g>
                        <g id="그룹_5333" transform="translate(30.975 12.309)">
                            <g id="그룹_5332">
                                <g id="그룹_5331">
                                    <path id="패스_4894" d="M423.883 834.762a6.493 6.493 0 1 0-10.773 0z" class="cls-2" transform="translate(-412.003 -824.642)"/>
                                </g>
                            </g>
                        </g>
                    </g>
                    <g id="그룹_5348" transform="translate(0 1.616)">
                        <g id="그룹_5338" transform="translate(29.553 2.777)">
                            <g id="그룹_5337">
                                <g id="그룹_5336">
                                    <g id="그룹_5335">
                                        <circle id="타원_318" cx="6.493" cy="6.493" r="6.493" class="cls-3"/>
                                    </g>
                                </g>
                            </g>
                        </g>
                        <g id="그룹_5341" transform="translate(0 2.777)">
                            <g id="그룹_5340">
                                <g id="그룹_5339">
                                    <path id="패스_4895" d="M256.032 737a6.455 6.455 0 0 1-3.8-1.232v-10.52a6.491 6.491 0 1 1 3.8 11.754z" class="cls-3" transform="translate(-252.237 -724.016)"/>
                                </g>
                            </g>
                        </g>
                        <g id="그룹_5344" transform="translate(20.593)">
                            <g id="그룹_5343">
                                <g id="그룹_5342">
                                    <path id="패스_4896" d="M353.068 712.02a6.493 6.493 0 1 1-10.774 0z" class="cls-2" transform="translate(-341.188 -712.02)"/>
                                </g>
                            </g>
                        </g>
                        <g id="그룹_5347" transform="translate(36.987)">
                            <g id="그룹_5346">
                                <g id="그룹_5345">
                                    <path id="패스_4897" d="M423.883 712.02a6.493 6.493 0 1 1-10.773 0z" class="cls-2" transform="translate(-412.003 -712.02)"/>
                                </g>
                            </g>
                        </g>
                    </g>
                    <g id="그룹_5375" transform="translate(72.824 9.093)">
                        <g id="그룹_5361">
                            <g id="그룹_5351">
                                <g id="그룹_5350">
                                    <g id="그룹_5349">
                                        <circle id="타원_319" cx="6.493" cy="6.493" r="6.493" class="cls-2" transform="rotate(-80.85 7.528 6.413)"/>
                                    </g>
                                </g>
                            </g>
                            <g id="그룹_5354" transform="translate(17.42 1.802)">
                                <g id="그룹_5353">
                                    <g id="그룹_5352">
                                        <circle id="타원_320" cx="5.425" cy="5.425" r="5.425" class="cls-2" transform="rotate(-80.85 6.289 5.357)"/>
                                    </g>
                                </g>
                            </g>
                            <g id="그룹_5357" transform="translate(12.578 12.102)">
                                <g id="그룹_5356">
                                    <g id="그룹_5355">
                                        <circle id="타원_321" cx="6.493" cy="6.493" r="6.493" class="cls-3"/>
                                    </g>
                                </g>
                            </g>
                            <g id="그룹_5360" transform="translate(31.001 1.621)">
                                <g id="그룹_5359">
                                    <g id="그룹_5358">
                                        <circle id="타원_322" cx="3.311" cy="3.311" r="3.311" class="cls-3" transform="matrix(.922 -.386 .386 .922 0 2.556)"/>
                                    </g>
                                </g>
                            </g>
                        </g>
                        <g id="그룹_5364" transform="translate(29.894 12.952)">
                            <g id="그룹_5363">
                                <g id="그룹_5362">
                                    <path id="패스_4898" d="M706.8 801.977a6.493 6.493 0 1 0 0 9.559z" class="cls-3" transform="translate(-695.927 -800.263)"/>
                                </g>
                            </g>
                        </g>
                        <g id="그룹_5371" transform="translate(4.669 18.539)">
                            <g id="그룹_5367" transform="translate(.139 .056)">
                                <g id="그룹_5366">
                                    <g id="그룹_5365">
                                        <path id="패스_4899" d="M599.448 834.762a6.493 6.493 0 1 0-10.773 0z" class="cls-4" transform="translate(-587.568 -824.642)"/>
                                    </g>
                                </g>
                            </g>
                            <g id="그룹_5370">
                                <g id="그룹_5369">
                                    <g id="그룹_5368">
                                        <path id="패스_4900" d="M598.978 834.563a6.7 6.7 0 0 0 1.007-3.282 7.341 7.341 0 0 0-.166-1.713 6.518 6.518 0 0 0-2.938-4.083 6.346 6.346 0 0 0-3.282-.973 6.25 6.25 0 0 0-3.311.924 6.405 6.405 0 0 0-2.323 2.515 6.766 6.766 0 0 0-.574 1.619 6.991 6.991 0 0 0-.131 1.708 6.44 6.44 0 0 0 1.084 3.209l-.131-.07c1.783 0 3.565.01 5.357.038l2.694.045zm.014.027l-2.671.063-2.693.045c-1.8.028-3.609.036-5.417.038h-.084l-.048-.07a6.507 6.507 0 0 1-1.109-3.371 6.58 6.58 0 0 1 .8-3.445 6.678 6.678 0 0 1 2.46-2.507 6.926 6.926 0 0 1 .786-.4c.136-.057.277-.1.415-.154a2.8 2.8 0 0 1 .422-.13 7.014 7.014 0 0 1 1.746-.252 6.7 6.7 0 0 1 3.4.892 6.038 6.038 0 0 1 1.4 1.1 6.324 6.324 0 0 1 1.048 1.445 6.936 6.936 0 0 1 .605 1.678 4.121 4.121 0 0 1 .075.44 3.475 3.475 0 0 1 .051.443 7.614 7.614 0 0 1 0 .891 6.281 6.281 0 0 1-1.186 3.293z" class="cls-5" transform="translate(-586.966 -824.4)"/>
                                    </g>
                                </g>
                            </g>
                        </g>
                        <g id="그룹_5374" transform="translate(21.203 18.595)">
                            <g id="그룹_5373">
                                <g id="그룹_5372">
                                    <path id="패스_4901" d="M670.263 834.762a6.493 6.493 0 1 0-10.773 0z" class="cls-2" transform="translate(-658.383 -824.642)"/>
                                </g>
                            </g>
                        </g>
                    </g>
                    <g id="그룹_5393" transform="translate(60.834 1.616)">
                        <g id="그룹_5386" transform="translate(0 8.161)">
                            <g id="그룹_5378" transform="translate(0 .125)">
                                <g id="그룹_5377">
                                    <g id="그룹_5376">
                                        <circle id="타원_323" cx="6.493" cy="6.493" r="6.493" class="cls-1"/>
                                    </g>
                                </g>
                            </g>
                            <g id="그룹_5385" transform="translate(17.99)">
                                <g id="그룹_5381" transform="translate(.084 .125)">
                                    <g id="그룹_5380">
                                        <g id="그룹_5379">
                                            <circle id="타원_324" cx="6.493" cy="6.493" r="6.493" class="cls-6"/>
                                        </g>
                                    </g>
                                </g>
                                <g id="그룹_5384">
                                    <g id="그룹_5383">
                                        <g id="그룹_5382">
                                            <path id="패스_4902" d="M605.775 753.892a6.354 6.354 0 0 0-.516-2.469 6.426 6.426 0 0 0-1.438-2.055 6.658 6.658 0 0 0-4.524-1.844 6.355 6.355 0 0 0-4.555 1.814 6.266 6.266 0 0 0-1.856 4.554 6.43 6.43 0 0 0 6.411 6.338 6.58 6.58 0 0 0 4.521-1.817 6.26 6.26 0 0 0 1.957-4.521zm.03 0a6.742 6.742 0 0 1-1.846 4.662 6.453 6.453 0 0 1-4.662 1.987 6.561 6.561 0 0 1-2.545-.505 6.666 6.666 0 0 1-2.147-1.452 6.533 6.533 0 0 1-1.884-4.692 6.764 6.764 0 0 1 1.948-4.628 6.864 6.864 0 0 1 2.111-1.448 6.582 6.582 0 0 1 2.517-.542 6.432 6.432 0 0 1 2.535.5 6.367 6.367 0 0 1 2.124 1.461 6.737 6.737 0 0 1 1.844 4.657z" class="cls-5" transform="translate(-592.719 -747.273)"/>
                                        </g>
                                    </g>
                                </g>
                            </g>
                        </g>
                        <g id="그룹_5389" transform="translate(2.217)">
                            <g id="그룹_5388">
                                <g id="그룹_5387">
                                    <path id="패스_4903" d="M527.876 712.02h6.412a6.493 6.493 0 1 1-6.412 0z" class="cls-2" transform="translate(-524.589 -712.02)"/>
                                </g>
                            </g>
                        </g>
                        <g id="그룹_5392" transform="translate(33.192)">
                            <g id="그룹_5391">
                                <g id="그룹_5390">
                                    <path id="패스_4904" d="M670.263 712.02a6.493 6.493 0 1 1-10.773 0z" class="cls-2" transform="translate(-658.383 -712.02)"/>
                                </g>
                            </g>
                        </g>
                    </g>
                    <g id="그룹_5422" transform="translate(.692)">
                        <g id="그룹_5400" transform="translate(18.413 9.875)">
                            <g id="그룹_5396" transform="translate(.084 .156)">
                                <g id="그룹_5395">
                                    <g id="그룹_5394">
                                        <circle id="타원_325" cx="5.375" cy="5.375" r="5.375" class="cls-6"/>
                                    </g>
                                </g>
                            </g>
                            <g id="그룹_5399">
                                <g id="그룹_5398">
                                    <g id="그룹_5397">
                                        <path id="패스_4905" d="M345.612 753.228a5.618 5.618 0 0 1-1.522 3.868 5.264 5.264 0 0 1-3.868 1.632 5.442 5.442 0 0 1-2.089-.457 5.743 5.743 0 0 1-1.749-1.205 5.645 5.645 0 0 1-1.62-3.838 5.412 5.412 0 0 1 1.557-3.9 5.545 5.545 0 0 1 1.784-1.21 5.431 5.431 0 0 1 2.117-.42 5.332 5.332 0 0 1 3.871 1.66 5.62 5.62 0 0 1 1.519 3.87zm-.03 0a5.143 5.143 0 0 0-1.629-3.731 5.463 5.463 0 0 0-3.731-1.489 5.312 5.312 0 0 0-5.292 5.219 5.146 5.146 0 0 0 1.529 3.764 5.233 5.233 0 0 0 3.764 1.486 5.541 5.541 0 0 0 3.734-1.516 5.3 5.3 0 0 0 1.2-1.692 5.227 5.227 0 0 0 .425-2.041z" class="cls-5" transform="translate(-334.763 -747.697)"/>
                                    </g>
                                </g>
                            </g>
                        </g>
                        <g id="그룹_5407" transform="translate(98.027 15.049)">
                            <g id="그룹_5403">
                                <g id="그룹_5402">
                                    <g id="그룹_5401">
                                        <circle id="타원_326" cx="5.375" cy="5.375" r="5.375" class="cls-4" transform="rotate(-80.849 6.23 5.307)"/>
                                    </g>
                                </g>
                            </g>
                            <g id="그룹_5406" transform="translate(.702 .631)">
                                <g id="그룹_5405">
                                    <g id="그룹_5404">
                                        <path id="패스_4906" d="M692.537 778.3a5.619 5.619 0 0 1-1.523 3.868 5.263 5.263 0 0 1-3.868 1.632 5.451 5.451 0 0 1-2.089-.457 5.748 5.748 0 0 1-1.749-1.206 5.644 5.644 0 0 1-1.62-3.838 5.412 5.412 0 0 1 1.556-3.9 5.544 5.544 0 0 1 1.784-1.21 5.436 5.436 0 0 1 2.117-.42 5.331 5.331 0 0 1 3.871 1.66 5.621 5.621 0 0 1 1.521 3.871zm-.03 0a5.142 5.142 0 0 0-1.63-3.73 5.462 5.462 0 0 0-3.731-1.489 5.312 5.312 0 0 0-5.292 5.219 5.147 5.147 0 0 0 1.528 3.764 5.233 5.233 0 0 0 3.764 1.486 5.54 5.54 0 0 0 3.734-1.516 5.3 5.3 0 0 0 1.2-1.692 5.234 5.234 0 0 0 .427-2.042z" class="cls-5" transform="translate(-681.687 -772.769)"/>
                                    </g>
                                </g>
                            </g>
                        </g>
                        <g id="그룹_5414" transform="translate(108.911 11.57)">
                            <g id="그룹_5410">
                                <g id="그룹_5409">
                                    <g id="그룹_5408">
                                        <circle id="타원_327" cx="3.34" cy="3.34" r="3.34" class="cls-4" transform="rotate(-86.127 3.566 3.333)"/>
                                    </g>
                                </g>
                            </g>
                            <g id="그룹_5413" transform="translate(.127 .165)">
                                <g id="그룹_5412">
                                    <g id="그룹_5411">
                                        <path id="패스_4907" d="M731.75 756.514a3.492 3.492 0 0 1 1.281 2.243 3.272 3.272 0 0 1-.715 2.509 3.388 3.388 0 0 1-1.034.834 3.573 3.573 0 0 1-1.265.378 3.509 3.509 0 0 1-2.49-.709 3.364 3.364 0 0 1-1.284-2.273 3.444 3.444 0 0 1 .108-1.335 3.377 3.377 0 0 1 .621-1.189 3.313 3.313 0 0 1 2.311-1.229 3.492 3.492 0 0 1 2.467.771zm-.012.015a3.193 3.193 0 0 0-2.442-.663 3.394 3.394 0 0 0-2.173 1.228 3.3 3.3 0 0 0 .469 4.6 3.2 3.2 0 0 0 2.418.725 3.255 3.255 0 0 0 2.185-1.245 3.444 3.444 0 0 0 .719-2.4 3.294 3.294 0 0 0-.354-1.238 3.255 3.255 0 0 0-.822-1.007z" class="cls-5" transform="translate(-726.22 -755.732)"/>
                                    </g>
                                </g>
                            </g>
                        </g>
                        <g id="그룹_5421">
                            <g id="그룹_5417">
                                <g id="그룹_5416">
                                    <g id="그룹_5415">
                                        <circle id="타원_328" cx="7.077" cy="7.077" r="7.077" class="cls-1" transform="rotate(-45 12.082 5.005)"/>
                                    </g>
                                </g>
                            </g>
                            <g id="그룹_5420" transform="translate(2.81 2.856)">
                                <g id="그룹_5419">
                                    <g id="그룹_5418">
                                        <path id="패스_4908" d="M281.658 724.529a7.249 7.249 0 0 1-2.031 5.062 7.161 7.161 0 0 1-2.306 1.592 7.182 7.182 0 1 1-2.756-13.807 7.155 7.155 0 0 1 7.092 7.153zm-.03 0a7 7 0 0 0-7.062-7 6.951 6.951 0 1 0 6.5 9.7 7.088 7.088 0 0 0 .562-2.7z" class="cls-5" transform="translate(-267.367 -717.376)"/>
                                    </g>
                                </g>
                            </g>
                        </g>
                    </g>
                    <g id="그룹_5444" transform="translate(46.758 5.896)">
                        <g id="그룹_5429" transform="translate(12.438)">
                            <g id="그룹_5425">
                                <g id="그룹_5424">
                                    <g id="그룹_5423">
                                        <circle id="타원_329" cx="5.375" cy="5.375" r="5.375" class="cls-4" transform="rotate(-84.295 5.91 5.348)"/>
                                    </g>
                                </g>
                            </g>
                            <g id="그룹_5428" transform="translate(.349 .481)">
                                <g id="그룹_5427">
                                    <g id="그룹_5426">
                                        <path id="패스_4909" d="M516.12 732.718a5.618 5.618 0 0 1 3.456 2.309 5.265 5.265 0 0 1 .774 4.126 5.449 5.449 0 0 1-.89 1.944 5.749 5.749 0 0 1-1.549 1.453 5.647 5.647 0 0 1-4.094.768 5.413 5.413 0 0 1-3.482-2.35 5.547 5.547 0 0 1-.8-2 5.439 5.439 0 0 1 .04-2.158 5.332 5.332 0 0 1 2.444-3.43 5.62 5.62 0 0 1 4.101-.662zm-.006.03a5.143 5.143 0 0 0-3.992.8 5.463 5.463 0 0 0-2.247 3.329 5.312 5.312 0 0 0 3.976 6.28 5.147 5.147 0 0 0 4-.695 5.232 5.232 0 0 0 2.252-3.362 5.539 5.539 0 0 0-.688-3.97 5.3 5.3 0 0 0-1.4-1.527 5.228 5.228 0 0 0-1.901-.855z" class="cls-5" transform="translate(-509.442 -732.584)"/>
                                    </g>
                                </g>
                            </g>
                        </g>
                        <g id="그룹_5436" transform="translate(15.838 10.215)">
                            <g id="그룹_5432" transform="translate(.021)">
                                <g id="그룹_5431">
                                    <g id="그룹_5430">
                                        <circle id="타원_330" cx="5.839" cy="5.839" r="5.839" class="cls-6" transform="translate(0 .209)"/>
                                    </g>
                                </g>
                            </g>
                            <g id="그룹_5435" transform="translate(0 .082)">
                                <g id="그룹_5434">
                                    <g id="그룹_5433">
                                        <path id="패스_4910" d="M529.827 775.124a5.933 5.933 0 1 1-4.436.75 5.947 5.947 0 0 1 4.436-.75zm-.005.024a5.843 5.843 0 0 0-2.27-.021 5.771 5.771 0 0 0-2.089.859 5.837 5.837 0 0 0-2.463 3.642 5.745 5.745 0 0 0 11.229 2.441 5.766 5.766 0 0 0-4.407-6.92z" class="cls-5" transform="translate(-522.621 -774.981)"/>
                                    </g>
                                </g>
                            </g>
                        </g>
                        <g id="그룹_5443" transform="translate(0 4.741)">
                            <g id="그룹_5439">
                                <g id="그룹_5438">
                                    <g id="그룹_5437">
                                        <circle id="타원_331" cx="7.077" cy="7.077" r="7.077" class="cls-1" transform="rotate(-69.327 9.576 6.622)"/>
                                    </g>
                                </g>
                            </g>
                            <g id="그룹_5442" transform="translate(1.961 2.029)">
                                <g id="그룹_5441">
                                    <g id="그룹_5440">
                                        <path id="패스_4911" d="M471.346 759.911a7.248 7.248 0 0 1 4.515 3.06 7.162 7.162 0 0 1 1.066 2.591 7.184 7.184 0 0 1-13.123 5.16 7.139 7.139 0 0 1 7.542-10.811zm-.006.029a7 7 0 0 0-8.34 5.414 6.951 6.951 0 1 0 10.855-4.3 7.086 7.086 0 0 0-2.516-1.114z" class="cls-5" transform="translate(-462.68 -759.75)"/>
                                    </g>
                                </g>
                            </g>
                        </g>
                    </g>
                    <g id="그룹_5473" transform="translate(0 25.673)">
                        <g id="그룹_5447">
                            <g id="그룹_5446">
                                <g id="그룹_5445">
                                    <path id="패스_4912" d="M365.833 835.246h-113.6V818.3s15.141-2.317 20.593-2.36c9.483-.074 39.05 2.36 39.05 2.36s28.425-.885 37.917-.913c5.158-.015 16.036.913 16.036.913z" class="cls-7" transform="translate(-252.237 -815.936)"/>
                                </g>
                            </g>
                        </g>
                        <g id="그룹_5450" transform="translate(2.329 3.616)">
                            <g id="그룹_5449">
                                <g id="그룹_5448">
                                    <path id="패스_4913" d="M262.3 832.8a129.836 129.836 0 0 1 18.588-1.242l2.367.006 2.365.06 1.183.032 1.179.057 2.359.118c3.128.218 6.254.482 9.3.9l2.281.305 2.19.283c1.446.22 2.948.317 4.426.471 2.983.217 6.009.376 9.044.321a90.024 90.024 0 0 0 9.041-.564 65.386 65.386 0 0 0 8.646-1.521 45.05 45.05 0 0 1-8.269 2.108 75.879 75.879 0 0 1-9.3.954l-2.391.079-2.4-.011c-.8.008-1.6-.036-2.393-.07l-1.195-.052c-.4-.018-.8-.031-1.19-.068-1.57-.137-3.164-.234-4.7-.447l-2.315-.291-2.212-.289c-2.928-.406-5.935-.676-8.946-.932-3.028-.206-6.072-.394-9.144-.474-6.127-.169-12.326-.111-18.514.267z" class="cls-8" transform="translate(-262.298 -831.555)"/>
                                </g>
                            </g>
                        </g>
                        <g id="그룹_5453" transform="translate(2.329 3.973)">
                            <g id="그룹_5452">
                                <g id="그룹_5451">
                                    <path id="패스_4914" d="M262.3 833.981c3.024-.371 6.134-.579 9.25-.725s6.261-.188 9.4-.146c3.141.027 6.276.171 9.392.373 3.112.219 6.2.529 9.235.92l2.258.318c.738.1 1.465.214 2.211.3 1.481.186 2.986.326 4.5.443a89.892 89.892 0 0 0 9.164.229 81.677 81.677 0 0 0 9.075-.733c1.484-.2 2.938-.45 4.36-.737.712-.143 1.415-.3 2.1-.467s1.373-.343 2.022-.546a34.379 34.379 0 0 1-3.93 1.2c-1.384.348-2.828.645-4.307.9a74 74 0 0 1-9.227.968c-.788.04-1.579.056-2.371.077-.792 0-1.586.015-2.378 0-1.586-.015-3.167-.086-4.738-.184-.784-.054-1.569-.111-2.343-.19s-1.55-.156-2.319-.246-1.526-.2-2.29-.3l-2.225-.3a180.626 180.626 0 0 0-18.246-1.432c-6.178-.179-12.414-.123-18.593.278z" class="cls-9" transform="translate(-262.298 -833.096)"/>
                                </g>
                            </g>
                        </g>
                        <g id="그룹_5456" transform="translate(38.018 8.14)">
                            <g id="그룹_5455">
                                <g id="그룹_5454">
                                    <path id="패스_4915" d="M416.454 853.938a86.124 86.124 0 0 0 9.217.915c3.107.166 6.232.178 9.327.087a118 118 0 0 0 18-1.993l2.148-.426c.76-.142 1.5-.306 2.278-.428s1.545-.256 2.337-.358 1.584-.2 2.383-.288a67.649 67.649 0 0 1 9.788-.283 61.9 61.9 0 0 1 9.426 1.122 39.78 39.78 0 0 1 8.061 2.427 57.924 57.924 0 0 0-8.519-1.848 70.371 70.371 0 0 0-9.1-.721 72.067 72.067 0 0 0-9.083.466c-.736.1-1.479.176-2.2.293-.732.1-1.449.227-2.163.354s-1.414.274-2.123.408l-2.223.447a103.555 103.555 0 0 1-18.937 1.8c-1.618 0-3.234-.026-4.84-.106s-3.2-.2-4.773-.353a60.641 60.641 0 0 1-9.004-1.515z" class="cls-8" transform="translate(-416.454 -851.098)"/>
                                </g>
                            </g>
                        </g>
                        <g id="그룹_5459" transform="translate(38.018 8.562)">
                            <g id="그룹_5458">
                                <g id="그룹_5457">
                                    <path id="패스_4916" d="M416.454 855.338a77.783 77.783 0 0 0 9.108 1.137c3.1.228 6.241.294 9.362.245a109.843 109.843 0 0 0 18.191-1.873l2.159-.426c.748-.141 1.481-.3 2.242-.425s1.515-.261 2.292-.364 1.552-.21 2.338-.3c1.577-.163 3.172-.3 4.784-.354s3.228-.085 4.837-.03a65 65 0 0 1 9.4.943 44.05 44.05 0 0 1 8.259 2.218 54.925 54.925 0 0 0-8.517-1.866 70.145 70.145 0 0 0-9.193-.705 71.913 71.913 0 0 0-9.208.49c-.748.1-1.5.181-2.234.3-.744.1-1.468.232-2.2.358s-1.432.279-2.149.417l-2.209.443c-2.983.552-6.062 1-9.208 1.3s-6.353.458-9.559.462a94.616 94.616 0 0 1-9.53-.47 62.877 62.877 0 0 1-8.965-1.5z" class="cls-9" transform="translate(-416.454 -852.919)"/>
                                </g>
                            </g>
                        </g>
                        <g id="그룹_5466" transform="translate(76.046 15.054)">
                            <g id="그룹_5462" transform="translate(.183)">
                                <g id="그룹_5461">
                                    <g id="그룹_5460">
                                        <path id="패스_4917" d="M581.51 883.836c.6-.2 1.213-.394 1.836-.582.309-.1.627-.185.944-.277s.632-.185.966-.26q1-.231 2.011-.452.506-.112 1.02-.217l1.054-.176c.706-.114 1.415-.228 2.129-.335s1.458-.163 2.189-.243l1.1-.112 1.118-.072c.748-.04 1.493-.093 2.245-.116a63.5 63.5 0 0 1 8.974.352 36.208 36.208 0 0 1 8.107 1.729c-2.835-.39-5.65-.62-8.469-.754s-5.628-.157-8.434-.072c-.7.016-1.4.065-2.1.093l-1.052.045-1.044.08-2.1.148c-.69.073-1.385.14-2.084.206l-1.052.1-1.036.129q-1.038.128-2.1.245c-1.392.164-2.758.39-4.222.541z" class="cls-8" transform="translate(-581.51 -880.963)"/>
                                    </g>
                                </g>
                            </g>
                            <g id="그룹_5465" transform="translate(0 .602)">
                                <g id="그룹_5464">
                                    <g id="그룹_5463">
                                        <path id="패스_4918" d="M580.718 885.87q.96-.24 1.941-.469l.984-.226c.327-.078.663-.144 1-.2 1.366-.238 2.722-.511 4.148-.673a82.165 82.165 0 0 1 17.466-.476 52.971 52.971 0 0 1 8.335 1.251c-2.815-.344-5.654-.546-8.5-.666-1.423-.056-2.846-.1-4.27-.1h-2.135l-2.132.049c-.712 0-1.418.052-2.127.077s-1.419.058-2.121.113l-2.118.14c-.7.058-1.4.13-2.1.19-1.414.109-2.788.3-4.193.452-.712.063-1.382.188-2.081.275s-1.39.176-2.097.263z" class="cls-9" transform="translate(-580.718 -883.562)"/>
                                    </g>
                                </g>
                            </g>
                        </g>
                        <g id="그룹_5469" transform="translate(3.08 13.724)">
                            <g id="그룹_5468">
                                <g id="그룹_5467">
                                    <path id="패스_4919" d="M265.54 876.459a129.837 129.837 0 0 1 18.588-1.242l2.367.006 2.365.06 1.183.032 1.179.057 2.359.118c3.128.218 6.254.482 9.3.9l2.282.305 2.19.283c1.446.22 2.948.317 4.426.471 2.983.217 6.009.376 9.044.321a90.1 90.1 0 0 0 9.041-.564 65.427 65.427 0 0 0 8.646-1.521 45.05 45.05 0 0 1-8.262 2.113 75.909 75.909 0 0 1-9.3.954l-2.391.079-2.4-.011c-.8.008-1.6-.036-2.393-.07l-1.195-.052c-.4-.018-.8-.031-1.19-.069-1.57-.137-3.164-.234-4.7-.447l-2.315-.291-2.211-.289c-2.928-.406-5.935-.677-8.946-.933-3.028-.206-6.072-.394-9.144-.473-6.134-.169-12.333-.112-18.523.263z" class="cls-8" transform="translate(-265.54 -875.217)"/>
                                </g>
                            </g>
                        </g>
                        <g id="그룹_5472" transform="translate(3.08 14.087)">
                            <g id="그룹_5471">
                                <g id="그룹_5470">
                                    <path id="패스_4920" d="M265.54 877.663a147.688 147.688 0 0 1 18.615-.867l2.351.036 2.345.085 1.173.045 1.168.066 2.338.133c3.1.238 6.191.516 9.213.926l2.263.3 2.214.285c1.463.218 2.985.307 4.482.456 3.019.207 6.085.338 9.145.242a83.335 83.335 0 0 0 9.06-.715 58.083 58.083 0 0 0 8.48-1.733 46.387 46.387 0 0 1-8.234 2.085 75.478 75.478 0 0 1-9.216.95l-2.367.078-2.373-.013c-.793.007-1.579-.038-2.367-.07l-1.182-.051c-.394-.018-.79-.029-1.178-.067l-2.336-.2c-.785-.055-1.545-.156-2.309-.253l-2.292-.286-2.227-.292c-2.949-.416-5.979-.69-9.01-.948-3.047-.217-6.111-.4-9.2-.484-6.162-.165-12.386-.108-18.556.292z" class="cls-9" transform="translate(-265.54 -876.784)"/>
                                </g>
                            </g>
                        </g>
                    </g>
                </g>
            </g>
            <g id="그룹_5478" transform="translate(6.767 47.548)">
                <g id="그룹_5477">
                    <g id="그룹_5476">
                        <path id="패스_4921" fill="#ffbfae" d="M365.833 476.307s-20.273 1.92-27 2.41c-5.558.4-15.949.892-21.513 1.211-8.04.46-16.4-4.458-21.6-3.621-5.791.932-11.588 3.245-22.888 2.268-10.26-.888-20.593-2.268-20.593-2.268v-80.933h113.6z" transform="translate(-252.237 -395.374)"/>
                    </g>
                </g>
            </g>
            <g id="그룹_5494" transform="translate(18.103 46.463)">
                <g id="그룹_5479">
                    <path id="패스_4922" d="M301.3 390.687s-.767 4.682 2.029 12.766c11.427 33.036 29.22 31.544 32.444 31.746v-1.209s-3.987 1.418-5.552-.321c-13.018-14.463-21.6-27.459-26.364-39.507a7.367 7.367 0 0 0-2.557-3.475z" class="cls-7" transform="translate(-301.203 -390.687)"/>
                </g>
                <g id="그룹_5486" transform="translate(8.163 21.501)">
                    <g id="그룹_5482">
                        <g id="그룹_5481">
                            <g id="그룹_5480">
                                <path id="패스_4923" d="M352.607 503.164c-.454-.217-.905-.457-1.358-.7-.228-.119-.452-.249-.679-.375s-.454-.251-.673-.4q-.662-.437-1.323-.893-.332-.226-.661-.461l-.639-.51c-.425-.344-.851-.69-1.274-1.043s-.814-.759-1.221-1.142l-.605-.582-.576-.619c-.378-.419-.768-.829-1.133-1.261a32.406 32.406 0 0 1-3.808-5.6 19.945 19.945 0 0 1-2.192-6.018 49.077 49.077 0 0 0 3.221 5.571 56.031 56.031 0 0 0 3.809 5.085c.336.408.7.791 1.046 1.191l.523.6.55.569 1.094 1.151c.382.363.76.732 1.139 1.1l.567.563.589.531q.59.533 1.179 1.086c.792.724 1.618 1.386 2.425 2.157z" class="cls-8" transform="translate(-336.464 -483.56)"/>
                            </g>
                        </g>
                    </g>
                    <g id="그룹_5485">
                        <g id="그룹_5484">
                            <g id="그룹_5483">
                                <path id="패스_4924" d="M352.724 503.249q-.653-.41-1.306-.84l-.652-.435c-.219-.141-.432-.3-.642-.46-.838-.654-1.7-1.278-2.5-2.019a41.831 41.831 0 0 1-4.6-4.7 41.3 41.3 0 0 1-3.837-5.405 28.049 28.049 0 0 1-2.72-5.828 55.193 55.193 0 0 0 3.312 5.528c.6.888 1.222 1.765 1.87 2.619l.976 1.278 1.022 1.239c.327.425.7.811 1.045 1.218s.7.808 1.074 1.19l1.1 1.17c.374.379.758.746 1.133 1.126.746.77 1.545 1.461 2.325 2.2.383.382.8.7 1.2 1.055s.797.701 1.2 1.064z" class="cls-9" transform="translate(-336.464 -483.56)"/>
                            </g>
                        </g>
                    </g>
                </g>
                <g id="그룹_5493" transform="translate(.586 .459)">
                    <g id="그룹_5489">
                        <g id="그룹_5488">
                            <g id="그룹_5487">
                                <path id="패스_4925" d="M313.179 413.025c-.361-.279-.713-.577-1.064-.88-.178-.149-.35-.306-.524-.462s-.351-.309-.512-.483q-.49-.513-.975-1.042-.244-.263-.482-.533l-.447-.573c-.3-.385-.593-.772-.884-1.164s-.537-.825-.8-1.24l-.394-.629-.356-.656c-.23-.442-.473-.877-.687-1.328a25.209 25.209 0 0 1-1.9-5.657 16.12 16.12 0 0 1-.263-5.71 38.383 38.383 0 0 0 1.36 5.518 43.5 43.5 0 0 0 2.056 5.206c.194.424.42.831.626 1.249l.312.627.346.607.683 1.224c.25.392.494.791.739 1.192l.364.605.395.581q.394.583.782 1.183c.52.789 1.098 1.532 1.625 2.365z" class="cls-8" transform="translate(-303.732 -392.669)"/>
                            </g>
                        </g>
                    </g>
                    <g id="그룹_5492" transform="translate(.151)">
                        <g id="그룹_5491">
                            <g id="그룹_5490">
                                <path id="패스_4926" d="M313.765 413.122q-.491-.487-.974-.992l-.482-.509c-.163-.167-.316-.346-.465-.529-.591-.737-1.214-1.453-1.742-2.26a32.676 32.676 0 0 1-2.915-5.024 32.086 32.086 0 0 1-1.987-5.493 22.243 22.243 0 0 1-.814-5.647 43.091 43.091 0 0 0 1.458 5.5c.3.9.62 1.788.973 2.664l.535 1.312.589 1.287c.18.437.412.848.617 1.273s.418.846.652 1.254l.679 1.241c.237.406.488.8.727 1.21.47.822 1.013 1.584 1.526 2.381.245.41.542.768.81 1.16s.548.775.813 1.172z" class="cls-9" transform="translate(-304.385 -392.669)"/>
                            </g>
                        </g>
                    </g>
                </g>
            </g>
            <g id="그룹_5497" transform="translate(6.767 40.56)">
                <g id="그룹_5496">
                    <g id="그룹_5495">
                        <path id="패스_4927" fill="#ffd7cd" d="M365.833 373.253c-7.66.336-16.324-1.277-21.769-1.075-7.257.269-17.916 1.013-23.92 1.075-7.812.081-23.378-1.2-31.176-1.075-7.193.114-21.58 1.754-28.757 1.075-2.055-.194-7.973-1.075-7.973-1.075v-6.988h113.6z" transform="translate(-252.237 -365.19)"/>
                    </g>
                </g>
            </g>
            <g id="그룹_5499" transform="translate(100.307 61.376)">
                <g id="그룹_5498">
                    <path id="패스_4928" fill="#dbaaa1" d="M661.847 473.136a2.578 2.578 0 0 1 1.183 1.4 6.963 6.963 0 0 1 .434 2.313c.032.816-.019 1.607-.026 2.377-.035.778.02 1.556.036 2.33.183 3.061.826 6.161 2.185 8.248a5.411 5.411 0 0 0 4.177 2.778c.214.015.362-.348.266-.666-.136-.45-.291-.888-.465-1.311-.1-.253-.231-.541-.35-.876A7.339 7.339 0 0 1 669 488.7a8.035 8.035 0 0 1-.127-2.267 10.378 10.378 0 0 1 .331-1.833.763.763 0 0 0 .017-.309 48.572 48.572 0 0 0-1.778-7.545 26.814 26.814 0 0 0-3.257-6.885c-.332-.467-.666-1.019-1-1.54-.156-.277-.276-.61-.415-.912-.064-.157-.141-.3-.195-.47l-.146-.518A12.628 12.628 0 0 1 662 462c.22-2.994 1.405-4.536 2.478-6.895-1.032 2.406-2.16 3.987-2.322 6.918a11.994 11.994 0 0 0 .484 4.225l.146.484c.054.156.13.291.193.437.138.28.254.589.408.844.329.485.636.973 1 1.452a26.544 26.544 0 0 1 3.464 6.9 47.829 47.829 0 0 1 1.81 6.846c.088-.226.176-.452.267-.668.989-2.235 2.182-4.073 3.226-6.108a19.41 19.41 0 0 0 1.372-3.25 8.48 8.48 0 0 0 .329-3.8.128.128 0 0 1 .042-.127c.033-.017.068.013.079.068a9.076 9.076 0 0 1-.222 4.033 21.14 21.14 0 0 1-1.307 3.466c-1 2.151-2.135 4.107-3 6.3a11.36 11.36 0 0 0-.859 3.444 5.96 5.96 0 0 0 .135 1.706 5.364 5.364 0 0 0 .24.778c.092.24.211.485.341.784a16.09 16.09 0 0 1 1.159 3.806 17.607 17.607 0 0 1 .184 4.307c-.2 2.849-.982 5.414-1.119 7.792-.055 1.258-.1 2.64-.1 3.915a17.5 17.5 0 0 0 .247 3.612c.2 1.055-1.04 1.313-1.178.72a20.454 20.454 0 0 1-.374-4.345c.017-1.414.082-2.718.172-4.137a32.614 32.614 0 0 1 .714-4.059 33.124 33.124 0 0 0 .642-3.726 15.049 15.049 0 0 0-.079-3.751c-.033-.213-.153-.358-.286-.361a5.132 5.132 0 0 1-2.463-.674 7.114 7.114 0 0 1-2.5-2.573c-1.426-2.324-2.032-5.614-2.169-8.764 0-.8-.046-1.595 0-2.387.022-.8.084-1.581.066-2.338a6.535 6.535 0 0 0-.362-2.156 2.457 2.457 0 0 0-1.069-1.336 3.555 3.555 0 0 0-2.792-.058 10.776 10.776 0 0 0-2.725 1.361 11.193 11.193 0 0 1 2.709-1.488 3.622 3.622 0 0 1 2.866-.061z" transform="translate(-656.281 -455.104)"/>
                </g>
            </g>
            <g id="그룹_5502" transform="translate(6.767 36.609)">
                <g id="그룹_5501">
                    <g id="그룹_5500">
                        <path id="패스_4929" d="M365.833 352.963l-7.56.967a65.994 65.994 0 0 1-14.5.241l-6.813-.639a67.746 67.746 0 0 0-12.145-.044l-10.345.9a66.123 66.123 0 0 1-10.883.041l-12.754-1.007a67.748 67.748 0 0 0-11.518.074l-6.742.62a65.867 65.867 0 0 1-16.011-.483l-4.327-.667v-4.838h113.6z" class="cls-13" transform="translate(-252.237 -348.125)"/>
                    </g>
                </g>
            </g>
            <g id="그룹_5505" transform="translate(6.767 30.616)">
                <g id="그룹_5504">
                    <g id="그룹_5503">
                        <path id="패스_4930" d="M365.833 328.23h-113.6l5.375-5.993h102.85z" class="cls-14" transform="translate(-252.237 -322.237)"/>
                    </g>
                </g>
            </g>
            <g id="그룹_5508" transform="translate(6.767 84.852)">
                <g id="그룹_5507">
                    <g id="그룹_5506">
                        <path id="패스_4931" fill="#c73b24" d="M365.833 590.422a43.735 43.735 0 0 0-9.2.9 52.732 52.732 0 0 1-9.21.988c-7.6 0-10.049.1-12.21.188l-.607.024a1.02 1.02 0 0 1-.948-1.485 4.954 4.954 0 0 0 .5-1.7 16.6 16.6 0 0 0 .165-1.659 10.849 10.849 0 0 0-.35-3.374 7.039 7.039 0 0 0-1.718-3.009 9.712 9.712 0 0 0-2.8-1.923c-.989-.489-2.021-.858-2.864-1.39a2.208 2.208 0 0 1-.909-.983 2.157 2.157 0 0 1-.014-1.342 5.6 5.6 0 0 1 .243-.713l.306-.76c.2-.51.381-1.028.543-1.553a13.309 13.309 0 0 0 .614-3.256c.012-.238.014-.477.005-.717a.778.778 0 0 1 .478-.741 3.5 3.5 0 0 0 .7-.4 3.313 3.313 0 0 0 1-1.214 7.148 7.148 0 0 0 .567-2.837c.04-.934.01-1.853.1-2.759a4.751 4.751 0 0 1 .3-1.32 2.167 2.167 0 0 1 .845-1.042 2.234 2.234 0 0 0-.966.985 4.937 4.937 0 0 0-.44 1.336c-.183.92-.242 1.849-.37 2.751a6.537 6.537 0 0 1-.739 2.5 2.35 2.35 0 0 1-.841.831.778.778 0 0 1-1.11-.363q-.062-.151-.133-.3a7.405 7.405 0 0 0-2.155-2.527c-.864-.68-1.792-1.24-2.674-1.85a9.091 9.091 0 0 1-2.343-2.145 5.219 5.219 0 0 1-.938-3 .054.054 0 0 0-.108 0 5.383 5.383 0 0 0 .867 3.119 9.34 9.34 0 0 0 2.333 2.287c.873.646 1.778 1.236 2.59 1.922a6.943 6.943 0 0 1 1.939 2.421 6.181 6.181 0 0 1 .473 3.027 12.654 12.654 0 0 1-.663 3.077q-.107.319-.226.635a.8.8 0 0 1-1 .471 2.548 2.548 0 0 0-.263-.068 5.18 5.18 0 0 0-1.5-.06c-.96.084-1.86.288-2.762.419a6.765 6.765 0 0 1-2.674 0 2.787 2.787 0 0 1-1.166-.625 3.485 3.485 0 0 1-.789-1.108 3.552 3.552 0 0 0 .693 1.2 2.988 2.988 0 0 0 1.178.786 7.132 7.132 0 0 0 2.81.282c.932-.046 1.854-.16 2.738-.149a3.842 3.842 0 0 1 1.365.215.793.793 0 0 1 .442.972l-.019.066a2.948 2.948 0 0 0 0 1.841 3.051 3.051 0 0 0 1.2 1.408 32.577 32.577 0 0 0 2.91 1.535 8.838 8.838 0 0 1 2.464 1.794 7.821 7.821 0 0 1 1.783 5.62 15.608 15.608 0 0 1-.084 1.568 3.569 3.569 0 0 1-2.581 3.329l-.39.073c-4.059.033-10.592.007-16.425-.016-6.192-.026-11.54-.047-12.806.005-.62.025-2.135.147-4.231.317-2.267.183-5.145.415-8.4.65a2.95 2.95 0 0 0 .524-.867 6.561 6.561 0 0 0 .32-2.253c-.014-.733-.07-1.409-.148-2.145a11.038 11.038 0 0 0-.612-2.1 11.2 11.2 0 0 1-.551-1.931 4.757 4.757 0 0 1 .068-1.947l.242-.185a6.728 6.728 0 0 0 2.113-.349 5.57 5.57 0 0 0 2.14-1.334 7 7 0 0 0 1.859-4.543 11.3 11.3 0 0 0 0-1.237c-.019-.415-.072-.82-.056-1.212a2.224 2.224 0 0 1 .31-1.118 1.681 1.681 0 0 1 .916-.693 4.909 4.909 0 0 1 2.393-.03 12.469 12.469 0 0 1 2.336.706 12.477 12.477 0 0 0-2.322-.771 5 5 0 0 0-2.449-.032 1.832 1.832 0 0 0-1.014.728 2.4 2.4 0 0 0-.372 1.2c-.027.423.016.833.023 1.232a11.11 11.11 0 0 1-.031 1.208 6.665 6.665 0 0 1-1.873 4.276 5.442 5.442 0 0 1-3.58 1.44.246.246 0 0 1-.219-.362 5.949 5.949 0 0 1 .39-.662c.086-.131.2-.28.3-.454a2.738 2.738 0 0 0 .247-.537 2.559 2.559 0 0 0 .109-1.175 3.532 3.532 0 0 0-.284-.95.245.245 0 0 1-.015-.16 17.409 17.409 0 0 1 1.524-3.911 12.758 12.758 0 0 1 2.791-3.569c.284-.242.571-.528.854-.8.134-.144.237-.316.356-.473a2.942 2.942 0 0 0 .167-.244l.125-.268a4.112 4.112 0 0 0 .368-2.292c-.189-1.552-1.2-2.352-2.125-3.574.885 1.248 1.852 2.067 1.991 3.586a3.941 3.941 0 0 1-.415 2.191l-.125.251a2.77 2.77 0 0 1-.166.226c-.118.145-.218.305-.35.438-.282.251-.545.5-.854.753a13.094 13.094 0 0 0-2.969 3.577 17.662 17.662 0 0 0-1.551 3.549c-.075-.117-.15-.234-.229-.346-.848-1.159-1.87-2.111-2.765-3.166a8.659 8.659 0 0 1-1.176-1.685 2.769 2.769 0 0 1-.282-1.97.055.055 0 0 0-.036-.066.054.054 0 0 0-.067.035 2.93 2.93 0 0 0 .19 2.091 8.9 8.9 0 0 0 1.121 1.8c.854 1.115 1.83 2.129 2.573 3.267a4.147 4.147 0 0 1 .736 1.785 1.921 1.921 0 0 1-.115.884 2.091 2.091 0 0 1-.205.4c-.079.124-.181.251-.293.407a6.226 6.226 0 0 0-.993 1.973 5.583 5.583 0 0 0-.158 2.233c.168 1.477.841 2.807.959 4.04.047.652.083 1.369.082 2.029a5.585 5.585 0 0 1-.211 1.873 1.949 1.949 0 0 1-1.1 1.2 3.8 3.8 0 0 1-.462.187c-2.4.166-4.955.328-7.6.471a70.945 70.945 0 0 1-12.7-.878 65.281 65.281 0 0 0-7.376-.706c-3.753-.024-6.381-.092-6.381-.092v1.067c.065.01 2.607.076 6.374.1a64.683 64.683 0 0 1 7.244.7 85.005 85.005 0 0 0 10.883.938c.674 0 1.346-.016 2.012-.053 7.189-.39 14.005-.94 18.078-1.268 2.084-.168 3.59-.29 4.188-.314 1.242-.05 6.578-.029 12.757 0 6.424.026 13.7.055 17.595 0 1.692-.022 2.758-.066 3.888-.112 2.151-.088 4.589-.187 12.167-.187a53.571 53.571 0 0 0 9.39-1 43.217 43.217 0 0 1 9.02-.878z" transform="translate(-252.237 -556.51)"/>
                    </g>
                </g>
            </g>
            <g id="그룹_5511" transform="translate(40.372 36.609)">
                <g id="그룹_5510">
                    <g id="그룹_5509">
                        <path id="패스_4932" d="M424.168 359.947a47.859 47.859 0 0 1 .39-11.823h-10.99a47.855 47.855 0 0 1 .39 11.823c-.376 4.429-1.743 11.854-2.888 19.936-.267 1.882-1.178 4.721-3.034 5.134-2.857.635-5.949-.851-8.611.784-4.046 2.485-1.561 9.4 3.158 8.869 2.12-.238 5.071-2.161 7-6.921a.252.252 0 0 1 .486.117c-1.6 15.195-1.126 30.055 8.994 30.055 19.751 0 6.293-43.967 5.105-57.974z" class="cls-16" transform="translate(-397.392 -348.124)"/>
                    </g>
                </g>
            </g>
            <g id="그룹_5514" transform="translate(41.441 36.609)">
                <g id="그룹_5513">
                    <g id="그룹_5512">
                        <path id="패스_4933" d="M426.877 359.64c-1.26-8-.637-11.516-.637-11.516h-6.954s-.491 16.8-2.861 28.814c-.368 1.865-.676 7.075-4.126 8.2-4.187 1.36-5.557-.153-8.473.968-2.946 1.133-2.33 8.1 2.017 7.455 3.068-.453 5.353-2.229 7.286-6.987.944-2.324 2.139-2.735 1.737 2.113-1.624 19.629.4 27.914 8.189 27.914 13.063-.001 8.833-25.147 3.822-56.961z" class="cls-14" transform="translate(-402.009 -348.124)"/>
                    </g>
                </g>
            </g>
            <g id="그룹_5517" transform="translate(6.767 87.123)">
                <g id="그룹_5516">
                    <g id="그룹_5515">
                        <path id="패스_4934" fill="#4d7ca6" d="M363.358 601.08c-.267-.2-.539-.412-.821-.612-4.088-2.9-8.179-1.6-14.957.539l-.655.207c-7.216 2.277-9.567 2.615-11.7 2.6a16.124 16.124 0 0 0 1.511-.625 9.864 9.864 0 0 0 2.359-1.542 5.346 5.346 0 0 0 1.593-2.4 4.484 4.484 0 0 0 .183-1.454 7.035 7.035 0 0 0-.225-1.4c-.207-.868-.363-1.746-.489-2.627a14.8 14.8 0 0 1 .093-5.279 9.866 9.866 0 0 1 .934-2.468 11.217 11.217 0 0 0 1.171-2.474 3.172 3.172 0 0 0-.024-1.4 5.381 5.381 0 0 0-.487-1.293 6.754 6.754 0 0 0-1.786-2.061c-1.408-1.133-3.022-2.01-4.118-3.451a8.151 8.151 0 0 1-1.547-5.056 8.2 8.2 0 0 0 1.467 5.116c1.084 1.482 2.706 2.4 4.07 3.544a6.534 6.534 0 0 1 1.693 2.023 3.714 3.714 0 0 1 .428 2.51 11.1 11.1 0 0 1-1.206 2.359 10.294 10.294 0 0 0-1.043 2.543 11.847 11.847 0 0 0-.336 2.077 3.14 3.14 0 0 0-.4-.535 6.119 6.119 0 0 0-2.493-1.377c-.877-.313-1.765-.557-2.6-.911a4.724 4.724 0 0 1-1.177-.66 2.151 2.151 0 0 1-.75-1.1.027.027 0 0 0-.031-.02.027.027 0 0 0-.021.031 2.257 2.257 0 0 0 .7 1.206 4.931 4.931 0 0 0 1.171.783c.84.414 1.72.711 2.56 1.068a8.131 8.131 0 0 1 2.269 1.357 2.978 2.978 0 0 1 .507.6l.233.82a21.274 21.274 0 0 0 .125 2.124c.1.905.239 1.807.425 2.7a6.267 6.267 0 0 1 .172 1.27 3.735 3.735 0 0 1-.187 1.208 4.547 4.547 0 0 1-1.42 2 9 9 0 0 1-2.19 1.339 19.509 19.509 0 0 1-5.027 1.367 84.239 84.239 0 0 1-11.831-1.18 110.459 110.459 0 0 0-18.238-1.554 85.124 85.124 0 0 0-10.129.992c-3.5.487-7.477 1.04-12.962 1.338-.454.025-.9.006-.915-.064s-.017-.157.176-.345a3.544 3.544 0 0 0 1.03-2.067 6.079 6.079 0 0 0-.117-2.213 13.8 13.8 0 0 0-.611-2.013 7.565 7.565 0 0 1-.433-1.851 13.5 13.5 0 0 1 .01-1.979 14.8 14.8 0 0 0-.04-2.105 15.972 15.972 0 0 0-.365-2.068l-.019-.076a1.106 1.106 0 0 1 .231-.988 5.1 5.1 0 0 0 1.018-2.1 6.41 6.41 0 0 0-.184-3.276c-.592-2.09-1.569-4-2.208-6.032a9.352 9.352 0 0 1-.515-3.11 4.848 4.848 0 0 1 1.109-2.891 3.9 3.9 0 0 1 1.247-.954c.473-.241.984-.4 1.483-.6a3.524 3.524 0 0 0 1.363-.837 2.991 2.991 0 0 0 .687-1.433 2.975 2.975 0 0 1-.711 1.41 3.478 3.478 0 0 1-1.363.8c-.5.184-1.016.336-1.5.571a4.013 4.013 0 0 0-1.3.955 5.025 5.025 0 0 0-1.208 2.967 9.582 9.582 0 0 0 .457 3.2c.6 2.067 1.542 4.014 2.072 6.058a5.982 5.982 0 0 1 .116 3.06 4.856 4.856 0 0 1-.595 1.4 3.761 3.761 0 0 1-.5.632c-.244-.911-.511-1.818-.831-2.71a13.935 13.935 0 0 0-1.889-3.685 5.829 5.829 0 0 0-1.523-1.423 3.934 3.934 0 0 0-1.978-.591.054.054 0 0 0-.005.107 3.766 3.766 0 0 1 1.862.669 5.556 5.556 0 0 1 1.372 1.434 13.875 13.875 0 0 1 1.632 3.666c.4 1.288.7 2.61.971 3.94a15.227 15.227 0 0 1 .264 1.971 12.927 12.927 0 0 1-.053 1.981 16.067 16.067 0 0 0-.119 2.106 7.509 7.509 0 0 0 .4 2.14c.215.67.446 1.259.587 1.9a6.072 6.072 0 0 1 .171 1.847 2.753 2.753 0 0 1-.658 1.578 4.089 4.089 0 0 1-1.534 1.01c-.175.07-.359.121-.54.178-11.424.455-22.346.155-22.466.152v1.057c.133 0 13.36.376 25.979-.308 5.53-.3 9.526-.856 13.052-1.346a84.278 84.278 0 0 1 10.009-.982 109.547 109.547 0 0 1 18.058 1.544 84.646 84.646 0 0 0 12.033 1.191c.992-.014 1.781.021 2.479.051.538.023 1.034.044 1.548.044 2.182 0 4.667-.384 11.853-2.652l.656-.207c6.679-2.111 10.359-3.275 14.012-.687.271.192.533.392.789.588a5.431 5.431 0 0 0 3.128 1.516v-1.078a4.679 4.679 0 0 1-2.488-1.294z" transform="translate(-252.237 -566.317)"/>
                    </g>
                </g>
            </g>
            <g id="그룹_5520" transform="translate(42.456 34.013)">
                <g id="그룹_5519">
                    <g id="그룹_5518">
                        <path id="패스_4935" d="M406.395 337.728c.114.078 5.736.078 5.851 0-.53-1.035-5.267-1.147-5.851 0z" class="cls-13" transform="translate(-406.395 -336.91)"/>
                    </g>
                </g>
            </g>
            <g id="그룹_5523" transform="translate(96.108 35.775)">
                <g id="그룹_5522">
                    <g id="그룹_5521">
                        <path id="패스_4936" d="M638.147 345.355h4.834c-.354-.955-4.21-1.262-4.834 0z" class="cls-13" transform="translate(-638.147 -344.521)"/>
                    </g>
                </g>
            </g>
            <g id="그룹_5592" transform="translate(40.901 73.771)">
                <g id="그룹_5530" transform="translate(8.773 .304)">
                    <g id="그룹_5526" transform="translate(.037 .006)">
                        <g id="그룹_5525">
                            <g id="그룹_5524">
                                <path id="패스_4937" d="M438.718 510.023a1.286 1.286 0 1 1-.95 1.551 1.286 1.286 0 0 1 .95-1.551z" class="cls-1" transform="translate(-437.732 -509.987)"/>
                            </g>
                        </g>
                    </g>
                    <g id="그룹_5529">
                        <g id="그룹_5528">
                            <g id="그룹_5527">
                                <path id="패스_4938" d="M438.594 510a1.333 1.333 0 0 1 .985.139 1.245 1.245 0 0 1 .6.809 1.34 1.34 0 0 1-.973 1.578 1.3 1.3 0 0 1-1-.144 1.325 1.325 0 0 1-.6-.818 1.265 1.265 0 0 1 .169-.993 1.31 1.31 0 0 1 .819-.571zm0 .007a1.27 1.27 0 0 0-.777.588 1.321 1.321 0 0 0-.138.952 1.254 1.254 0 0 0 .561.776 1.282 1.282 0 0 0 .95.163 1.236 1.236 0 0 0 .789-.566 1.271 1.271 0 0 0 .138-.958 1.344 1.344 0 0 0-.562-.784 1.248 1.248 0 0 0-.955-.172z" class="cls-5" transform="translate(-437.571 -509.96)"/>
                            </g>
                        </g>
                    </g>
                </g>
                <g id="그룹_5537" transform="translate(2.34)">
                    <g id="그룹_5533" transform="translate(.016 .002)">
                        <g id="그룹_5532">
                            <g id="그룹_5531">
                                <path id="패스_4939" d="M410.916 508.694a1.388 1.388 0 1 1-1.025 1.674 1.388 1.388 0 0 1 1.025-1.674z" class="cls-4" transform="translate(-409.852 -508.656)"/>
                            </g>
                        </g>
                    </g>
                    <g id="그룹_5536">
                        <g id="그룹_5535">
                            <g id="그룹_5534">
                                <path id="패스_4940" d="M410.863 508.687a1.4 1.4 0 0 1 1.692 1.021 1.407 1.407 0 1 1-2.56-.4 1.4 1.4 0 0 1 .868-.621zm0 0a1.379 1.379 0 0 0-1.007 1.67 1.369 1.369 0 1 0 2.051-1.5 1.387 1.387 0 0 0-1.044-.17z" class="cls-5" transform="translate(-409.783 -508.645)"/>
                            </g>
                        </g>
                    </g>
                </g>
                <g id="그룹_5545" transform="translate(5.452 3.91)">
                    <g id="그룹_5540" transform="translate(.037 .006)">
                        <g id="그룹_5539">
                            <g id="그룹_5538">
                                <path id="패스_4941" d="M424.658 525.607a1.66 1.66 0 1 1-1.226 2 1.66 1.66 0 0 1 1.226-2z" class="cls-6" transform="translate(-423.386 -525.561)"/>
                            </g>
                        </g>
                    </g>
                    <g id="그룹_5544">
                        <g id="그룹_5543">
                            <g id="그룹_5542">
                                <g id="그룹_5541">
                                    <path id="패스_4942" d="M424.534 525.583a1.709 1.709 0 0 1 1.268.183 1.62 1.62 0 0 1 .763 1.04 1.683 1.683 0 0 1-.214 1.269 1.719 1.719 0 0 1-1.035.76 1.672 1.672 0 0 1-1.278-.189 1.7 1.7 0 0 1-.765-1.048 1.638 1.638 0 0 1 .214-1.276 1.685 1.685 0 0 1 1.047-.739zm0 .007a1.643 1.643 0 0 0-1.009.756 1.694 1.694 0 0 0-.183 1.234 1.627 1.627 0 0 0 .729 1.007 1.657 1.657 0 0 0 1.232.208 1.611 1.611 0 0 0 1.021-.734 1.646 1.646 0 0 0 .183-1.241 1.718 1.718 0 0 0-.731-1.016 1.622 1.622 0 0 0-1.24-.214z" class="cls-5" transform="translate(-423.226 -525.534)"/>
                                </g>
                            </g>
                        </g>
                    </g>
                </g>
                <g id="그룹_5553" transform="translate(0 1.377)">
                    <g id="그룹_5548">
                        <g id="그룹_5547">
                            <g id="그룹_5546">
                                <circle id="타원_332" cx="1.106" cy="1.106" r="1.106" class="cls-6" transform="rotate(-32.667 2.037 .597)"/>
                            </g>
                        </g>
                    </g>
                    <g id="그룹_5552" transform="translate(.384 .415)">
                        <g id="그룹_5551">
                            <g id="그룹_5550">
                                <g id="그룹_5549">
                                    <path id="패스_4943" d="M402.22 516.422a1.167 1.167 0 0 1 .849.116 1.077 1.077 0 0 1 .516.7 1.166 1.166 0 0 1-.843 1.361 1.122 1.122 0 0 1-1.376-.828 1.1 1.1 0 0 1 .15-.857 1.157 1.157 0 0 1 .704-.492zm0 .008a1.062 1.062 0 0 0-.665.506 1.125 1.125 0 0 0-.115.814 1.09 1.09 0 0 0 1.291.806 1.05 1.05 0 0 0 .791-1.306 1.147 1.147 0 0 0-.479-.672 1.054 1.054 0 0 0-.821-.148z" class="cls-5" transform="translate(-401.335 -516.389)"/>
                                </g>
                            </g>
                        </g>
                    </g>
                </g>
                <g id="그룹_5561" transform="translate(.204 4.184)">
                    <g id="그룹_5556" transform="translate(.032 .005)">
                        <g id="그룹_5555">
                            <g id="그룹_5554">
                                <path id="패스_4944" d="M401.764 526.775a1.388 1.388 0 1 1-1.025 1.674 1.388 1.388 0 0 1 1.025-1.674z" class="cls-1" transform="translate(-400.7 -526.737)"/>
                            </g>
                        </g>
                    </g>
                    <g id="그룹_5560">
                        <g id="그룹_5559">
                            <g id="그룹_5558">
                                <g id="그룹_5557">
                                    <path id="패스_4945" d="M401.655 526.756a1.408 1.408 0 0 1 1.693 1.025 1.417 1.417 0 0 1-2.112 1.544 1.4 1.4 0 0 1-.457-1.951 1.4 1.4 0 0 1 .876-.618zm0 .007a1.379 1.379 0 0 0-.843.632 1.366 1.366 0 1 0 2.5.395 1.368 1.368 0 0 0-1.655-1.026z" class="cls-5" transform="translate(-400.56 -526.717)"/>
                                </g>
                            </g>
                        </g>
                    </g>
                </g>
                <g id="그룹_5569" transform="translate(7.389 2.235)">
                    <g id="그룹_5564" transform="translate(.032 .005)">
                        <g id="그룹_5563">
                            <g id="그룹_5562">
                                <path id="패스_4946" d="M432.8 518.357a1.388 1.388 0 1 1-1.025 1.674 1.388 1.388 0 0 1 1.025-1.674z" class="cls-1" transform="translate(-431.735 -518.319)"/>
                            </g>
                        </g>
                    </g>
                    <g id="그룹_5568">
                        <g id="그룹_5567">
                            <g id="그룹_5566">
                                <g id="그룹_5565">
                                    <path id="패스_4947" d="M432.69 518.338a1.408 1.408 0 0 1 1.693 1.025 1.418 1.418 0 0 1-2.113 1.545 1.4 1.4 0 0 1-.456-1.951 1.4 1.4 0 0 1 .876-.619zm0 .007a1.38 1.38 0 0 0-.843.631 1.366 1.366 0 1 0 2.5.395 1.368 1.368 0 0 0-1.655-1.026z" class="cls-5" transform="translate(-431.595 -518.299)"/>
                                </g>
                            </g>
                        </g>
                    </g>
                </g>
                <g id="그룹_5576" transform="translate(2.512 5.012)">
                    <g id="그룹_5572" transform="translate(.032 .004)">
                        <g id="그룹_5571">
                            <g id="그룹_5570">
                                <path id="패스_4948" d="M412.068 530.365a1.828 1.828 0 1 1-1.35 2.2 1.828 1.828 0 0 1 1.35-2.2z" class="cls-6" transform="translate(-410.668 -530.314)"/>
                            </g>
                        </g>
                    </g>
                    <g id="그룹_5575">
                        <g id="그룹_5574">
                            <g id="그룹_5573">
                                <path id="패스_4949" d="M411.961 530.346a1.842 1.842 0 0 1 2.007 2.748 1.85 1.85 0 1 1-2.007-2.748zm0 .007a1.805 1.805 0 0 0-1.314 2.191 1.8 1.8 0 0 0 3.5-.841 1.808 1.808 0 0 0-2.185-1.351z" class="cls-5" transform="translate(-410.529 -530.294)"/>
                            </g>
                        </g>
                    </g>
                </g>
                <g id="그룹_5583" transform="translate(2.34 2.51)">
                    <g id="그룹_5579" transform="translate(.016 .002)">
                        <g id="그룹_5578">
                            <g id="그룹_5577">
                                <path id="패스_4950" d="M411.253 519.548a1.828 1.828 0 1 1-1.35 2.2 1.828 1.828 0 0 1 1.35-2.2z" class="cls-4" transform="translate(-409.852 -519.497)"/>
                            </g>
                        </g>
                    </g>
                    <g id="그룹_5582">
                        <g id="그룹_5581">
                            <g id="그룹_5580">
                                <path id="패스_4951" d="M411.2 519.54a1.843 1.843 0 0 1 2.01 2.747 1.847 1.847 0 0 1-3.378-.538 1.838 1.838 0 0 1 1.368-2.209zm0 0a1.818 1.818 0 0 0-1.331 2.2 1.809 1.809 0 1 0 2.708-1.973 1.828 1.828 0 0 0-1.377-.227z" class="cls-5" transform="translate(-409.784 -519.487)"/>
                            </g>
                        </g>
                    </g>
                </g>
                <g id="그룹_5591" transform="translate(5.306 .767)">
                    <g id="그룹_5586" transform="translate(.015 .008)">
                        <g id="그룹_5585">
                            <g id="그룹_5584">
                                <path id="패스_4952" d="M424.063 512.044a1.828 1.828 0 1 1-1.35 2.2 1.828 1.828 0 0 1 1.35-2.2z" class="cls-6" transform="translate(-422.663 -511.993)"/>
                            </g>
                        </g>
                    </g>
                    <g id="그룹_5590">
                        <g id="그룹_5589">
                            <g id="그룹_5588">
                                <g id="그룹_5587">
                                    <path id="패스_4953" d="M424.012 512.013a1.849 1.849 0 0 1 2.242 1.345 1.856 1.856 0 1 1-3.609.867 1.847 1.847 0 0 1 1.368-2.212zm0 .007a1.814 1.814 0 0 0-.516 3.311 1.805 1.805 0 1 0 .516-3.311z" class="cls-5" transform="translate(-422.597 -511.957)"/>
                                </g>
                            </g>
                        </g>
                    </g>
                </g>
            </g>
            <g id="그룹_5594" transform="translate(56.438 51.974)">
                <g id="그룹_5593">
                    <path id="패스_4954" fill="#ffaf9f" d="M470.377 415.748a2.311 2.311 0 0 1 4.11 0s.766 9.814 1.147 15.192c.786 11.1 8.358 33.942-2.911 33.942-10.469 0-4.058-22.841-3.272-33.942.38-5.378.926-15.192.926-15.192z" transform="translate(-466.79 -414.494)"/>
                </g>
            </g>
            <g id="그룹_5601" transform="translate(57.303 51.757)">
                <g id="그룹_5596">
                    <g id="그룹_5595">
                        <path id="패스_4955" d="M475.19 413.555h.27s.122 25.317.482 30.414c.453 6.4 4.488 4.242 4.93 11.5.285 4.666-2.481 7.432-5.18 7.432-2.782 0-5.317-2.692-5.157-7.276.253-7.263 3.924-5.205 4.38-11.655.362-5.098.275-30.415.275-30.415z" class="cls-16" transform="translate(-470.529 -413.555)"/>
                    </g>
                </g>
                <g id="그룹_5600" transform="translate(.285 36.072)">
                    <g id="그룹_5597" transform="translate(.347 .176)">
                        <ellipse id="타원_333" cx="4.532" cy="6.166" fill="#fecc98" rx="4.532" ry="6.166"/>
                    </g>
                    <g id="그룹_5599">
                        <g id="그룹_5598">
                            <path id="패스_4956" fill="#edb66e" d="M481.171 575.711a8.444 8.444 0 0 1-.26 2.092 7.12 7.12 0 0 1-.8 1.955 5.2 5.2 0 0 1-1.43 1.576 3.779 3.779 0 0 1-2.041.715 3.827 3.827 0 0 1-2.118-.6 5.246 5.246 0 0 1-1.565-1.558 7.092 7.092 0 0 1-.9-2.007 8.778 8.778 0 0 1-.3-2.174 7.736 7.736 0 0 1 1.2-4.182 5.227 5.227 0 0 1 1.565-1.558 3.827 3.827 0 0 1 2.119-.6 3.779 3.779 0 0 1 2.042.716 5.185 5.185 0 0 1 1.43 1.577 7.113 7.113 0 0 1 .8 1.956 8.443 8.443 0 0 1 .258 2.092zm0 0a8.437 8.437 0 0 0-.285-2.085 6.723 6.723 0 0 0-.858-1.91 4.884 4.884 0 0 0-1.464-1.454 3.476 3.476 0 0 0-1.926-.542 3.44 3.44 0 0 0-1.849.657 4.867 4.867 0 0 0-1.329 1.473 6.8 6.8 0 0 0-.759 1.858 8.2 8.2 0 0 0 0 4.006 6.753 6.753 0 0 0 .758 1.859 4.848 4.848 0 0 0 1.329 1.474 3.436 3.436 0 0 0 1.85.657 3.476 3.476 0 0 0 1.927-.542 4.883 4.883 0 0 0 1.464-1.455 6.72 6.72 0 0 0 .857-1.911 8.428 8.428 0 0 0 .285-2.085z" transform="translate(-471.759 -569.369)"/>
                        </g>
                    </g>
                </g>
            </g>
            <g id="그룹_5642" transform="translate(27.74 123.008)">
                <g id="그룹_5606" transform="translate(34.717 4.893)">
                    <g id="그룹_5603" transform="translate(.15 .151)">
                        <g id="그룹_5602">
                            <path id="패스_4957" d="M497.561 743.264a5.375 5.375 0 1 1-3.971 6.482 5.375 5.375 0 0 1 3.971-6.482z" class="cls-1" transform="translate(-493.44 -743.114)"/>
                        </g>
                    </g>
                    <g id="그룹_5605">
                        <g id="그룹_5604">
                            <path id="패스_4958" d="M498.307 753.518a5.528 5.528 0 0 1-1.281-10.9 5.526 5.526 0 1 1 1.281 10.9zM497.1 742.91a5.224 5.224 0 1 0 6.3 3.859 5.23 5.23 0 0 0-6.3-3.859z" class="cls-5" transform="translate(-492.791 -742.463)"/>
                        </g>
                    </g>
                </g>
                <g id="그룹_5611" transform="translate(1.906 2.283)">
                    <g id="그룹_5608">
                        <g id="그룹_5607">
                            <circle id="타원_334" cx="5.375" cy="5.375" r="5.375" class="cls-4" transform="rotate(-59.178 8.13 4.616)"/>
                        </g>
                    </g>
                    <g id="그룹_5610" transform="translate(1.842 1.842)">
                        <g id="그룹_5609">
                            <path id="패스_4959" d="M364.546 750.2a5.528 5.528 0 1 1 1.291-.153 5.536 5.536 0 0 1-1.291.153zm.01-10.753a5.249 5.249 0 0 0-1.23.147 5.193 5.193 0 1 0 1.23-.147z" class="cls-5" transform="translate(-359.017 -739.144)"/>
                        </g>
                    </g>
                </g>
                <g id="그룹_5619" transform="translate(0 11.991)">
                    <g id="그룹_5614">
                        <g id="그룹_5613">
                            <g id="그룹_5612">
                                <circle id="타원_335" cx="5.375" cy="5.375" r="5.375" class="cls-1" transform="rotate(-68.1 7.38 4.987)"/>
                            </g>
                        </g>
                    </g>
                    <g id="그룹_5618" transform="translate(1.481 1.602)">
                        <g id="그룹_5617">
                            <g id="그룹_5616">
                                <g id="그룹_5615">
                                    <path id="패스_4960" d="M353.478 780.188a5.5 5.5 0 0 1 4.084.63 5.415 5.415 0 0 1 1.843 7.47 5.466 5.466 0 1 1-5.927-8.1zm.007.029a5.377 5.377 0 0 0-1.886.895 5.281 5.281 0 0 0-1.377 1.552 5.369 5.369 0 0 0-.565 3.986 5.256 5.256 0 0 0 9.58 1.536 5.324 5.324 0 0 0-3.663-8.05 5.386 5.386 0 0 0-2.089.082z" class="cls-5" transform="translate(-349.227 -780.04)"/>
                                </g>
                            </g>
                        </g>
                    </g>
                </g>
                <g id="그룹_5626" transform="translate(17.946 6.069)">
                    <g id="그룹_5622">
                        <g id="그룹_5621">
                            <g id="그룹_5620">
                                <circle id="타원_336" cx="7.077" cy="7.077" r="7.077" class="cls-6" transform="rotate(-22.219 13.63 2.677)"/>
                            </g>
                        </g>
                    </g>
                    <g id="그룹_5625" transform="translate(2.016 2.137)">
                        <g id="그룹_5624">
                            <g id="그룹_5623">
                                <path id="패스_4961" d="M434.611 756.965a7.193 7.193 0 1 1-4.447 3.157 7.206 7.206 0 0 1 4.447-3.157zm.007.029a7.083 7.083 0 0 0-2.488 1.173 6.989 6.989 0 0 0-1.828 2.039 7.075 7.075 0 0 0-.768 5.273 6.964 6.964 0 0 0 13.542-3.254 6.989 6.989 0 0 0-8.458-5.231z" class="cls-5" transform="translate(-429.056 -756.77)"/>
                            </g>
                        </g>
                    </g>
                </g>
                <g id="그룹_5633" transform="translate(10.685 2.178)">
                    <g id="그룹_5629" transform="translate(.059 .006)">
                        <g id="그룹_5628">
                            <g id="그룹_5627">
                                <circle id="타원_337" cx="7.077" cy="7.077" r="7.077" class="cls-4"/>
                            </g>
                        </g>
                    </g>
                    <g id="그룹_5632">
                        <g id="그룹_5631">
                            <g id="그룹_5630">
                                <path id="패스_4962" d="M394.468 730.933a7.153 7.153 0 0 1 8.608 5.21 7.153 7.153 0 1 1-13.008-2.037 7.107 7.107 0 0 1 4.4-3.173zm0 0a7 7 0 0 0-5.154 8.517 7 7 0 1 0 10.493-7.653 7.086 7.086 0 0 0-5.339-.864z" class="cls-5" transform="translate(-388.985 -730.731)"/>
                            </g>
                        </g>
                    </g>
                </g>
                <g id="그룹_5641" transform="translate(44.294)">
                    <g id="그룹_5636">
                        <g id="그룹_5635">
                            <g id="그룹_5634">
                                <circle id="타원_338" cx="6.212" cy="6.212" r="6.212" class="cls-6" transform="rotate(-78.822 7.416 6.094)"/>
                            </g>
                        </g>
                    </g>
                    <g id="그룹_5640" transform="translate(1.032 1.062)">
                        <g id="그룹_5639">
                            <g id="그룹_5638">
                                <g id="그룹_5637">
                                    <path id="패스_4963" d="M543.426 726.1a6.362 6.362 0 0 1 4.736.7 6.278 6.278 0 0 1 1.831 1.641 6.3 6.3 0 1 1-11.217 5.183 6.281 6.281 0 0 1 4.65-7.519zm.006.026a6.143 6.143 0 0 0-4.527 7.463 6.1 6.1 0 1 0 6.94-7.538 6.224 6.224 0 0 0-2.412.071z" class="cls-5" transform="translate(-538.615 -725.913)"/>
                                </g>
                            </g>
                        </g>
                    </g>
                </g>
            </g>
            <g id="그룹_5664" transform="translate(0 121.925)">
                <g id="그룹_5649">
                    <g id="그룹_5645">
                        <g id="그룹_5644">
                            <g id="그룹_5643">
                                <circle id="타원_339" cx="5.827" cy="5.827" r="5.827" class="cls-1" transform="rotate(-50.716 9.516 4.51)"/>
                            </g>
                        </g>
                    </g>
                    <g id="그룹_5648" transform="translate(2.249 2.31)">
                        <g id="그룹_5647">
                            <g id="그룹_5646">
                                <path id="패스_4964" d="M244.5 732.513a5.89 5.89 0 0 1-5.827 5.889 5.89 5.89 0 1 1 4.127-10.022 5.851 5.851 0 0 1 1.7 4.133zm0 0a5.765 5.765 0 0 0-9.872-4.045 5.765 5.765 0 0 0 8.153 8.152 5.833 5.833 0 0 0 1.719-4.107z" class="cls-5" transform="translate(-232.719 -726.623)"/>
                            </g>
                        </g>
                    </g>
                </g>
                <g id="그룹_5656" transform="translate(15.169 3.41)">
                    <g id="그룹_5652">
                        <g id="그룹_5651">
                            <g id="그룹_5650">
                                <circle id="타원_340" cx="5.375" cy="5.375" r="5.375" class="cls-4" transform="rotate(-45 9.176 3.801)"/>
                            </g>
                        </g>
                    </g>
                    <g id="그룹_5655" transform="translate(2.076 2.15)">
                        <g id="그룹_5654">
                            <g id="그룹_5653">
                                <path id="패스_4965" d="M308.4 746.116a5.4 5.4 0 0 1-1.559 3.817 5.451 5.451 0 0 1-7.708.076 5.453 5.453 0 0 1 0-7.784 5.449 5.449 0 0 1 7.708.076 5.4 5.4 0 0 1 1.559 3.815zm0 0a5.378 5.378 0 0 0-1.59-3.785 5.3 5.3 0 0 0-7.495.076 5.3 5.3 0 0 0 3.709 9.009 5.322 5.322 0 0 0 3.785-1.515 5.379 5.379 0 0 0 1.591-3.785z" class="cls-5" transform="translate(-297.496 -740.664)"/>
                            </g>
                        </g>
                    </g>
                </g>
                <g id="그룹_5663" transform="translate(4.332 8.117)">
                    <g id="그룹_5659">
                        <g id="그룹_5658">
                            <g id="그룹_5657">
                                <circle id="타원_341" cx="7.077" cy="7.077" r="7.077" class="cls-6" transform="rotate(-76.442 8.736 6.88)"/>
                            </g>
                        </g>
                    </g>
                    <g id="그룹_5662" transform="translate(1.341 1.311)">
                        <g id="그룹_5661">
                            <g id="그룹_5660">
                                <path id="패스_4966" d="M261.8 764.6a7.193 7.193 0 1 1-2.031-5.062 7.206 7.206 0 0 1 2.031 5.062zm-.03 0a7.087 7.087 0 0 0-.559-2.694 6.991 6.991 0 0 0-1.556-2.254 7.075 7.075 0 0 0-4.947-1.979 6.964 6.964 0 0 0 0 13.928 6.989 6.989 0 0 0 7.062-7z" class="cls-5" transform="translate(-247.512 -757.369)"/>
                            </g>
                        </g>
                    </g>
                </g>
            </g>
            <g id="그룹_5668" transform="translate(59.865)">
                <g id="그룹_5667">
                    <g id="그룹_5666">
                        <g id="그룹_5665">
                            <path id="패스_4967" fill="#84685a" d="M483.794 189.99c1 0 1.213 26.558 1.5 33.613.184 4.556.6 19.555.7 20.895.047.605-1.345.063-2.325.063-.955 0-2.2.422-2.069-.138.16-.667.4-16.826.567-21.659.241-6.835.6-32.774 1.627-32.774z" transform="translate(-481.592 -189.99)"/>
                        </g>
                    </g>
                </g>
            </g>
            <g id="그룹_5669" transform="translate(90.476 36.609)">
                <path id="패스_4968" d="M624.283 348.124s-4.79 6.857-4.746 9.854c.1 6.95 2.983 9.457 2.373 21.831-.258 5.237 9.36 11.275 6.037 18.829s-14.153 4.219-14.131-3.8c.005-1.926 1.383-5.5 6.275-6.308 1.913-.315-3.953-2.455-2.77-11.041 1.554-11.275-.947-12.7-.869-18.181s3-11.187 3-11.187z" class="cls-16" transform="translate(-613.816 -348.124)"/>
            </g>
            <g id="그룹_5673" transform="translate(91.955 36.609)">
                <g id="그룹_5672">
                    <g id="그룹_5670" transform="translate(.026)">
                        <path id="패스_4969" d="M626.511 401.284a6.777 6.777 0 0 1-3.029-.707 5.627 5.627 0 0 1-3.153-5.5 5.068 5.068 0 0 1 4.1-5.023 4.186 4.186 0 0 1 4.717 2.221c1.14 2.6.141 4.02-.556 4.638a4.129 4.129 0 0 1-4.6.459 2.971 2.971 0 0 1-1.413-3.194c.51-1.757 2.3-2.914 3.4-2.713a2.537 2.537 0 0 1 1.953 2.926 1.683 1.683 0 0 1-1.6 1.453h-.03c-.66 0-1.434-.441-1.662-1.684a.511.511 0 0 1 1-.185c.1.539.338.847.656.847h.011a.664.664 0 0 0 .616-.573 1.521 1.521 0 0 0-1.125-1.78 2.412 2.412 0 0 0-2.279 2.075 2.012 2.012 0 0 0 .992 1.948 3.147 3.147 0 0 0 3.406-.344c.857-.759.959-1.957.3-3.463a3.158 3.158 0 0 0-3.594-1.628 4.027 4.027 0 0 0-3.27 4.064 4.587 4.587 0 0 0 2.591 4.547 5.492 5.492 0 0 0 5.778-.463c1.478-1.206 1.92-3.254 1.243-5.767a16.455 16.455 0 0 0-2.556-4.687c-1.688-2.462-3.6-5.251-3.913-9.148-.157-1.962-.2-3.567-.241-5.119a39.787 39.787 0 0 0-1.424-10.8c-1.184-4.354-.713-9.589 3.188-15.557h2.758c-.048.077-.3.427-.392.56-4.651 7.117-5.328 11.938-4.569 14.729a40.676 40.676 0 0 1 1.459 11.039c.041 1.539.083 3.13.238 5.064.289 3.625 2.042 6.181 3.737 8.652a17.139 17.139 0 0 1 2.7 5c1.063 3.946-.537 5.969-1.584 6.824a6.109 6.109 0 0 1-3.853 1.289z" class="cls-4" transform="translate(-620.323 -348.125)"/>
                    </g>
                    <g id="그룹_5671">
                        <path id="패스_4970" d="M626.429 401.308a6.628 6.628 0 0 1-4.2-1.464 5.589 5.589 0 0 1-2-3.945 5.785 5.785 0 0 1 1.26-4.249 5.02 5.02 0 0 1 4.052-1.725 4.414 4.414 0 0 1 2.153.682 3.746 3.746 0 0 1 1.453 1.722 5.422 5.422 0 0 1 .488 2.212 3.258 3.258 0 0 1-.786 2.109 4.15 4.15 0 0 1-4.218 1.106 3.191 3.191 0 0 1-1.811-1.355 2.794 2.794 0 0 1-.411-2.223 4.126 4.126 0 0 1 1.219-1.926 3.189 3.189 0 0 1 2.092-.907 2.484 2.484 0 0 1 1.9 1.243 2.736 2.736 0 0 1 .214 2.275 1.77 1.77 0 0 1-1.967 1.054 1.68 1.68 0 0 1-.99-.657 2.624 2.624 0 0 1-.444-1.089.637.637 0 0 1 .915-.675.624.624 0 0 1 .255.238.864.864 0 0 1 .1.3 1.282 1.282 0 0 0 .2.469.384.384 0 0 0 .365.179.537.537 0 0 0 .367-.24.839.839 0 0 0 .1-.472 1.588 1.588 0 0 0-.084-.512 1.337 1.337 0 0 0-.652-.762 1.067 1.067 0 0 0-.975.022 2.451 2.451 0 0 0-1.383 1.538 1.839 1.839 0 0 0 .587 1.9 2.6 2.6 0 0 0 2.016.5 2.567 2.567 0 0 0 1.82-1 2.463 2.463 0 0 0 .241-2.051 3.291 3.291 0 0 0-1.049-1.841 3.153 3.153 0 0 0-2.014-.632 3.869 3.869 0 0 0-2.048.62 3.683 3.683 0 0 0-1.37 1.635 5.083 5.083 0 0 0-.379 2.136 4.639 4.639 0 0 0 .526 2.095 5.23 5.23 0 0 0 7.6 1.388 3.857 3.857 0 0 0 1.185-1.768 5.453 5.453 0 0 0 .229-2.158 8.548 8.548 0 0 0-.456-2.154 11.53 11.53 0 0 0-.983-1.988c-.774-1.276-1.683-2.483-2.5-3.758a19.576 19.576 0 0 1-2.079-4.057 14.02 14.02 0 0 1-.813-4.487l-.214-4.526c-.043-1.505-.1-3-.267-4.492a35.975 35.975 0 0 0-.783-4.419c-.169-.732-.383-1.439-.546-2.2a15.368 15.368 0 0 1-.141-6.278 21.1 21.1 0 0 1 2.572-6.891c.316-.51 1.168-1.716 1.168-1.716h2.758a56.771 56.771 0 0 0-3.778 6.945 14.883 14.883 0 0 0-1.209 7.053 14.1 14.1 0 0 0 .382 1.78c.155.6.294 1.2.424 1.808a36.34 36.34 0 0 1 .588 3.668c.272 2.466.219 4.94.361 7.393l.078 1.844.041.921c.034.3.053.607.108.907a12.809 12.809 0 0 0 1.064 3.488 61.482 61.482 0 0 0 3.872 6.272 10.757 10.757 0 0 1 1.431 3.416 7.741 7.741 0 0 1 .011 3.691 5.239 5.239 0 0 1-2.112 2.98 6.273 6.273 0 0 1-3.533 1.028zm0-.051a6.2 6.2 0 0 0 3.471-1.034 5.14 5.14 0 0 0 2.048-2.941 7.616 7.616 0 0 0-.043-3.629 10.6 10.6 0 0 0-1.441-3.355 61.4 61.4 0 0 1-3.939-6.262 13.07 13.07 0 0 1-1.116-3.548c-.058-.306-.081-.617-.118-.926l-.05-.924-.1-1.848c-.166-2.466-.136-4.932-.427-7.367a35.928 35.928 0 0 0-.615-3.623c-.134-.6-.277-1.194-.436-1.787a14.586 14.586 0 0 1-.409-1.827c-.347-2.5.574-4.8 1.425-7.133a19.417 19.417 0 0 1 1.854-3.868c.444-.719.925-1.416 1.43-2.094l.718-.963h-2.756s-4.136 6.039-3.332 12.586a11.876 11.876 0 0 0 .229 2.2c.153.712.369 1.45.537 2.187a36.467 36.467 0 0 1 .776 4.482c.163 1.509.215 3.025.253 4.532l.2 4.507a13.575 13.575 0 0 0 .772 4.373 19.142 19.142 0 0 0 2.021 3.978c.8 1.264 1.71 2.472 2.5 3.776a11.9 11.9 0 0 1 1.01 2.062 8.9 8.9 0 0 1 .472 2.258 5.824 5.824 0 0 1-.254 2.306 4.233 4.233 0 0 1-1.3 1.933 5.435 5.435 0 0 1-4.414 1.048 5.211 5.211 0 0 1-3.729-2.558 4.988 4.988 0 0 1-.561-2.249 5.414 5.414 0 0 1 .414-2.278 4.013 4.013 0 0 1 1.5-1.775 4.191 4.191 0 0 1 2.222-.666 3.466 3.466 0 0 1 2.211.707 2.818 2.818 0 0 1 .749.92 5.406 5.406 0 0 1 .4 1.092 3.611 3.611 0 0 1 .109 1.17 2.318 2.318 0 0 1-.4 1.125 3.137 3.137 0 0 1-4.267.535 2.191 2.191 0 0 1-.657-1 2.133 2.133 0 0 1-.011-1.193 2.72 2.72 0 0 1 1.545-1.714 1.735 1.735 0 0 1 .59-.15 1.2 1.2 0 0 1 .612.138 1.6 1.6 0 0 1 .781.915 1.842 1.842 0 0 1 .1.6 2.156 2.156 0 0 1-.021.3.808.808 0 0 1-.12.313.793.793 0 0 1-.554.355.646.646 0 0 1-.6-.282 1.517 1.517 0 0 1-.239-.566.645.645 0 0 0-.069-.23.373.373 0 0 0-.152-.143.386.386 0 0 0-.557.408 2.39 2.39 0 0 0 .395.988 1.441 1.441 0 0 0 .848.571 1.543 1.543 0 0 0 1.714-.913 2.534 2.534 0 0 0-.191-2.084 2.288 2.288 0 0 0-1.731-1.153 3.014 3.014 0 0 0-1.961.848 3.953 3.953 0 0 0-1.178 1.836 2.634 2.634 0 0 0 .379 2.095 3.041 3.041 0 0 0 1.722 1.3 4.023 4.023 0 0 0 4.089-1.046 3.125 3.125 0 0 0 .768-2.035 5.319 5.319 0 0 0-.475-2.17 3.972 3.972 0 0 0-3.519-2.353 4.934 4.934 0 0 0-3.985 1.687 5.708 5.708 0 0 0-1.25 4.191 5.522 5.522 0 0 0 1.967 3.9 6.571 6.571 0 0 0 4.146 1.465z" class="cls-1" transform="translate(-620.209 -348.125)"/>
                    </g>
                </g>
            </g>
        </g>
        <g id="사각형_5034" fill="none" stroke="#343434" stroke-dasharray="5 5" stroke-linecap="round" stroke-linejoin="round" stroke-width="2px">
            <path stroke="none" d="M0 0H127V16H0z" transform="translate(21 90)"/>
            <path d="M-1 -1H128V17H-1z" transform="translate(21 90)"/>
        </g>
        <g id="그룹_5704" transform="translate(-178 -149)">
            <rect id="사각형_4726" width="92" height="35" class="cls-23" rx="5" transform="translate(217 192)"/>
            <path id="합치기_11" d="M9.81 36.165v-5.8A15.894 15.894 0 0 1 0 15.913C0 7.126 7.558 0 16.882 0h15.283c9.324 0 16.882 7.126 16.882 15.913s-7.563 15.912-16.882 15.912H20.718l-6.866 6a3.66 3.66 0 0 1-2.26 1.078c-1.074.005-1.782-.957-1.782-2.738z" class="cls-23" transform="translate(220.953 194.267)"/>
            <text id="_1도화상" fill="#fff" font-family="GodoM, Godo M" font-size="14px" transform="translate(243 214)">
                <tspan x="0" y="0">1도화상</tspan>
            </text>
        </g>
    </g>
</svg>
