<svg xmlns="http://www.w3.org/2000/svg" id="cancel_alert_icon" width="46" height="46" viewBox="0 0 46 46">
    <defs>
        <style>
            .cls-2{fill:#5fbb92}.cls-3{fill:#292a2b;stroke:#292a2b;stroke-width:.8px}
        </style>
    </defs>
    <path id="사각형_5259" fill="#fff" d="M0 0H46V46H0z"/>
    <g id="noun_Ticket_2888654" transform="translate(1.207 11.17)">
        <path id="패스_20119" d="M187.4 740.406h-9.016l-1.979 1.979v4.53l4.006 2.028v4.749L176.4 756.2v2.934l3.206 2.988h7.794z" class="cls-2" transform="translate(-175.762 -739.361)"/>
        <g id="그룹_5732">
            <path id="패스_20109" d="M40.362 29.314a1.5 1.5 0 0 0 1.224-1.465v-2.626a4.012 4.012 0 0 0-4.008-4.008H9.008A4.013 4.013 0 0 0 5 25.223v3.323a1.5 1.5 0 0 0 1.224 1.465 3.311 3.311 0 0 1 0 6.507A1.5 1.5 0 0 0 5 37.984v2.626a4.012 4.012 0 0 0 4.008 4.008h28.57a4.012 4.012 0 0 0 4.008-4.008v-3.323a1.5 1.5 0 0 0-1.224-1.466 3.311 3.311 0 0 1 0-6.507zm-3.916 3.254a4.53 4.53 0 0 0 3.691 4.452.275.275 0 0 1 .229.267v3.323a2.792 2.792 0 0 1-2.788 2.79H9.008a2.792 2.792 0 0 1-2.788-2.79v-2.626a.275.275 0 0 1 .229-.267 4.531 4.531 0 0 0 0-8.9.275.275 0 0 1-.229-.267v-3.328a2.792 2.792 0 0 1 2.789-2.788h6.9v.9a.61.61 0 1 0 1.22 0v-.9h20.45a2.791 2.791 0 0 1 2.788 2.788v2.626a.276.276 0 0 1-.229.267 4.53 4.53 0 0 0-3.692 4.453z" class="cls-3" transform="translate(-5 -21.215)"/>
            <path id="패스_20110" d="M32.443 58.114a.572.572 0 0 0-.61.524v2.134a.617.617 0 0 0 1.22 0v-2.134a.572.572 0 0 0-.61-.524z" class="cls-3" transform="translate(-20.925 -42.878)"/>
            <path id="패스_20111" d="M32.443 31.915a.571.571 0 0 0-.61.524v2.134a.617.617 0 0 0 1.22 0v-2.134a.571.571 0 0 0-.61-.524z" class="cls-3" transform="translate(-20.925 -27.321)"/>
            <path id="패스_20112" d="M32.443 45.014a.571.571 0 0 0-.61.524v2.134a.617.617 0 0 0 1.22 0v-2.134a.572.572 0 0 0-.61-.524z" class="cls-3" transform="translate(-20.925 -35.096)"/>
        </g>
    </g>
    <circle id="타원_1041" cx="10" cy="10" r="10" class="cls-2" transform="translate(26 3)"/>
    <text id="_-1" fill="#fff" font-family="AppleSDGothicNeoB00" font-size="12px" transform="translate(31 17)">
        <tspan x="0" y="0">-1</tspan>
    </text>
</svg>
