<svg xmlns="http://www.w3.org/2000/svg" id="fanfare_img" width="194" height="68" viewBox="0 0 194 68">
    <defs>
        <clipPath id="clip-path">
            <path id="사각형_4272" fill="#fff" stroke="#707070" d="M0 0H194V68H0z" transform="translate(880.937 98.213)"/>
        </clipPath>
        <style>
            .cls-3{fill:#68d891}
        </style>
    </defs>
    <g id="ceremony" clip-path="url(#clip-path)" transform="translate(-880.937 -98.213)">
        <g id="그룹_5442" transform="translate(900.387 100.281)">
            <path id="사각형_4269" d="M0 0H4.562V12.545H0z" class="cls-3" transform="rotate(-36 89.373 -64.066)"/>
            <path id="사각형_4270" fill="#a2c8f6" d="M0 0H4.562V12.545H0z" transform="rotate(-36 4.124 1.34)"/>
            <path id="사각형_4271" d="M0 0H4.562V12.545H0z" class="cls-3" transform="rotate(-126.02 74.601 1.835)"/>
            <circle id="타원_1001" cx="3.992" cy="3.992" r="3.992" fill="#ff9d95" transform="translate(148.086 37.777)"/>
            <circle id="타원_1002" cx="3.992" cy="3.992" r="3.992" fill="#ffee8d" transform="translate(21.498 52.602)"/>
            <path id="패스_19042" fill="none" stroke="#a2c8f6" stroke-linecap="round" stroke-linejoin="round" stroke-width="1.4px" d="M0 0l5.368 3.668L0 7.353l5.368 4.137L0 15.837l5.368 4.043L0 23.74" transform="rotate(40 22.164 164.279)"/>
        </g>
    </g>
</svg>
