<svg xmlns="http://www.w3.org/2000/svg" width="24" height="24" viewBox="0 0 24 24">
    <path fill="none" d="M0 0H24V24H0z"/>
    <path fill="#292a2b" d="M18.614 18.786a2.537 2.537 0 0 1-4.8 0H3.357a.857.857 0 0 1 0-1.714h10.457a2.537 2.537 0 0 1 4.8 0h1.029a.857.857 0 0 1 0 1.714zm-3.257-.857a.857.857 0 1 0 .857-.857.81.81 0 0 0-.857.857zm-1.457-12a2.537 2.537 0 0 1-4.8 0H3.357a.81.81 0 0 1-.857-.858.81.81 0 0 1 .857-.857H9.1a2.537 2.537 0 0 1 4.8 0h5.743a.81.81 0 0 1 .857.857.81.81 0 0 1-.857.857zm-3.257-.857a.857.857 0 1 0 1.714 0 .857.857 0 1 0-1.714 0zm9 7.286H9.186a2.537 2.537 0 0 1-4.8 0H3.357a.857.857 0 1 1 0-1.714h1.029a2.537 2.537 0 0 1 4.8 0h10.457a.857.857 0 0 1 0 1.714zM5.929 11.5a.81.81 0 0 0 .857.857.857.857 0 1 0 0-1.714.81.81 0 0 0-.857.857z" transform="translate(.5 .5)"/>
</svg>
