<svg xmlns="http://www.w3.org/2000/svg" id="follower_icon" width="24" height="24" viewBox="0 0 24 24">
    <defs>
        <style>
            .cls-4{stroke:none}
        </style>
    </defs>
    <g id="Breakfast_Icon" transform="translate(-363.493 -4046.973)">
        <g id="패스_116" fill="#fff">
            <path d="M12.873 23.444c-.217-.076-.97-.447-1.526-.721-1.615-.796-2.164-1.047-2.449-1.066-5.505-.361-6.433-3.28-6.433-9.685 0-2.618 1.121-3.927 2.819-5.907l.3-.352.039-.045.027-.052c.954-1.87 1.906-3.112 2.996-3.908C9.775.884 11.1.5 12.816.5c1.648 0 2.605 1.136 3.714 2.452.855 1.014 1.824 2.163 3.238 2.882 3.244 1.651 5.122 3.185 5.122 6.138 0 2.745-.69 4.537-4.326 6.142-1.784.787-2.866 1.98-3.82 3.032-1.153 1.27-2.067 2.278-3.871 2.298z" class="cls-4" transform="translate(362 4047)"/>
            <path fill="#292a2b" d="M12.817 1c-1.605 0-2.837.353-3.876 1.112-1.024.748-1.929 1.933-2.846 3.731l-.053.105-.077.09-.302.352C3.981 8.354 2.965 9.54 2.965 11.972c0 2.576.13 5.185 1.07 6.828.565.985 1.632 2.144 4.898 2.358.378.026.872.248 2.635 1.116.484.239 1.125.555 1.395.668 1.524-.052 2.32-.93 3.41-2.132.989-1.09 2.108-2.324 3.989-3.153 3.405-1.503 4.028-3.094 4.028-5.685 0-1.308-.4-2.347-1.26-3.27-.932-.999-2.337-1.785-3.59-2.422-1.503-.766-2.507-1.956-3.392-3.006C14.96 1.864 14.163 1 12.817 1m0-1c3.266 0 4.06 3.802 7.177 5.389 3.117 1.586 5.396 3.237 5.396 6.583 0 2.923-.8 4.911-4.624 6.6-3.826 1.687-4.26 5.372-7.95 5.372-.264 0-3.523-1.76-3.952-1.789-5.99-.392-6.9-3.835-6.9-10.183 0-2.962 1.344-4.361 3.24-6.583C7.096 1.682 9.167 0 12.817 0z" transform="translate(362 4047)"/>
        </g>
        <g id="타원_119" fill="#fac865" stroke="#292a2b" transform="translate(369.116 4053.271)">
            <circle cx="5.701" cy="5.701" r="5.701" class="cls-4"/>
            <circle cx="5.701" cy="5.701" r="5.201" fill="none"/>
        </g>
    </g>
</svg>
