<svg xmlns="http://www.w3.org/2000/svg" width="38" height="38" viewBox="0 0 38 38">
    <g id="home" transform="translate(2264 5478)">
        <path id="사각형_4431" fill="none" d="M0 0H38V38H0z" data-name="사각형 4431" transform="translate(-2264 -5478)"/>
        <path id="패스_3184" fill="#444b56" stroke="#444b56" stroke-width="0.8px" d="M21.755 8.794l-7.8-6.335a2.626 2.626 0 0 0-3.3 0L2.869 8.793a1.155 1.155 0 0 0-.43.9v11.92A1.168 1.168 0 0 0 3.6 22.78h5.227a1.168 1.168 0 0 0 1.162-1.167v-7.544h4.645v7.544A1.168 1.168 0 0 0 15.8 22.78h5.227a1.168 1.168 0 0 0 1.162-1.167V9.694a1.158 1.158 0 0 0-.434-.9zm-.733 12.825h-5.227v-7.555a1.158 1.158 0 0 0-1.162-1.155H9.988a1.158 1.158 0 0 0-1.162 1.155v7.555H3.6V9.694l7.8-6.334a1.457 1.457 0 0 1 1.831 0l7.8 6.334v11.925z" data-name="패스 3184" transform="translate(-2256.939 -5471.378)"/>
    </g>
</svg>
