<svg xmlns="http://www.w3.org/2000/svg" id="intro2_img" width="471" height="302" viewBox="0 0 471 302">
    <defs>
        <clipPath id="clip-path">
            <path id="사각형_4249" fill="none" d="M0 0H319V142.807H0z"/>
        </clipPath>
        <style>
            .cls-4{fill:#6d72a0}.cls-5{fill:#001443}.cls-6{fill:#f93728}.cls-7{fill:#af2522}.cls-8{fill:#f48f7d}.cls-9{fill:#2c2655}.cls-10{fill:#fcefed}.cls-12{fill:#ffe97b}.cls-13{clip-path:url(#clip-path)}.cls-15{fill:#fbe2dc}.cls-17{fill:#fc5810}.cls-18{fill:#4c537c}.cls-19{fill:#e56e5e}.cls-20{fill:#a54220}.cls-21{fill:#ffc17d}.cls-22{fill:#b2cfeb}.cls-24{fill:#fff}.cls-25{fill:#eacdc3}
        </style>
    </defs>
    <circle id="타원_44" cx="100" cy="100" r="100" fill="#ffc38d" opacity="0.2" transform="translate(271 102)"/>
    <circle id="타원_1003" cx="78" cy="78" r="78" fill="#5fbb92" opacity="0.1"/>
    <g id="그룹_4337" transform="translate(-2405.89 -192.122)">
        <path id="패스_18171" d="M3792.241 391.737l-.231-.639 11.005-3.964.23.639-11 3.964z" class="cls-4" transform="translate(-1046.383 -113.28)"/>
        <path id="패스_18172" d="M3847.131 379.795a.957.957 0 0 1-.4-.09.944.944 0 0 1-.493-.539l-.155-.425a.957.957 0 0 1 .57-1.226l2.786-1.015a.17.17 0 1 1 .115.319l-2.784 1.015a.617.617 0 0 0-.369.791l.155.426a.616.616 0 0 0 .791.368l2.756-1a.17.17 0 1 1 .117.319l-2.756 1a.963.963 0 0 1-.328.058z" class="cls-4" transform="translate(-1089.521 -104.777)"/>
        <path id="패스_18173" d="M3846.332 380.429a.171.171 0 0 1-.159-.11.168.168 0 0 1 .1-.219l3.96-1.494a.17.17 0 1 1 .119.318l-3.96 1.494a.162.162 0 0 1-.058.011z" class="cls-4" transform="translate(-1089.634 -106.46)"/>
        <path id="패스_18174" d="M3847.822 383.819a.171.171 0 0 1-.159-.109.168.168 0 0 1 .1-.219l3.97-1.515a.167.167 0 0 1 .217.1.169.169 0 0 1-.1.219l-3.97 1.515a.176.176 0 0 1-.061.011z" class="cls-4" transform="translate(-1090.824 -109.151)"/>
        <path id="패스_18175" d="M3369.7 783.985a1.188 1.188 0 0 1-1.188-1.188v-40.064a1.188 1.188 0 0 1 2.376 0V782.8a1.188 1.188 0 0 1-1.188 1.188z" class="cls-5" transform="translate(-708.137 -396.345)"/>
        <path id="패스_18176" d="M3530.566 783.985a1.188 1.188 0 0 1-1.188-1.188v-40.064a1.189 1.189 0 0 1 2.377 0V782.8a1.189 1.189 0 0 1-1.189 1.188z" class="cls-5" transform="translate(-836.622 -396.345)"/>
        <path id="패스_18177" d="M3684.537 782.439a1.187 1.187 0 0 1-1.187-1.188v-40.064a1.188 1.188 0 1 1 2.375 0v40.064a1.188 1.188 0 0 1-1.188 1.188z" class="cls-5" transform="translate(-959.597 -395.11)"/>
        <path id="패스_18178" d="M3448.438 718.241a3.616 3.616 0 0 0 3.615 3.71h45.847a2.4 2.4 0 0 0 2.4-2.4v-4.829h-48.247a3.616 3.616 0 0 0-3.615 3.522z" class="cls-6" transform="translate(-771.974 -374.919)"/>
        <path id="패스_18179" d="M3357.165 718.164c-.04 2.033 1.206 3.71 2.757 3.71h34.968a2.177 2.177 0 0 0 1.834-2.4v-4.829h-36.8c-1.495 0-2.718 1.562-2.757 3.522z" class="cls-7" transform="translate(-699.075 -374.858)"/>
        <path id="패스_18180" d="M3544.563 433.061a4.329 4.329 0 0 1 4.326-4.516h36.769c1.571 0 2.573 1.646 2.239 3.677l-8.307 50.478c-.334 2.031-1.878 3.677-3.448 3.677h-29.282l-2.3-53.32z" class="cls-6" transform="translate(-848.746 -146.354)"/>
        <path id="패스_18181" d="M3517.387 433.087a4.355 4.355 0 0 1 4.352-4.542h31.3c1.574 0 2.581 1.646 2.247 3.677l-8.306 50.481c-.333 2.031-1.882 3.677-3.456 3.677h-29.347a3.637 3.637 0 0 1-3.6-4.137l6.818-49.157z" class="cls-7" transform="translate(-821.57 -146.354)"/>
        <path id="패스_18182" d="M3424.7 740.135l-.006-4.153c-.1-10.494-.186-18.335-.25-24.245-.06-5.487-.1-9.311-.121-12.06-.008-.974.224-6.866.361-7.831a26.1 26.1 0 0 0 8.214 1.952c-.27 10.563.414 7.017-.434 15.617-1.327 13.441-2.08 13.257-4.25 30.719z" class="cls-8" transform="translate(-752.712 -356.652)"/>
        <path id="패스_18183" d="M3399.512 943.527a.762.762 0 0 1-.65.838l-9.607-.112a1.119 1.119 0 0 1-.925-1.238l11.185.131v.381z" class="cls-9" transform="translate(-723.967 -557.258)"/>
        <path id="패스_18184" d="M3388.292 932.063a1.385 1.385 0 0 1 .691-1.248l2.211-.954a8.726 8.726 0 0 0 4.518 1.017 13.964 13.964 0 0 0 1.714-.09 8.954 8.954 0 0 0 2.063-.441v.106l-.019 2.186-11.185-.131.008-.447z" class="cls-10" transform="translate(-723.93 -546.753)"/>
        <path id="패스_18185" d="M3407.151 917.123c.023.023 1.67-.888 1.691-.865.544.588-1.234 2.066-.387 2.075l2.117.025a.567.567 0 0 1 .468.629v.5a8.954 8.954 0 0 1-2.062.441 13.979 13.979 0 0 1-1.714.091 8.725 8.725 0 0 1-4.518-1.017l4.41-1.873z" class="cls-8" transform="translate(-735.477 -535.887)"/>
        <path id="패스_18186" d="M3274.93 943.908a.763.763 0 0 1-.65.838l-9.606-.112a1.119 1.119 0 0 1-.925-1.238l11.185.131v.381z" class="cls-9" transform="translate(-624.465 -557.562)"/>
        <path id="패스_18187" d="M3263.711 932.444a1.383 1.383 0 0 1 .691-1.248l2.21-.954a8.726 8.726 0 0 0 4.519 1.017 13.94 13.94 0 0 0 1.714-.091 8.952 8.952 0 0 0 2.062-.44v.106l-.019 2.186-11.185-.131.008-.447z" class="cls-10" transform="translate(-624.428 -547.057)"/>
        <path id="패스_18188" d="M3282.568 917.5c.024.023 1.67-.888 1.691-.865.544.588-1.233 2.066-.386 2.076l2.117.025a.566.566 0 0 1 .468.629v.5a8.95 8.95 0 0 1-2.062.44 13.928 13.928 0 0 1-1.714.091 8.727 8.727 0 0 1-4.519-1.017l4.41-1.873z" class="cls-8" transform="translate(-635.974 -536.191)"/>
        <path id="패스_18189" d="M3301.808 739.241c3.205-9.815 5.593-17.152 7.392-22.682 1.671-5.134 2.835-8.712 3.68-11.281.3-.91 2.368-6.3 2.8-7.14a29.54 29.54 0 0 0 7.035 5.289l-1.61 4.38c-.152.454-.3.91-.448 1.366-.344 1.061-.669 2.064-1.035 3.005a50.516 50.516 0 0 1-2.812 5.716c-.5.927-1.026 1.886-1.525 2.866a93.446 93.446 0 0 0-3.88 9.025c-1.547 3.994-7.7 14.965-7.7 14.965a.538.538 0 0 1-.249.343l-1.823.2c-.731.495-1.042-.089-1.769-.271l1.946-5.786z" class="cls-8" transform="translate(-653.309 -361.677)"/>
        <path id="패스_18190" d="M3376.869 615.484a5.386 5.386 0 0 1 1.082-4.885 13.343 13.343 0 0 1 3.418-2.637c3.833-2.03 11.066-5.8 25.532-13.4.572-.311 4.066-2.081 4.706-2.241 3.27-.819 5.075 1.372 6.178 4.624l4.012-2.107c.572-.311 4.067-2.081 4.707-2.241 4.676-1.171 5.9 3.779 5.093 9.256-.725 4.911-.624 14.519-6.124 15.744-1.554.346-11.108.1-12.666.317-2.253.308-4.427 2.458-6.679 2.823-1.409.228-4.447 2.5-7.1 4.36a9.625 9.625 0 0 1-8.228 1.55c-2.537-.7-4.681-1.536-4.68-1.539-3.879-1.3-7.656-3.5-9.249-9.628z" class="cls-5" transform="translate(-714.672 -277.026)"/>
        <path id="패스_18191" d="M3639.349 879.8c.054-.033.1-.045.145-.069-.05.022-.1.047-.145.069z" class="cls-4" transform="translate(-924.454 -506.716)"/>
        <path id="패스_18192" d="M3660.847 782.439a1.188 1.188 0 0 1-1.187-1.188v-40.064a1.188 1.188 0 0 1 2.377 0v40.064a1.189 1.189 0 0 1-1.189 1.188z" class="cls-5" transform="translate(-940.676 -395.11)"/>
        <path id="패스_18193" d="M3821.727 782.439a1.188 1.188 0 0 1-1.187-1.188v-40.064a1.188 1.188 0 1 1 2.375 0v40.064a1.188 1.188 0 0 1-1.188 1.188z" class="cls-5" transform="translate(-1069.169 -395.11)"/>
        <path id="패스_18194" d="M3975.687 782.439a1.188 1.188 0 0 1-1.187-1.188v-40.064a1.189 1.189 0 0 1 2.377 0v40.064a1.189 1.189 0 0 1-1.19 1.188z" class="cls-5" transform="translate(-1192.136 -395.11)"/>
        <path id="패스_18195" d="M3739.594 718.241a3.614 3.614 0 0 0 3.613 3.71h45.846a2.4 2.4 0 0 0 2.4-2.4v-4.829h-48.25a3.614 3.614 0 0 0-3.613 3.522z" class="cls-6" transform="translate(-1004.518 -374.919)"/>
        <path id="패스_18196" d="M3648.315 718.164c-.04 2.033 1.206 3.71 2.758 3.71h34.969a2.177 2.177 0 0 0 1.832-2.4v-4.829h-36.8c-1.5 0-2.718 1.562-2.758 3.522z" class="cls-7" transform="translate(-931.615 -374.858)"/>
        <path id="패스_18197" d="M3835.713 433.061a4.33 4.33 0 0 1 4.326-4.516h36.769c1.57 0 2.573 1.646 2.239 3.677l-8.307 50.478c-.334 2.031-1.878 3.677-3.448 3.677h-29.282l-2.3-53.32z" class="cls-6" transform="translate(-1081.285 -146.354)"/>
        <path id="패스_18198" d="M3808.538 433.087a4.355 4.355 0 0 1 4.352-4.542h31.295c1.575 0 2.581 1.646 2.247 3.677l-8.306 50.481c-.334 2.031-1.882 3.677-3.457 3.677h-29.347a3.637 3.637 0 0 1-3.6-4.137l6.818-49.157z" class="cls-7" transform="translate(-1054.11 -146.354)"/>
        <path id="패스_18199" d="M3194.656 781.737a1.188 1.188 0 0 1-1.188-1.188v-40.064a1.188 1.188 0 0 1 2.376 0v40.064a1.188 1.188 0 0 1-1.188 1.188z" class="cls-5" transform="translate(-568.333 -394.55)"/>
        <path id="패스_18200" d="M3033.784 781.737a1.188 1.188 0 0 1-1.188-1.188v-40.064a1.188 1.188 0 0 1 2.376 0v40.064a1.188 1.188 0 0 1-1.188 1.188z" class="cls-5" transform="translate(-439.845 -394.55)"/>
        <path id="패스_18201" d="M2879.817 783.985a1.188 1.188 0 0 1-1.188-1.188v-40.064a1.188 1.188 0 0 1 2.376 0V782.8a1.188 1.188 0 0 1-1.188 1.188z" class="cls-5" transform="translate(-316.873 -396.345)"/>
        <path id="패스_18202" d="M2919.572 718.241a3.615 3.615 0 0 1-3.615 3.71h-45.845a2.4 2.4 0 0 1-2.4-2.4v-4.829h48.248a3.615 3.615 0 0 1 3.615 3.522z" class="cls-7" transform="translate(-308.151 -374.919)"/>
        <path id="패스_18203" d="M3059.662 718.164c.041 2.033-1.206 3.71-2.757 3.71h-34.968a2.177 2.177 0 0 1-1.833-2.4v-4.829h36.8c1.5 0 2.719 1.562 2.757 3.522z" class="cls-6" transform="translate(-429.868 -374.858)"/>
        <path id="패스_18204" d="M2857.022 433.061a4.33 4.33 0 0 0-4.326-4.516h-36.769c-1.571 0-2.573 1.646-2.239 3.677l8.306 50.481c.334 2.031 1.878 3.677 3.449 3.677h29.282l2.3-53.32z" class="cls-7" transform="translate(-264.954 -146.354)"/>
        <path id="패스_18205" d="M2878.6 433.087a4.355 4.355 0 0 0-4.351-4.542h-31.3c-1.575 0-2.581 1.646-2.247 3.677l8.306 50.481c.334 2.031 1.882 3.677 3.457 3.677h29.346a3.638 3.638 0 0 0 3.6-4.137l-6.819-49.157z" class="cls-6" transform="translate(-286.534 -146.354)"/>
        <path id="패스_18206" d="M3193.383 910.346a9.3 9.3 0 0 0 .145 2.21l1.705-.166c.62.795.869-.5 1.741-.349l.885-6.843c-.445.205-.464.335-.967.407l-.967-.2c-1.5.36-1.644.824-2.72-.1l.178 5.045z" class="cls-8" transform="translate(-568.122 -527.054)"/>
        <path id="패스_18207" d="M3089.64 910.346a9.332 9.332 0 0 0 .144 2.21l1.705-.166c.62.795.869-.5 1.742-.349l.885-6.843c-.446.205-.465.335-.967.407l-.967-.2c-1.5.36-1.644.824-2.72-.1l.178 5.045z" class="cls-8" transform="translate(-485.264 -527.054)"/>
        <path id="패스_18208" d="M3037 636.114l.021-.01a8.391 8.391 0 0 0-1.491-2.97 9.82 9.82 0 0 0-6.2-3.051l-2.253-.237-37.364-4.077a27.592 27.592 0 0 0-3.367.03c-11.135.961-9.238 14.621.473 18.985 3.47 1.219 5.711 1.118 9.819 1.425 2.166.162 4.7-.258 6.817-.032a32.716 32.716 0 0 1 3.819.918 23.951 23.951 0 0 0 8.493-.024 18.309 18.309 0 0 1 4.8-.233c.209 1.7-.273 3.582-.369 5.348-.126 2.3.471 4.589.213 6.885-.284 2.525-1.593 4.949-1.591 7.479 0 1.078.241 2.138.319 3.212.132 1.814-.2 3.642-.208 5.464a10.239 10.239 0 0 0 .212 2.19l-.034.406a5.008 5.008 0 0 0 4.731 5.206 5.722 5.722 0 0 0 6.323-4.271l5.8-29.592 1.256-7.878a12 12 0 0 0-.215-5.172z" class="cls-5" transform="translate(-396.83 -303.845)"/>
        <path id="패스_18209" d="M2977.353 638.893l.021-.011a8.4 8.4 0 0 0-1.491-2.97 9.821 9.821 0 0 0-6.2-3.051l-2.254-.237c-3.986-.435-25.152-2.761-35.1-3.847l-1.4 10.161a6.2 6.2 0 0 0 5.271 9.348c.335 0 .535.007.551.008 2.167.162 4.946.435 7.063.661a32.737 32.737 0 0 1 3.819.919 23.947 23.947 0 0 0 8.493-.024 18.313 18.313 0 0 1 4.8-.233c.209 1.7-.273 3.582-.369 5.348-.125 2.3.472 4.589.213 6.885-.284 2.525-1.593 4.949-1.591 7.479 0 1.078.241 2.138.319 3.212.132 1.814-.2 3.642-.208 5.464a10.224 10.224 0 0 0 .212 2.189l-.034.406a5.008 5.008 0 0 0 4.731 5.206 5.722 5.722 0 0 0 6.323-4.272l5.8-29.592 1.256-7.878a12 12 0 0 0-.215-5.172z" class="cls-5" transform="translate(-357.944 -306.279)"/>
        <path id="패스_18210" fill="#113e99" d="M3019.735 686.468c.617-3.561 1.274-7.112 1.916-10.667l1.988-10.652c.326-1.776.678-3.547 1.017-5.321l.514-2.66c.164-.888.285-1.782.43-2.673l.836-5.35a12.18 12.18 0 0 0-.176-5.229l-.073-.267.246-.121.021-.01-.178.362a6.572 6.572 0 0 0-.882-2.052c-.1-.163-.2-.322-.313-.478l-.166-.231-.042-.055a.366.366 0 0 0-.038-.042l-.1-.1a8.019 8.019 0 0 0-.829-.771 9.591 9.591 0 0 0-4.118-1.9 22.53 22.53 0 0 0-2.312-.312l-2.346-.26-4.692-.552-9.382-1.117c-3.125-.393-6.252-.767-9.375-1.18 3.139.271 6.273.58 9.409.87l9.4.933 4.7.472 2.351.246a22.843 22.843 0 0 1 2.369.307 10.213 10.213 0 0 1 4.393 2 8.556 8.556 0 0 1 .9.831l.108.113a.7.7 0 0 1 .06.068l.047.062.18.247q.176.249.337.507a7.208 7.208 0 0 1 .981 2.264l.052.247-.231.115-.021.011.172-.387a11.214 11.214 0 0 1 .411 2.756 14.48 14.48 0 0 1-.22 2.758l-.87 5.353c-.15.891-.278 1.786-.447 2.674l-.53 2.658c-.356 1.771-.7 3.545-1.068 5.314l-2.183 10.618c-.75 3.535-1.482 7.073-2.256 10.6z" transform="translate(-407.17 -311.116)"/>
        <path id="패스_18211" d="M2903.5 783.985a1.188 1.188 0 0 1-1.188-1.188v-40.064a1.188 1.188 0 0 1 2.376 0V782.8a1.188 1.188 0 0 1-1.188 1.188z" class="cls-5" transform="translate(-335.791 -396.345)"/>
        <path id="패스_18212" d="M2742.632 783.985a1.188 1.188 0 0 1-1.188-1.188v-40.064a1.188 1.188 0 0 1 2.376 0V782.8a1.188 1.188 0 0 1-1.188 1.188z" class="cls-5" transform="translate(-207.304 -396.345)"/>
        <path id="패스_18213" d="M2588.666 783.985a1.188 1.188 0 0 1-1.187-1.188v-40.064a1.188 1.188 0 0 1 2.376 0V782.8a1.188 1.188 0 0 1-1.188 1.188z" class="cls-5" transform="translate(-84.333 -396.345)"/>
        <path id="패스_18214" d="M2628.421 718.241a3.616 3.616 0 0 1-3.615 3.71h-45.845a2.4 2.4 0 0 1-2.4-2.4v-4.829h48.248a3.616 3.616 0 0 1 3.615 3.522z" class="cls-7" transform="translate(-75.611 -374.919)"/>
        <path id="패스_18215" d="M2768.511 718.164c.04 2.033-1.206 3.71-2.757 3.71h-34.969a2.177 2.177 0 0 1-1.833-2.4v-4.829h36.8c1.5 0 2.718 1.562 2.757 3.522z" class="cls-6" transform="translate(-197.327 -374.858)"/>
        <path id="패스_18216" d="M2565.87 433.061a4.33 4.33 0 0 0-4.326-4.516h-36.769c-1.571 0-2.573 1.646-2.239 3.677l8.306 50.481c.334 2.031 1.879 3.677 3.449 3.677h29.282l2.3-53.32z" class="cls-7" transform="translate(-32.413 -146.354)"/>
        <path id="패스_18217" d="M2587.449 433.087a4.355 4.355 0 0 0-4.351-4.542h-31.3c-1.575 0-2.581 1.646-2.247 3.677l8.305 50.481c.334 2.031 1.882 3.677 3.457 3.677h29.346a3.638 3.638 0 0 0 3.6-4.137l-6.819-49.157z" class="cls-6" transform="translate(-53.993 -146.354)"/>
        <path id="패스_18218" d="M2881.88 777.573s3.031.489 3.734.512l8.216-40.125c-.411.266-7.826 1.98-8.558 1.217l-3.392 38.4z" class="cls-8" transform="translate(-319.469 -393.482)"/>
        <path id="패스_18219" d="M2880.811 948.374a.81.81 0 0 0 .708.873l10.406-.067a1.158 1.158 0 0 0 1-1.278l-12.115.078.006.395z" class="cls-9" transform="translate(-318.611 -561.16)"/>
        <path id="패스_18220" d="M2892.781 936.489a1.44 1.44 0 0 0-.756-1.3l-2.4-1a9.736 9.736 0 0 1-4.889 1.031 15.751 15.751 0 0 1-1.858-.1 10.127 10.127 0 0 1-2.236-.467v.11l.032 2.266 12.115-.078-.01-.463z" class="cls-12" transform="translate(-318.482 -550.212)"/>
        <path id="패스_18221" d="M2884.811 924.436c-.025.024-.041.047-.064.07-.586.607-.426 1.172-1.343 1.178l-2.293.015a.586.586 0 0 0-.5.649l.007.513a10.13 10.13 0 0 0 2.236.467 15.807 15.807 0 0 0 1.858.1 9.737 9.737 0 0 0 4.89-1.031l-4.787-1.964z" class="cls-8" transform="translate(-318.453 -542.419)"/>
        <g id="그룹_4332" transform="translate(2481.889 245.302)">
            <g id="그룹_4331" class="cls-13">
                <path id="패스_18222" d="M2823.874 738.532c-.3.4-7.869-.831-8.8-1.3l6.839 41.138s3.011-.62 3.682-.85l-1.723-38.991z" class="cls-8" transform="translate(-2748.003 -638.204)"/>
                <path id="패스_18223" d="M2846.426 948.437a.8.8 0 0 0 .686.872l10.1-.078a1.153 1.153 0 0 0 .968-1.28l-11.76.091v.395z" class="cls-9" transform="translate(-2773.038 -806.503)"/>
            </g>
        </g>
        <path id="패스_18224" d="M2858.053 936.553a1.444 1.444 0 0 0-.732-1.3l-2.328-1a9.237 9.237 0 0 1-4.747 1.037 14.936 14.936 0 0 1-1.8-.1 9.58 9.58 0 0 1-2.17-.465v.111l.028 2.266 11.76-.091-.01-.463z" class="cls-12" transform="translate(-291.03 -550.265)"/>
        <path id="패스_18225" d="M2850.324 924.53c-.025.024-.041.047-.062.07-.569.607-.415 1.172-1.3 1.179l-2.226.017a.584.584 0 0 0-.49.65l.006.513a9.592 9.592 0 0 0 2.17.465 14.935 14.935 0 0 0 1.8.1 9.237 9.237 0 0 0 4.747-1.037l-4.644-1.959z" class="cls-8" transform="translate(-291.005 -542.494)"/>
        <path id="패스_18226" fill="#91c5de" d="M2701.277 631.006a3.75 3.75 0 0 0 2.666-4.158c-.562-3.427-.7-4.28-1.264-7.709-.765-4.667-3.037-7.877-7.33-8.563l-1.869-.234c-4.3-.557-26.685-1.534-31-2.092-.588-.072-4.01-5.133-4.631-5.07a5.587 5.587 0 0 0-4.877 3.672l-3.764-.523c-.549-.072-3.738-3.213-4.317-3.15a6.03 6.03 0 0 0-.911.177l-1.208 6.722a19.723 19.723 0 0 0 1.022 10.744c1.242 3.138 2.435 3.8 3.177 4.22 2.684 1.2 4.417 1.1 7.594 1.4 1.676.159 3.636-.254 5.272-.032a21 21 0 0 1 2.954.9 14.628 14.628 0 0 0 6.568-.024c1.939-.337 4.115-.707 5.59.672a5.328 5.328 0 0 1 1.37 2.541 2.608 2.608 0 0 0 2.149 1.9 61.107 61.107 0 0 0 10.138.458s1.279-.023 3.433-.257a55.038 55.038 0 0 0 9.236-1.607z" transform="translate(-128.239 -285.834)"/>
        <path id="패스_18227" d="M3832.327 910.591a8.751 8.751 0 0 1 .3 2.057l-1.6.185c-.411.852-.9-.285-1.667.024l-1.667-4.738c.449.1.04.338.515.3l.512-.244a3.048 3.048 0 0 0 2.947-1.412l.655 3.824z" class="cls-8" transform="translate(-1074.888 -528.307)"/>
        <path id="패스_18228" d="M3803.863 945.353a.773.773 0 0 1-.727.808l-10.732-.108a1.125 1.125 0 0 1-1.034-1.193l12.495.126v.367z" class="cls-9" transform="translate(-1045.872 -558.731)"/>
        <path id="패스_18229" d="M3791.379 927.476a1.306 1.306 0 0 1 .771-1.2l7.078-2.608a.533.533 0 0 1 .594.161c.4.5.319.88 1.182.889l2.365.024a.569.569 0 0 1 .523.606l-.006.477v.1l-.022 2.107-12.495-.126.01-.431z" class="cls-4" transform="translate(-1045.871 -541.778)"/>
        <path id="패스_18230" d="M3699.12 908.771a8.77 8.77 0 0 1-.135 2.075l-1.6-.155c-.582.746-.817-.466-1.635-.328l-.832-6.424c.417.193.435.315.908.382l.908-.191c1.405.338 1.542.773 2.553-.1l-.167 4.736z" class="cls-8" transform="translate(-968.837 -526.048)"/>
        <path id="패스_18231" d="M3668.71 945.353a.773.773 0 0 1-.727.808l-10.731-.108a1.122 1.122 0 0 1-1.033-1.193l12.5.126v.367z" class="cls-9" transform="translate(-937.928 -558.731)"/>
        <path id="패스_18232" d="M3656.224 927.476a1.309 1.309 0 0 1 .773-1.2l2.469-.919 4.608-1.689a.534.534 0 0 1 .594.161c.4.5.32.88 1.183.889l2.364.024a.568.568 0 0 1 .523.606v.577l-.02 2.107-12.5-.126.008-.431z" class="cls-4" transform="translate(-937.925 -541.778)"/>
        <path id="패스_18233" d="M3644.778 651.334a7.653 7.653 0 0 1 1.379-2.8 9.227 9.227 0 0 1 5.826-2.864l2.114-.222 35.076-3.827a25.911 25.911 0 0 1 3.162.028c10.452.9 8.67 13.726-.445 17.822-3.257 1.144-5.361 1.05-9.218 1.338-2.033.152-4.413-.242-6.4-.031a30.852 30.852 0 0 0-3.586.862 22.486 22.486 0 0 1-7.974-.023 17.193 17.193 0 0 0-4.5-.219 29.877 29.877 0 0 0 .346 5.021c.117 2.16-.443 4.308-.2 6.463.265 2.37 1.494 4.646 1.494 7.021 0 1.012-.228 2.007-.3 3.015-.125 1.7.187 3.419.2 5.129a9.8 9.8 0 0 1-.2 2.055l.032.381a4.7 4.7 0 0 1-4.443 4.888 5.372 5.372 0 0 1-5.935-4.01l-5.449-27.78c-.524-3.288-.655-4.106-1.178-7.4a11.286 11.286 0 0 1 .2-4.856z" class="cls-15" transform="translate(-928.495 -316.508)"/>
        <path id="패스_18234" d="M3735.108 640.759a7.681 7.681 0 0 1 .792-2.989 8.9 8.9 0 0 1 5.115-3.867l2.027-.6 33.606-10.13a25.639 25.639 0 0 1 3.106-.547c.3-.029.583-.043.867-.05v12.874a8.113 8.113 0 0 1-6.267 7.7l-.081.021c-1.963.519-4.379.565-6.283 1.133a29.823 29.823 0 0 0-3.335 1.5 22.326 22.326 0 0 1-7.825 1.427 17.154 17.154 0 0 0-4.463.6 30.474 30.474 0 0 0 1.389 4.862c.566 2.1.463 4.306 1.152 6.376.757 2.276 2.436 4.285 2.931 6.615.209.993.2 2.01.334 3.012.233 1.693.9 3.32 1.262 5a9.5 9.5 0 0 1 .233 2.053c.006.027.01.053.014.08a4.536 4.536 0 0 1-3.239 5.889 5.528 5.528 0 0 1-6.659-2.854l-11.14-26.257c-1.2-3.13-1.5-3.908-2.7-7.04a11.3 11.3 0 0 1-.815-4.8l-.023-.006z" class="cls-15" transform="translate(-1000.936 -301.322)"/>
        <path id="패스_18235" fill="#efc6bd" d="M3748.46 681.231q-4.122-9.378-8.153-18.8l-2.019-4.707c-.68-1.566-1.351-3.136-1.947-4.737l-1.854-4.777a11.8 11.8 0 0 1-.926-5.1l.177.25-.2-.055v-.183a7.38 7.38 0 0 1 .723-2.93 7.78 7.78 0 0 1 1.93-2.325 9.9 9.9 0 0 1 2.579-1.514c.936-.38 1.881-.595 2.816-.886l11.237-3.339 11.237-3.339 11.259-3.259-11.185 3.507-11.21 3.427-11.211 3.427c-.924.3-1.89.527-2.766.893a9.441 9.441 0 0 0-2.444 1.458 7.437 7.437 0 0 0-1.78 2.162 6.907 6.907 0 0 0-.7 2.712l-.177-.231.211.06-.012.2a11.3 11.3 0 0 0 .858 4.9l1.814 4.786c.584 1.6 1.24 3.179 1.911 4.75l1.981 4.721q3.989 9.432 7.851 18.919z" transform="translate(-999.683 -303.692)"/>
        <path id="패스_18236" d="M3201.276 931.083a1.109 1.109 0 0 0-.709-1.025l-5.417-2.027a.819.819 0 0 0-.706.082 4.22 4.22 0 0 1-2.118.55h-2.205a.5.5 0 0 0-.493.509v2.276h11.651v-.365z" class="cls-17" transform="translate(-565.266 -545.253)"/>
        <path id="패스_18237" d="M3189.629 945.5a.68.68 0 0 0 .669.691h10.007a.992.992 0 0 0 .975-1h-11.651v.311z" class="cls-9" transform="translate(-565.266 -558.995)"/>
        <path id="패스_18238" d="M3099.623 929.818a1.109 1.109 0 0 0-.667-1.025l-5.094-2.028a.73.73 0 0 0-.663.082 3.787 3.787 0 0 1-1.992.551h-2.074a.488.488 0 0 0-.464.509v2.276h10.958v-.365z" class="cls-17" transform="translate(-484.629 -544.243)"/>
        <path id="패스_18239" d="M3088.668 944.237a.662.662 0 0 0 .629.691h9.412a.965.965 0 0 0 .917-1h-10.958v.311z" class="cls-9" transform="translate(-484.629 -557.985)"/>
        <path id="패스_18240" d="M2934.352 437.3a6.536 6.536 0 0 0 .641 2.07c1.318 3.2 12.344 1.87 20.613 1.222 4.62-.363 4.583.7 8.37.021a7.681 7.681 0 0 0 4.416-2.174 6.15 6.15 0 0 0 1.706-3.2 9.719 9.719 0 0 0-.224-3.8c-.419-1.028-.124-5.924-.408-7.745-.906-5.557 2.756-11.288 4-16.406 1.3-5.363 2.588-10.76 2.756-16.127.065-2.052-2.292-3.961-3.2-5.514-.868-1.482-1.635-1.587-3.3-2.9-2.851-2.246-10.253-2.463-15.31.584l-3.953 2.624a17.907 17.907 0 0 0-5.262 4.95c-2.159 3.306-1.643 5.87-1.511 8.983a58.672 58.672 0 0 1-.8 12.147c-1.767 10.37-8.17 13.928-8.525 25.274z" class="cls-4" transform="translate(-361.378 -108.419)"/>
        <path id="패스_18241" d="M3108.406 441.362q-.079-.172-.169-.344l-14.862-24.939c-.655-1.056-.8.749-3.054-1.255-.5.7-1.091 1.332-1.658 2-1.031 1.22-2.022 2.481-3 3.74a43.535 43.535 0 0 0-3.874 5.783l17.348 20.722c4.072 4.864 11.928.052 9.274-5.71z" class="cls-4" transform="translate(-479.131 -135.396)"/>
        <path id="패스_18242" d="M2946.25 441.14a18.4 18.4 0 0 1 .216 4.7c-.5 2.933-3.056 5.523-3.121 8.455-.038 1.729.808 3.436.167 5.1a13.858 13.858 0 0 1-1.771 2.591 11.121 11.121 0 0 0-1.543 6.024 39.686 39.686 0 0 0 .911 9.877 95.65 95.65 0 0 0 10.064-31.122 26.5 26.5 0 0 0 .078-8.956 12.709 12.709 0 0 1-.51-3.249c.043-.841.312-1.682.339-2.522.092-2.836-1.3-3.125-2.092-.867-1.044 2.986-3 6.913-2.738 9.967z" class="cls-4" transform="translate(-366.03 -147.254)"/>
        <path id="패스_18243" d="M3000.429 454.366q-.094-.165-.2-.329l-14.754-19.858A11.057 11.057 0 0 0 2984.4 433l-8.062 12.372 15.325 15.465c4.465 4.506 11.89-.948 8.763-6.467z" class="cls-4" transform="translate(-394.915 -149.909)"/>
        <path id="패스_18244" d="M3095.361 406.564c.218-2.281.491-4.641.7-6.744a3.122 3.122 0 0 1 1.726.07 2.379 2.379 0 0 1 1.84 2.3c.026 2.538.144 4.981.324 7.3l-4.591-2.927z" class="cls-8" transform="translate(-489.975 -123.334)"/>
        <path id="패스_18245" d="M3077.723 422.549a4.5 4.5 0 0 1 3.753 4.818l-2.113 23.366c-.536 5.933-9.5 5.5-9.291-.457q.007-.206.026-.414l2.428-23.342a4.5 4.5 0 0 1 5.2-3.971z" class="cls-4" transform="translate(-469.773 -141.518)"/>
        <path id="패스_18246" d="M2976.819 435.9l7.738 7.361 7.7 7.4-.014-.013a5.56 5.56 0 0 0 1.74.978 4.914 4.914 0 0 0 .969.219 5.239 5.239 0 0 1 1.071.2 6.036 6.036 0 0 1 1.011.418c.16.082.321.177.47.264a4.879 4.879 0 0 0 .436.227 4.93 4.93 0 0 0 1.919.415 4.426 4.426 0 0 0 3.484-1.512 4.171 4.171 0 0 0 .849-1.74 6.856 6.856 0 0 0 .139-.993l.092-1.043 1.477-16.681.386-4.17.1-1.043c.021-.179.019-.332.028-.5s-.013-.324-.023-.485a4.187 4.187 0 0 0-3.9-3.71 4.2 4.2 0 0 0-3.463 1.479 4.2 4.2 0 0 0-.962 2.21l-.056.517-.111 1.041-.458 4.162-.923 8.324-.054.485-.309-.374q-2.888-3.5-5.755-7.014l-5.727-7.036 5.913 6.881q2.957 3.44 5.885 6.9l-.362.111.81-8.336.408-4.168.106-1.042.055-.524a4.783 4.783 0 0 1 1.087-2.525 4.787 4.787 0 0 1 3.956-1.708 4.927 4.927 0 0 1 2.124.638 4.816 4.816 0 0 1 2.373 3.612c.014.186.031.373.03.56s-.009.382-.028.549l-.092 1.043-.368 4.171-1.538 16.68-.1 1.043a7.547 7.547 0 0 1-.157 1.077 4.78 4.78 0 0 1-.981 1.983 5.01 5.01 0 0 1-3.949 1.705 5.149 5.149 0 0 1-2.627-.752c-.15-.091-.29-.176-.439-.255a5.473 5.473 0 0 0-.916-.393 4.7 4.7 0 0 0-.981-.2 5.433 5.433 0 0 1-1.065-.256 6.048 6.048 0 0 1-1.877-1.087l-.009-.007-7.58-7.533-7.538-7.565z" class="cls-18" transform="translate(-395.297 -140.23)"/>
        <path id="패스_18247" d="M3188.871 430.734a4.548 4.548 0 0 0-5.817 1.956l-11.135 20.572c-2.827 5.224 4.948 9.754 8.061 4.691.071-.117 11.064-21.082 11.064-21.082a4.446 4.446 0 0 0-2.173-6.137z" class="cls-4" transform="translate(-550.635 -147.793)"/>
        <path id="패스_18248" d="M3193.635 433.843a4.611 4.611 0 0 0-.8-1.983 4.306 4.306 0 0 0-1.6-1.361 4.406 4.406 0 0 0-4 0 4.236 4.236 0 0 0-1.53 1.322 4.347 4.347 0 0 0-.271.429l-.255.479-.508.964-2.059 3.842c-1.388 2.553-2.784 5.1-4.215 7.631s-2.884 5.048-4.383 7.541q1.9-3.928 3.917-7.793c1.336-2.582 2.707-5.144 4.085-7.7l2.092-3.825.529-.952.267-.478a5.059 5.059 0 0 1 .321-.485 4.618 4.618 0 0 1 1.777-1.446 4.737 4.737 0 0 1 2.228-.451 4.8 4.8 0 0 1 2.16.631 4.5 4.5 0 0 1 2.236 3.634z" class="cls-18" transform="translate(-552.801 -147.176)"/>
        <path id="패스_18249" d="M3052.225 253.667c-.155-1.462-1.321-2.573-2.4-3.522a4.457 4.457 0 0 0-2.586-1.406 11.962 11.962 0 0 1-1.791.129 5.638 5.638 0 0 1-1.236-.522 3.589 3.589 0 0 0-2.852-.041 15.546 15.546 0 0 1-1.926.954 6.581 6.581 0 0 1-1.757.089 9.132 9.132 0 0 0-2.279.272 2.031 2.031 0 0 0-1.307.772c-.569.913.169 2.251-.219 3.271-.478 1.256-2.405 1.432-2.616 2.778-.217 1.384 1.646 2.429 1.555 3.834-.016.24-.09.468-.129.7a2.449 2.449 0 0 0 1.031 2.366c.607.394 1.477.578 1.663 1.3a5.43 5.43 0 0 0 .131.865.937.937 0 0 0 .79.5 1.715 1.715 0 0 0 1.642-2.142c-.106-.4-.342-.757-.414-1.163s.124-.912.508-.92a1.163 1.163 0 0 0 .29 0c.254-.071.249-.454.183-.731a5.889 5.889 0 0 1-.292-2.2 2.955 2.955 0 0 1 2.153-2.25 10.459 10.459 0 0 1 3.207-.219 5.791 5.791 0 0 0 3.123-.609 21.919 21.919 0 0 1 2.163-1.613 2.578 2.578 0 0 1 2.284.121.9.9 0 0 1 .378.342 1.126 1.126 0 0 1 .082.554 11.606 11.606 0 0 0-.015 2.527 10.085 10.085 0 0 0 .638-4.044z" class="cls-5" transform="translate(-438.76 -2.177)"/>
        <path id="패스_18250" d="M3064.96 332.837a1.352 1.352 0 0 0-.9-1.66l-4.718-.921a1.352 1.352 0 0 0-1.458 1.2l-2.071 10.614a3.605 3.605 0 1 0 7.077 1.381l2.071-10.614z" class="cls-8" transform="translate(-458.334 -67.838)"/>
        <path id="패스_18251" d="M3043.21 260.443c.228-1.208 1.764-1.805 2.249-2.913.154-.352.168-.735.3-1.09a2.745 2.745 0 0 1 2.474-1.921 14.608 14.608 0 0 0 3.248-.806c1.844-.755 3.183-1.216 5.042-.266.968.493 1.889 1.133 2.86 1.62a3.457 3.457 0 0 1 1.109.891 3.3 3.3 0 0 1 1.028 3.005c-.056.422-.239.819-.274 1.251a6.479 6.479 0 0 0 .281 1.825 5.29 5.29 0 0 1-.313 2.648 13.447 13.447 0 0 1-2.056 3.878 12.31 12.31 0 0 1-3.6 4.026c-2.238 1.355-3.618.09-5.4-1.154a12.6 12.6 0 0 0-2.963-1.6c-.4-.5-.783-1-1.16-1.447-.039-.008-.072 0-.111-.012a3.357 3.357 0 0 1-2.069-1.565c-.844-1.275-.157-2.492-.492-3.663a13.552 13.552 0 0 1-.157-2.71z" class="cls-5" transform="translate(-448.284 -6.078)"/>
        <path id="패스_18252" d="M3075.459 282.871a3.269 3.269 0 0 1 3.22.793c.29.271.438.684.395 1.612l-.292 6.374a11.108 11.108 0 0 1-1.31 4.82c-1.187 2.175-2.791 3.275-5.216 3.16a6.215 6.215 0 0 1-5.825-6.78l.2-4.374a4.089 4.089 0 0 1 2.848-3.709l5.979-1.9z" class="cls-8" transform="translate(-466.861 -29.891)"/>
        <path id="패스_18253" d="M3092.63 314.977c-.016.384-.232.686-.481.676s-.439-.331-.423-.715.232-.686.482-.676.438.331.422.715z" class="cls-5" transform="translate(-487.071 -55.077)"/>
        <path id="패스_18254" d="M3121.9 316.222c-.016.384-.232.686-.481.676s-.439-.331-.423-.714.232-.687.482-.676.438.331.422.715z" class="cls-5" transform="translate(-510.445 -56.072)"/>
        <path id="패스_18255" d="M3056.985 320.69a2.391 2.391 0 1 0 1.837 2.44 2.178 2.178 0 0 0-1.837-2.44z" class="cls-8" transform="translate(-457.677 -60.21)"/>
        <path id="패스_18256" d="M3107.874 319.334a11.139 11.139 0 0 0 .463 2.115l.17.512.046.127a.179.179 0 0 1 .015.065.17.17 0 0 1-.05.116 1.009 1.009 0 0 1-.208.082l-.255.094c-.168.068-.337.135-.5.218.184 0 .365-.022.545-.04l.27-.034a.933.933 0 0 0 .305-.073.443.443 0 0 0 .221-.33.5.5 0 0 0-.015-.2l-.034-.131-.151-.518a11.116 11.116 0 0 0-.821-2z" class="cls-19" transform="translate(-499.714 -59.129)"/>
        <path id="패스_18257" d="M3074.756 349.593a3.645 3.645 0 0 1-1.107.5 3.562 3.562 0 0 1-1.229-.112 8.441 8.441 0 0 1-2.2-.934 10.167 10.167 0 0 1-1.9-1.436l-.417-.427c-.129-.152-.264-.3-.39-.453-.1-.179-.194-.354-.283-.532s-.157-.369-.23-.552c.14.143.277.285.409.427l.421.4.373.433.4.409a9.785 9.785 0 0 0 1.824 1.379 8.055 8.055 0 0 0 2.091.889 3.01 3.01 0 0 0 1.088.1 5.415 5.415 0 0 0 1.15-.089z" class="cls-19" transform="translate(-467.323 -80.141)"/>
        <path id="패스_18258" d="M3088.119 303.629a.188.188 0 0 0 .051-.338 3.214 3.214 0 0 0-3.209.129.187.187 0 0 0-.061.258.19.19 0 0 0 .258.061 2.894 2.894 0 0 1 2.807-.133.188.188 0 0 0 .153.024z" class="cls-5" transform="translate(-481.598 -45.999)"/>
        <path id="패스_18259" d="M3120.116 304.876a.188.188 0 0 0-.012-.364 3.664 3.664 0 0 0-2.308.4.188.188 0 0 0 .186.326 3.331 3.331 0 0 1 2.046-.357.187.187 0 0 0 .088 0z" class="cls-5" transform="translate(-507.818 -47.245)"/>
        <path id="패스_18260" d="M3128.223 382.349c.42 2.235-1.648 4.019-4.62 3.985s-5.721-1.874-6.142-4.109 1.648-4.019 4.62-3.985 5.722 1.874 6.142 4.108z" class="cls-12" transform="translate(-507.583 -106.176)"/>
        <path id="패스_18261" d="M3127.553 374.249c.42 2.235-1.648 4.019-4.62 3.985s-5.722-1.874-6.142-4.108 1.648-4.019 4.62-3.985 5.721 1.873 6.141 4.108z" class="cls-20" transform="translate(-507.049 -99.707)"/>
        <path id="패스_18262" d="M3127.642 375.148c.42 2.235-1.648 4.019-4.62 3.985s-5.722-1.874-6.142-4.109 1.648-4.019 4.62-3.985 5.722 1.873 6.142 4.108z" class="cls-17" transform="translate(-507.119 -100.425)"/>
        <path id="패스_18263" d="M3127.528 373.742c.42 2.235-1.648 4.019-4.62 3.985s-5.721-1.874-6.142-4.108 1.649-4.019 4.621-3.985 5.721 1.874 6.141 4.108z" class="cls-20" transform="translate(-507.028 -99.302)"/>
        <path id="패스_18264" d="M3126.564 369.833c.42 2.235-1.648 4.019-4.621 3.985s-5.721-1.874-6.142-4.108 1.648-4.019 4.621-3.985 5.721 1.874 6.142 4.108z" class="cls-17" transform="translate(-506.258 -96.18)"/>
        <path id="패스_18265" d="M3126.42 368.068c.42 2.235-1.648 4.019-4.62 3.985s-5.722-1.873-6.142-4.108 1.649-4.019 4.62-3.985 5.722 1.873 6.142 4.108z" class="cls-12" transform="translate(-506.143 -94.771)"/>
        <path id="패스_18266" d="M3132.124 366.92c.021.136-.151.246-.385.246s-.443-.11-.464-.246.15-.246.385-.246.443.11.465.246z" class="cls-21" transform="translate(-518.657 -96.939)"/>
        <path id="패스_18267" d="M3145.521 370.623c.028.171-.19.31-.485.31s-.557-.139-.585-.31.19-.31.485-.31.557.139.585.31z" class="cls-21" transform="translate(-529.18 -99.845)"/>
        <path id="패스_18268" d="M3145.828 415.232c.016.1-.111.181-.282.181s-.324-.081-.34-.181.11-.18.282-.18.324.081.34.18z" class="cls-21" transform="translate(-529.784 -135.578)"/>
        <path id="패스_18269" d="M3155 412.074c.018.109-.121.2-.309.2s-.355-.088-.372-.2.121-.2.309-.2.355.089.373.2z" class="cls-21" transform="translate(-537.066 -133.041)"/>
        <path id="패스_18270" d="M3134.394 409.979c.011.071-.079.128-.2.128s-.23-.057-.241-.128.078-.128.2-.128.23.057.241.128z" class="cls-21" transform="translate(-520.797 -131.424)"/>
        <path id="패스_18271" d="M3107.815 375.824a3.36 3.36 0 0 0-.041-1.347.55.55 0 0 0-.057-.5.538.538 0 0 0-.52-.229.563.563 0 0 0 .173-.782.543.543 0 0 0-.758-.139l-2.73 1.887a2.954 2.954 0 0 0-.359-.221l2.508-1.733a.555.555 0 0 0 .146-.764.543.543 0 0 0-.758-.14l-3.669 2.535a.551.551 0 0 0-.141.144 3 3 0 0 0-.337.216l.076-.229a.7.7 0 0 0-.442-.893.712.712 0 0 0-.892.454l-1.085 3.25a.705.705 0 0 0 .442.893.638.638 0 0 0 .081.018 4.008 4.008 0 0 0 .08 1.464c.334 1.62 1.081 1.246 3.175.607a6.216 6.216 0 0 0 1.648-.734c.02-.009 2.188-1.546 2.188-1.546a3.143 3.143 0 0 0 1.273-2.208z" class="cls-8" transform="translate(-492.794 -100.998)"/>
        <path id="패스_18272" d="M2979.6 553.994h-9.867v-6.336h9.867v6.336z" class="cls-21" transform="translate(-389.636 -241.489)"/>
        <path id="패스_18273" d="M3020.527 553.994h-9.867v-6.336h9.867v6.336z" class="cls-12" transform="translate(-422.325 -241.489)"/>
        <path id="패스_18274" d="M3144.521 475.4a.34.34 0 0 1-.325-.243l-3.473-11.772-4.319-6.434a.339.339 0 0 1 .564-.378l4.348 6.477a.353.353 0 0 1 .044.093l3.487 11.822a.339.339 0 0 1-.325.436z" class="cls-12" transform="translate(-522.709 -168.619)"/>
        <path id="패스_18275" d="M3157.033 508.691h-5.489l-1.868-17.733h9.274l-1.918 17.733z" class="cls-17" transform="translate(-533.357 -196.204)"/>
        <path id="패스_18276" d="M3158.071 490.287h-9.482a.151.151 0 0 1-.151-.151v-.207a.151.151 0 0 1 .151-.151h9.482a.152.152 0 0 1 .151.151v.207a.152.152 0 0 1-.151.151z" class="cls-15" transform="translate(-532.367 -195.26)"/>
        <path id="패스_18277" d="M3242.785 415.161c1.208-1.95 2.8-4.471 3.69-5.92a3.123 3.123 0 0 1 1.523.815 2.362 2.362 0 0 1 .669 2.841c-.636 1.355-1.47 2.873-2.221 4.338a2.106 2.106 0 1 1-3.662-2.073z" class="cls-8" transform="translate(-607.47 -130.937)"/>
        <path id="패스_18278" d="M3265.552 388.031a3.35 3.35 0 0 0-.21-1.331.549.549 0 0 0-.119-.491.538.538 0 0 0-.545-.162.564.564 0 0 0 .073-.8.543.543 0 0 0-.77-.043l-2.472 2.215a2.94 2.94 0 0 0-.384-.174l2.27-2.034a.555.555 0 0 0 .048-.776.543.543 0 0 0-.769-.043l-3.321 2.977a.541.541 0 0 0-.122.16 3.105 3.105 0 0 0-.307.257l.047-.237a.7.7 0 0 0-.551-.831.712.712 0 0 0-.828.563l-.667 3.361a.7.7 0 0 0 .551.83.624.624 0 0 0 .082.007 4.008 4.008 0 0 0 .264 1.442c.535 1.565 1.229 1.1 3.226.2a6.224 6.224 0 0 0 1.542-.936c.018-.011 1.976-1.809 1.976-1.809a3.145 3.145 0 0 0 .985-2.351z" class="cls-8" transform="translate(-619.005 -110.98)"/>
        <path id="패스_18279" d="M3758.482 445.34a4.637 4.637 0 0 0 3.243.714c.1-.014.2-.039.292-.059a5.469 5.469 0 0 0 4.419-2.523 10.7 10.7 0 0 1 1.306-2.157c.465-.468 1.085-.76 1.582-1.195 1.272-1.108 1.556-2.933 2.816-4.053.421-.374.924-.644 1.357-1 2.345-1.958 1.683-5.575 3.75-7.806a23.006 23.006 0 0 0 2.519-4.94l.942-2.485c.821-2.463-1.009-2.629-3.133-3.732l-2.416-1.254c-2.309-1.2-3.04-2.619-4.344-.118l-1.224.7c-.868 1.872-9.4 18.109-10.51 19.843l-1.854 2.892a5.207 5.207 0 0 0 1.254 7.172z" class="cls-22" transform="translate(-1017.889 -134.214)"/>
        <path id="패스_18280" d="M3930.14 447.278a15.323 15.323 0 0 1-.333-5.151c.3-1.733 1.448-3.467 2.885-3.564.863-.059 1.954.34 2.441-.57a2.188 2.188 0 0 0 .173-1.131h2.549c-.143 1.315-.273 2.425-.286 2.822-.092 2.867-1 5.392-1.017 8.3-.012 2.445 1.085 4.675.972 7.124-.137 2.951-1.983 5.541-2.452 8.47a20.238 20.238 0 0 0 .423 6.407c.662 4.125.92 8.691-.835 12.525-.465 1.015-1.426 2.078-2.219 1.559a2.29 2.29 0 0 1-.7-1.558c-1.274-7.507-.338-15.459-.485-23.215a80.886 80.886 0 0 0-1.121-12.02z" class="cls-22" transform="translate(-1156.35 -152.996)"/>
        <path id="패스_18281" d="M3796.108 439.588c.4-2.612 2.653-3.776 2.279-6.887a25.7 25.7 0 0 1 1.755-12.954c1.8-4.327.018-9.4-.236-14.108a33.7 33.7 0 0 1 .093-5.946 10.343 10.343 0 0 1 5.4-7.855 20.5 20.5 0 0 1 21.288.572c.876.54 4.892 4.44 5.24 5.379 1.626 4.4-3.984 10.735-4.376 12.833-1.222 6.5-.646 11.613-.69 17.479-.054 3.1 1.276 9.971 1.441 13.216-.147 1.055.244 2.786-.4 3.458h-31.239a3.3 3.3 0 0 1-.813-.831 31.187 31.187 0 0 1 .25-4.355z" class="cls-22" transform="translate(-1049.457 -114.873)"/>
        <path id="패스_18282" d="M3827.728 645.167a22.252 22.252 0 0 1-5.717-.656 14.646 14.646 0 0 0-3.694-.545c-1.172.073-2 .605-3.253.554-1.188-.049-2.625-.621-3.79-.632-.928-.009-1.613.342-2.569.288a15.5 15.5 0 0 1-1.739-.3c-2.655-.48-4.344.227-6.925-.295-.1-.021-.109-.162 0-.168a6.532 6.532 0 0 0 3.847-1.595c1.3-.995 2.254-2.28 3.767-3.095a7.409 7.409 0 0 1 6.321-.064c1.347.549 2.639 1.413 3.972 2.087a13.919 13.919 0 0 0 5.733 1.6c1.7.039 3.165-.409 5.071.117.388.107.783.254 1.172.368a10.056 10.056 0 0 1 1.134.227c.59.289.362.669.157.919-.658.8-2.118 1.117-3.48 1.191z" class="cls-22" transform="translate(-1052.732 -313.637)"/>
        <path id="패스_18283" fill="#84afd1" d="M3803.146 510.615a11.241 11.241 0 0 0-1.745-.211c-.588-.025-1.176-.008-1.762.011s-1.168.031-1.749 0c-.288-.015-.578-.042-.864-.082-.143-.022-.288-.036-.429-.066l-.213-.04c-.068-.011-.173-.037-.123-.017l-.1-.055h-.03l.072.023a3.18 3.18 0 0 1-.773-.807l.024.078a24.832 24.832 0 0 1 .407-4.835c.388-1.539 1.627-2.761 2.067-4.432a5.155 5.155 0 0 0 .167-1.263 11.738 11.738 0 0 0-.087-1.245c-.078-.807-.123-1.617-.123-2.427a25.955 25.955 0 0 1 .413-4.837 24.639 24.639 0 0 1 1.322-4.673 11.762 11.762 0 0 0 .924-4.845c-.024-3.311-.922-6.488-1.179-9.748.108 3.272.91 6.5.871 9.746a11.867 11.867 0 0 1-.982 4.7 25.628 25.628 0 0 0-1.82 9.658c0 .824.057 1.648.143 2.467a11.384 11.384 0 0 1 .091 1.2 4.611 4.611 0 0 1-.145 1.162c-.372 1.534-1.613 2.771-2.027 4.442a24.968 24.968 0 0 0-.314 4.928v.043l.024.034a3.494 3.494 0 0 0 .852.855l.035.024h.07l-.1-.055a.244.244 0 0 0 .173.1l.109.018.219.037c.147.028.294.039.441.058.294.032.59.048.886.054.589.013 1.177-.021 1.763-.059a15.141 15.141 0 0 1 3.5.061z" transform="translate(-1048.915 -180.376)"/>
        <path id="패스_18284" d="M3872.119 341a1.3 1.3 0 0 1 1.17-1.386l4.614.049a1.3 1.3 0 0 1 1.138 1.41l-.109 10.38a3.461 3.461 0 0 1-6.922-.074l.11-10.381z" class="cls-8" transform="translate(-1110.277 -75.33)"/>
        <path id="패스_18285" d="M3853.368 272.341a7.03 7.03 0 0 1-.966-1.757c-.135-.555-.024-1.139-.115-1.7s-.5-1.167-1.089-1.156c-.28.005-.539.15-.817.155-.783.014-1.109-.934-1.558-1.557a2.524 2.524 0 0 0-2.289-.995c-.626.073-1.306.368-1.842.044-.423-.256-.6-.836-1.083-.969-.7-.194-1.21.727-1.927.851a3.038 3.038 0 0 1-1.459-.41 2.556 2.556 0 0 0-2.633.608c-.346.363-.588.841-1.037 1.077-.582.3-1.365.121-1.891.509-1.087.807-.06 2.027.025 3.24.108 1.527-1.371 3.121-.546 4.43.194.307.51.573.53.932s-.282.68-.3 1.044c-.038.682.852 1.1 1.175 1.67a4.51 4.51 0 0 1 .123.459c1.165 3.886 4.058 6.676 7.383 6.637 2.754-.032 4.7-2.987 6.465-4.911.036-.006.068 0 .106-.007a3.222 3.222 0 0 0 2.043-1.422c.94-1.3.115-2.608.74-3.805.24-.458.82-.653 1.118-1.077a1.8 1.8 0 0 0-.155-1.887z" class="cls-17" transform="translate(-1079.832 -15.235)"/>
        <path id="패스_18286" d="M3847.5 297.424a3.138 3.138 0 0 0-3.118.637c-.288.249-.447.64-.439 1.532l.036 6.125a10.654 10.654 0 0 0 1.071 4.673 5.046 5.046 0 0 0 4.882 3.231 5.967 5.967 0 0 0 5.848-6.281l-.026-4.2a3.926 3.926 0 0 0-2.591-3.666l-5.663-2.047z" class="cls-8" transform="translate(-1087.858 -41.489)"/>
        <path id="패스_18287" d="M3874.779 329.012c0 .369.2.668.435.667s.435-.3.432-.669-.2-.668-.435-.667-.435.3-.433.669z" class="cls-5" transform="translate(-1112.49 -66.324)"/>
        <path id="패스_18288" d="M3846.659 329.087c0 .369.2.668.437.667s.433-.3.433-.669-.2-.667-.437-.667-.433.3-.433.669z" class="cls-5" transform="translate(-1090.031 -66.384)"/>
        <path id="패스_18289" d="M3897.085 335.622a2.295 2.295 0 1 1-1.856 2.27 2.092 2.092 0 0 1 1.856-2.27z" class="cls-8" transform="translate(-1128.823 -72.137)"/>
        <path id="패스_18290" d="M3857.791 332.632a8.157 8.157 0 0 0-.92 1.871l-.161.492-.036.125a.533.533 0 0 0-.024.213.468.468 0 0 0 .226.359.827.827 0 0 0 .306.081l.26.034a4.681 4.681 0 0 0 .529.031 4.8 4.8 0 0 0-.465-.256l-.238-.11c-.07-.035-.191-.073-.183-.088a.138.138 0 0 1-.018-.079.224.224 0 0 1 .016-.041l.052-.119.185-.484a8.251 8.251 0 0 0 .471-2.031z" class="cls-19" transform="translate(-1098.008 -69.75)"/>
        <path id="패스_18291" d="M3864.029 362.971a3.37 3.37 0 0 0 1.037.562 3.464 3.464 0 0 0 1.2-.061 8.16 8.16 0 0 0 2.158-.816 9.791 9.791 0 0 0 1.886-1.311 10.72 10.72 0 0 0 .811-.818 7.127 7.127 0 0 0 .5-1.049c-.147.127-.29.253-.424.382l-.435.353a10.549 10.549 0 0 1-.769.775 9.322 9.322 0 0 1-1.8 1.247 7.657 7.657 0 0 1-2.027.769 2.848 2.848 0 0 1-1.033.053 5.455 5.455 0 0 1-1.107-.087z" class="cls-19" transform="translate(-1103.904 -91.192)"/>
        <path id="패스_18292" d="M3872.52 313.776a.2.2 0 0 0 .137-.087.2.2 0 0 0-.054-.282 3.107 3.107 0 0 0-3.1-.247.2.2 0 0 0 .208.349 2.751 2.751 0 0 1 2.663.234.2.2 0 0 0 .145.032z" class="cls-17" transform="translate(-1108.198 -53.932)"/>
        <path id="패스_18293" d="M3844.186 320.922a.2.2 0 0 0 .074-.372 3.535 3.535 0 0 0-2.2-.475.206.206 0 0 0-.181.236.2.2 0 0 0 .233.167 3.179 3.179 0 0 1 1.933.417.207.207 0 0 0 .141.028z" class="cls-17" transform="translate(-1086.211 -59.693)"/>
        <path id="패스_18294" d="M3891.41 404.412l7.631-5.429c2.639-.241 9.244 5.511 10.448 7.873l10.464 20.523q.07.166.131.332c2.013 5.553-5.651 9.408-9.051 4.577l-19.623-27.876z" class="cls-22" transform="translate(-1125.773 -122.738)"/>
        <path id="패스_18295" d="M3772.427 415.883c.838-.235 1.6-3.623-.292 5.237l-4.062 23.393a3.409 3.409 0 0 1-6.68-1.364l7.342-26.078c.376-1.844.49-1.437 2.333-1.061.8.164.877-.716 1.359-.127z" class="cls-8" transform="translate(-1021.874 -135.579)"/>
        <path id="패스_18296" d="M3797.354 402.024a.62.62 0 0 1 .467.736l-.542 3.165a.587.587 0 1 1-1.152-.2l.54-3.165a.62.62 0 0 1 .686-.539z" class="cls-8" transform="translate(-1049.664 -125.166)"/>
        <path id="패스_18297" d="M3803.8 407.615a2.623 2.623 0 0 0 .209-1.37 1.5 1.5 0 0 0-.471-.732 7.025 7.025 0 0 0-1.793-1.283 2.058 2.058 0 0 0-2.2.038 3.5 3.5 0 0 0-1.351 2.21c-.294 1.565-.385 2.126.123 3.333.636 1.51 1.82 2 3.388.376a8.088 8.088 0 0 0 2.1-2.572z" class="cls-8" transform="translate(-1051.129 -126.693)"/>
        <path id="패스_18298" d="M3805.633 393.243l3.106-3.128a.543.543 0 0 0-.771-.765l-3.1 3.128a.542.542 0 1 0 .769.765z" class="cls-8" transform="translate(-1056.524 -114.922)"/>
        <path id="패스_18299" d="M3812.355 396.84l3.1-3.128a.543.543 0 0 0-.771-.765l-3.1 3.128a.543.543 0 1 0 .771.765z" class="cls-8" transform="translate(-1061.891 -117.795)"/>
        <path id="패스_18300" d="M3815 401.4l3.1-3.128a.542.542 0 1 0-.769-.765l-3.106 3.128a.543.543 0 0 0 .771.765z" class="cls-8" transform="translate(-1064.004 -121.437)"/>
        <path id="패스_18301" d="M3817.022 406.255l1.961-2.086a3.07 3.07 0 0 0 .825-2.375 3.268 3.268 0 0 0-.3-1.3l-.5.119c-.213-.21-.9.19-1.113.4l-2.1 4.476a.544.544 0 0 0 0 .768 1.246 1.246 0 0 0 1.216 0z" class="cls-8" transform="translate(-1065.262 -123.951)"/>
        <path id="패스_18302" d="M3566.265 327.808c-.558-.459-1.22-.784-1.741-1.284a9.782 9.782 0 0 1-.892-1.469 6.836 6.836 0 0 0-1.82-3.317c-2.281-2.425-3.787-1.473-5.224-2.115-1.411-.63-1.009-1.249-2.8-1.645a5.228 5.228 0 0 0-4.312.913 8.534 8.534 0 0 0-.864.887c-.23.324-.427.671-.634 1.011-.378.188-1.758 1-1.876 2.039a3.677 3.677 0 0 0 .5 2.165 4.171 4.171 0 0 0 .24.45c.135.225.306.432.431.663.425.794 1.053 1.268 1.254 2.12a2.971 2.971 0 0 0 1.624 2.029 7.94 7.94 0 0 1 2.627 1.666c.725.7.827 1.786 1.387 2.617a4.823 4.823 0 0 0 2.456 1.654 10.631 10.631 0 0 1 2.712 1.177c.169.12.326.253.483.39a4.428 4.428 0 0 0 .809.707c.05.04.1.08.153.117a3.93 3.93 0 0 0 2.8.727c.159-.006.318-.018.477-.04a3.015 3.015 0 0 0 2.532-2.709 7.346 7.346 0 0 1 .946-2.623 3.253 3.253 0 0 0 .672-1.87 5.768 5.768 0 0 0-1.943-4.261z" class="cls-20" transform="translate(-849.966 -57.944)"/>
        <path id="패스_18303" d="M3599.882 334.13a.208.208 0 0 1-.115-.051.205.205 0 0 1-.016-.289 3.714 3.714 0 0 0-.447-5.166 7.519 7.519 0 0 0-1.21-.725 4.3 4.3 0 0 1-2.744-3.442c-.1-.344-.206-.7-.334-1.03a3.814 3.814 0 0 0-2.383-2.423 5.622 5.622 0 0 0-1.25-.139 3.939 3.939 0 0 1-2.559-.752 3.37 3.37 0 0 0-3.68-.246.2.2 0 0 1-.119-.391 3.754 3.754 0 0 1 4.016.291 3.548 3.548 0 0 0 2.357.69 6.058 6.058 0 0 1 1.339.153 4.223 4.223 0 0 1 2.661 2.671c.133.346.24.71.344 1.062a3.922 3.922 0 0 0 2.539 3.195 7.83 7.83 0 0 1 1.274.767 4.12 4.12 0 0 1 .5 5.76.2.2 0 0 1-.173.067z" class="cls-20" transform="translate(-880.951 -58.92)"/>
        <path id="패스_18304" d="M3495.869 297.552a.206.206 0 0 1-.183-.181c-.062-.583-.531-1.105-1.433-1.6l-.232-.125a3.845 3.845 0 0 1-1.743-1.423 3.759 3.759 0 0 1-.342-1.357 5.279 5.279 0 0 0-.159-.885 5.03 5.03 0 0 0-1.069-1.676 5.4 5.4 0 0 1-1.147-1.83 2.83 2.83 0 0 1 .28-2.241c.089-.147.189-.284.286-.417a2.77 2.77 0 0 0 .4-.664 3.173 3.173 0 0 0 .126-.985 2.079 2.079 0 0 1 .459-1.549.206.206 0 0 1 .29.005.2.2 0 0 1-.006.289 1.758 1.758 0 0 0-.334 1.266 3.433 3.433 0 0 1-.153 1.115 3.163 3.163 0 0 1-.456.764c-.1.131-.187.255-.266.385a2.411 2.411 0 0 0-.239 1.912 5 5 0 0 0 1.071 1.687 5.426 5.426 0 0 1 1.146 1.817 5.529 5.529 0 0 1 .173.955 3.4 3.4 0 0 0 .3 1.213 3.547 3.547 0 0 0 1.574 1.256l.236.127c1.029.56 1.568 1.186 1.645 1.912a.2.2 0 0 1-.181.225.212.212 0 0 1-.042 0z" class="cls-20" transform="translate(-804.727 -29.762)"/>
        <path id="패스_18305" d="M3509.731 274.854c.535-.8 1.115-1.578 1.675-2.359.308-.427.618-.851.914-1.287.159-.234.3-.483.463-.714.179-.38.36-.758.507-1.154.087-.236.33-1.413.209-.541-.127.914.05-.342.079-.551.054-.407.075-.812.1-1.221a.131.131 0 0 0 0-.029c0-.042-.006-.083-.01-.125-.038-.4-.1-.808-.175-1.207-.06-.313-.165-.625-.235-.938-.036-.1-.071-.2-.109-.3a18.2 18.2 0 0 0-.992-2.044c-.089-.127-.175-.256-.266-.381-.213-.3-.447-.578-.668-.867-1.613-2.1-4.962-2.57-5.447-2.6-.417-.03-.831-.032-1.248-.041l-.133.009a19.474 19.474 0 0 0-2.348.323c-.107.021-.217.052-.328.084-.006.043-.2.129-.644.164-.069.025-.139.051-.207.078a20.6 20.6 0 0 0-1.935.939c-.113.082-.227.161-.34.244a11.679 11.679 0 0 0-.954.787.132.132 0 0 0-.016.015c-.036.049-.071.1-.1.148-.006.037-.012.075-.02.112-.3 1.528-2.17 2.7-1.7 4.207.109.352.35.7.274 1.054s-.457.593-.571.946c-.218.66.547 1.3.714 1.95 0 .065.018.432 0 .483 1.75 4.825 3.569 8.058 6.844 8.9 2.714.695 5.8-2.774 6.676-4.077z" class="cls-20" transform="translate(-809.53 -10.536)"/>
        <path id="패스_18306" d="M3495.631 263.438a3.941 3.941 0 0 1 .536-1.344l.852-1.546a4.519 4.519 0 0 1 .9-1.254 4.47 4.47 0 0 1 2.543-.833c.9-.09 2.812-.657 3.718-.671a14.4 14.4 0 0 1 4.933 1.146c1.544.565 1.878 1.657 2.5 3.126a2.4 2.4 0 0 1-.375 2.764 2.92 2.92 0 0 1-1.15.525 9.471 9.471 0 0 1-3.961.188 33.272 33.272 0 0 0-3.3-.634 5.955 5.955 0 0 0-4.777 1.95 2.221 2.221 0 0 1-1 .827c-1.1.29-.752-1.1-.843-1.619-.155-.883-.686-1.705-.568-2.625z" class="cls-20" transform="translate(-809.654 -9.973)"/>
        <path id="패스_18307" d="M3432.329 418.669c.03-.027.064-.059.095-.084l.922 1.042a45.641 45.641 0 0 1-4.078 7.105 8.706 8.706 0 0 0-1.222 1.452c-.383.736-.282 1.595-.706 2.313-.508.857-1.565 1.217-2.36 1.837-2.208 1.719-2.315 5.234-4.65 6.6-.435.255-.915.412-1.344.681-1.284.809-1.863 2.466-3.155 3.261-.506.312-1.089.467-1.573.817a10.137 10.137 0 0 0-1.517 1.772 4.742 4.742 0 0 1-2.933 1.567 5.728 5.728 0 0 1-1.125.228 4.681 4.681 0 0 1-3.207-.8c-2.121-1.516-2.3-4.606-.392-6.9l21.269-26.5 1.846.743a49.444 49.444 0 0 1 4.131 4.866z" class="cls-12" transform="translate(-736.293 -133.987)"/>
        <path id="패스_18308" d="M3491.858 429.337c0 .012-.006.024-.008.035a3.94 3.94 0 0 0 2.617 4.811 42.611 42.611 0 0 0 9.626 1.481c4.562.32 9.1 2.185 13.68 1.8 2.154-.183 4.544-.911 5.853-2.769 1.53-2.176.785-4.865.01-7.179-.683-2.035-3.865-12.071-4.527-16.581-1.081-7.379 2.46-17.565 2.5-17.922.139-.529-.917-3.57-6.011-6.975l-1.383-.855c-6.124-3.59-10.468-2.758-15.36 1.157-3.5 2.8-4.566 7.894-4.56 8.542v.095a47.115 47.115 0 0 0 .081 7.344 81.32 81.32 0 0 1-.129 14.375 69.545 69.545 0 0 1-2.391 12.646z" class="cls-12" transform="translate(-806.533 -109.894)"/>
        <path id="패스_18309" d="M3549.072 385.342c0 1.782-2.36 3.227-5.27 3.227s-5.273-1.445-5.273-3.227 2.36-3.227 5.273-3.227 5.27 1.445 5.27 3.227z" class="cls-8" transform="translate(-843.93 -109.271)"/>
        <path id="패스_18310" d="M3583.5 414.958h.079a8.44 8.44 0 0 1 8.342 5.527 6.575 6.575 0 0 1 .218.682 5.637 5.637 0 0 0 .32 1.587c.343.644 1.154 1.026 1.448 1.689.35.791-.137 1.695-.208 2.558-.2 2.394 2.734 4.3 2.142 6.6-.111.429-.338.835-.431 1.266-.276 1.293.707 2.552.413 3.842-.117.506-.423.981-.487 1.491a6.444 6.444 0 0 0 .372 1.954 3.408 3.408 0 0 1-.871 2.8 5.133 5.133 0 0 1-.652.88 5.95 5.95 0 0 1-3.1 1.751c-2.895.641-5.673-.858-6.2-3.349l-.622-2.927c-.825-3.883-2.736-9.293-6.768-18.532-1.562-3.578 1.53-7.606 6.011-7.82z" class="cls-12" transform="translate(-874.721 -135.492)"/>
        <path id="패스_18311" d="M3550.837 457.4c-.288.789.42 1.5.968 2.305l11.622 18.292a3.558 3.558 0 0 0 4.461 1.182 2.682 2.682 0 0 0 .964-3.989l-13.723-17.61c-.966-1.428-1.471-2.426-2.971-1.651a2.7 2.7 0 0 0-1.32 1.471z" class="cls-8" transform="translate(-853.707 -168.006)"/>
        <path id="패스_18312" d="M3502.1 535.313c0 1.09 3.6 1.974 8.243 1.974s8.415-.884 8.415-1.974-3.767-1.974-8.415-1.974-8.243.884-8.243 1.974z" class="cls-17" transform="translate(-814.834 -230.053)"/>
        <path id="패스_18313" d="M3518.222 538.253c-.35 2.308-2.617 6.229-5.7 7.011h-6.17c-3.082-.783-5.351-4.7-5.7-7.011-.046-.3.251-.57.638-.57h16.3c.387 0 .685.267.638.57z" class="cls-24" transform="translate(-813.672 -233.522)"/>
        <path id="패스_18314" d="M3408.635 550.534c.063-1.531 1.07-2.707 2.251-2.626l14.865 1.593c.666.046 1.333-.083 1.7.566a3.361 3.361 0 0 1 .411 1.787c-.062 1.532-1.19 1.506-2.369 1.425l-14.831.175c-1.181-.081-2.087-1.388-2.025-2.92z" class="cls-8" transform="translate(-740.182 -241.686)"/>
        <path id="패스_18315" d="M3492.687 542.346a.542.542 0 0 1 .185.754l-1.453 2.321a.57.57 0 0 1-.771.181.543.543 0 0 1-.185-.754l1.456-2.321a.568.568 0 0 1 .769-.181z" class="cls-8" transform="translate(-805.474 -237.183)"/>
        <path id="패스_18316" d="M3492.562 553.075a2.483 2.483 0 0 0 1.063-.781 1.4 1.4 0 0 0 .169-.8 6.446 6.446 0 0 0-.37-2.038 1.951 1.951 0 0 0-1.532-1.417 3.4 3.4 0 0 0-2.406.6c-1.252.856-1.691 1.172-2.15 2.313-.578 1.429-.1 2.536 2.067 2.475a7.94 7.94 0 0 0 3.159-.35z" class="cls-8" transform="translate(-802.862 -241.767)"/>
        <path id="패스_18317" d="M3508.657 548.659l4.224-.06a.509.509 0 1 0-.014-1.018l-4.223.06a.509.509 0 1 0 .014 1.018z" class="cls-8" transform="translate(-819.65 -241.427)"/>
        <path id="패스_18318" d="M3510.846 555.478l4.226-.06a.509.509 0 1 0-.016-1.018l-4.224.06a.509.509 0 1 0 .014 1.018z" class="cls-8" transform="translate(-821.399 -246.874)"/>
        <path id="패스_18319" d="M3509.606 560.269l4.223-.06a.509.509 0 1 0-.014-1.018l-4.223.06a.509.509 0 1 0 .014 1.018z" class="cls-8" transform="translate(-820.409 -250.7)"/>
        <path id="패스_18320" d="M3503.2 563.183l2.742-.112a2.959 2.959 0 0 0 2.156-1.051 3.085 3.085 0 0 0 .668-1.065l-.421-.247c-.006-.28-.747-.465-1.033-.461l-4.437 1.626a.515.515 0 0 0-.511.516 1.182 1.182 0 0 0 .835.795z" class="cls-8" transform="translate(-815.042 -251.544)"/>
        <path id="패스_18321" d="M3463.032 452.68c-.031.469.975.918 2.248 1s2.329-.228 2.361-.7-.976-.918-2.249-1-2.329.228-2.36.7z" class="cls-17" transform="translate(-783.63 -165.063)"/>
        <path id="패스_18322" d="M3484.605 449.335a.339.339 0 0 1-.016-.678 7.572 7.572 0 0 0 2.134-.47 17.875 17.875 0 0 1 11.484-.61.339.339 0 0 1-.227.64 17.522 17.522 0 0 0-11.011.6 8.166 8.166 0 0 1-2.345.514z" class="cls-15" transform="translate(-800.591 -161.035)"/>
        <path id="패스_18323" d="M3466.675 454.66c-.129.882-1.365 1.531-2.843 1.467s-2.654-.818-2.706-1.707l5.549.24z" class="cls-15" transform="translate(-782.109 -167.021)"/>
        <path id="패스_18324" d="M3551.61 443.206a.529.529 0 0 0 .01.77l2.02 1.881a.59.59 0 0 0 .805-.012.53.53 0 0 0-.008-.77l-2.021-1.88a.59.59 0 0 0-.805.012z" class="cls-8" transform="translate(-854.249 -157.932)"/>
        <path id="패스_18325" d="M3538.636 451.1a2.192 2.192 0 0 1-.9-.831 1.162 1.162 0 0 1-.021-.742 5.88 5.88 0 0 1 .731-1.8 2.085 2.085 0 0 1 1.76-1.1 3.377 3.377 0 0 1 2.25.823c1.069.921 1.442 1.258 1.688 2.344.306 1.36-.365 2.3-2.477 1.992a8.17 8.17 0 0 1-3.031-.689z" class="cls-8" transform="translate(-843.24 -160.797)"/>
        <path id="패스_18326" d="M3531.5 445.086l-4.127-.553a.449.449 0 0 1-.409-.527.544.544 0 0 1 .608-.391l4.127.553a.45.45 0 0 1 .411.527.548.548 0 0 1-.61.391z" class="cls-8" transform="translate(-834.683 -158.387)"/>
        <path id="패스_18327" d="M3528.108 450.989l-4.129-.553a.448.448 0 0 1-.408-.527.544.544 0 0 1 .608-.391l4.129.553a.449.449 0 0 1 .409.527.544.544 0 0 1-.608.391z" class="cls-8" transform="translate(-831.976 -163.102)"/>
        <path id="패스_18328" d="M3528.459 455.466l-4.129-.553a.449.449 0 0 1-.409-.527.544.544 0 0 1 .608-.391l4.129.553a.449.449 0 0 1 .408.527.544.544 0 0 1-.608.391z" class="cls-8" transform="translate(-832.255 -166.677)"/>
        <path id="패스_18329" d="M3529.676 458.742l-2.665-.425a2.767 2.767 0 0 1-1.925-1.2 2.507 2.507 0 0 1-.459-1.041l.457-.174c.054-.253.815-.332 1.1-.295l4.05 1.993a.447.447 0 0 1 .409.527 1.261 1.261 0 0 1-.962.619z" class="cls-8" transform="translate(-832.824 -167.959)"/>
        <path id="패스_18330" d="M3502.78 280.761l.092.038c.963.4 9.212 3.9 10.684 7.078l.3 2.466a6.173 6.173 0 0 1-5.288 7.131 5.209 5.209 0 0 1-5.369-2.72 11.078 11.078 0 0 1-1.667-4.744l-.741-6.269c-.258-2.15.737-1.567 1.993-2.979z" class="cls-8" transform="translate(-813.753 -28.321)"/>
        <path id="패스_18331" d="M3536.978 329.176l4.653-1.078a.5.5 0 0 1 .062-.011.97.97 0 0 1 .928.84l2.426 10.463a3.166 3.166 0 0 1-6.168 1.429l-2.424-10.463a1.2 1.2 0 0 1 .078-.8.681.681 0 0 1 .445-.385z" class="cls-8" transform="translate(-842.246 -66.116)"/>
        <path id="패스_18332" d="M3535.261 312.487c.042.379.277.664.525.636s.41-.359.366-.738-.278-.664-.525-.636-.411.359-.366.738z" class="cls-5" transform="translate(-841.314 -53.069)"/>
        <path id="패스_18333" d="M3534.1 311.757l-.759.087.521.414.238-.5z" class="cls-5" transform="translate(-839.785 -53.077)"/>
        <path id="패스_18334" d="M3506.361 315.8c.042.379.278.664.523.636s.413-.359.369-.738-.278-.664-.526-.635-.41.359-.366.738z" class="cls-5" transform="translate(-818.232 -55.718)"/>
        <path id="패스_18335" d="M3505.2 315.074l-.759.087.521.414.238-.5z" class="cls-5" transform="translate(-816.703 -55.726)"/>
        <path id="패스_18336" d="M3560.452 316.029a2.083 2.083 0 1 1-1.443 2.235 1.9 1.9 0 0 1 1.443-2.235z" class="cls-8" transform="translate(-860.272 -56.48)"/>
        <path id="패스_18337" d="M3518.908 317.849a5.277 5.277 0 0 1-.01 1.1 8.446 8.446 0 0 1-.181 1.058c-.04.174-.084.347-.137.518l-.038.128c-.008.02-.01.012-.014.022a.085.085 0 0 0 0 .045c-.028.009.107.045.181.073s.171.062.256.1a4.132 4.132 0 0 1 .5.239 4.1 4.1 0 0 1-.553.058c-.093 0-.183.006-.274.005h-.135a.482.482 0 0 1-.2-.043.55.55 0 0 1-.3-.377.588.588 0 0 1 0-.244l.022-.132c.03-.176.067-.351.107-.525a8.5 8.5 0 0 1 .31-1.028 5.232 5.232 0 0 1 .477-.988z" class="cls-19" transform="translate(-827.518 -57.942)"/>
        <path id="패스_18338" d="M3529.439 345.377a5.405 5.405 0 0 0 1.147 0 2.974 2.974 0 0 0 1.069-.175 7.975 7.975 0 0 0 2.007-1.03 9.729 9.729 0 0 0 1.709-1.5l.366-.434.338-.456.391-.428q.181-.225.376-.452c-.06.187-.123.376-.189.564s-.159.364-.242.548c-.113.162-.238.317-.354.477l-.383.453a10.133 10.133 0 0 1-1.78 1.559 8.415 8.415 0 0 1-2.114 1.082 3.548 3.548 0 0 1-1.21.2 3.629 3.629 0 0 1-1.134-.416z" class="cls-19" transform="translate(-836.67 -76.362)"/>
        <path id="패스_18339" d="M3528.887 303.867a.207.207 0 0 1-.143-.08.2.2 0 0 1 .041-.286 3.212 3.212 0 0 1 3.207-.1.2.2 0 1 1-.189.362 2.858 2.858 0 0 0-2.772.067.2.2 0 0 1-.143.04z" class="cls-20" transform="translate(-836.082 -46.083)"/>
        <path id="패스_18340" d="M3524.061 340.195a.2.2 0 0 1 .035-.407 2.445 2.445 0 0 0 2.031-.7.2.2 0 1 1 .3.275 2.837 2.837 0 0 1-2.361.828z" class="cls-24" transform="translate(-832.228 -74.856)"/>
        <path id="패스_18341" d="M3500.456 307.353a.2.2 0 0 1-.036-.4 3.658 3.658 0 0 1 2.329.232.2.2 0 0 1-.177.368 3.283 3.283 0 0 0-2.039-.207.205.205 0 0 1-.077.007z" class="cls-20" transform="translate(-813.374 -49.156)"/>
        <path id="패스_18342" d="M3096.823 341.185a.2.2 0 0 0-.043-.407 2.448 2.448 0 0 1-2.049-.653.2.2 0 1 0-.3.282 2.841 2.841 0 0 0 2.383.779z" class="cls-24" transform="translate(-489.19 -75.683)"/>
        <path id="패스_18343" d="M2763.415 410.342l-11.159-25.964a4.694 4.694 0 0 0-4.313-2.841h-2.673a22.022 22.022 0 0 0-2.62 1.9c-.024-.034-.047-.073-.07-.1l-1.147.763a45.076 45.076 0 0 0 2.1 7.833 8.649 8.649 0 0 1 .8 1.7c.179.8-.135 1.6.089 2.392.268.948 1.188 1.561 1.792 2.357 1.677 2.205.885 5.595 2.772 7.5.352.355.772.626 1.114.993 1.023 1.1 1.157 2.832 2.191 3.921.406.427.924.723 1.3 1.181a10.032 10.032 0 0 1 1 2.081 4.693 4.693 0 0 0 2.409 2.244 5.657 5.657 0 0 0 1.018.5 4.633 4.633 0 0 0 3.271.05c2.414-.912 3.367-3.824 2.127-6.505z" class="cls-15" transform="translate(-207.296 -108.81)"/>
        <path id="패스_18344" d="M2646.579 413.76a53.252 53.252 0 0 0-2.366 6.255 5.919 5.919 0 0 0 5.771 7.509h19.768a8.2 8.2 0 0 0 8.161-9.593c-.42-2.317-.831-5.165-1.189-8.863a108.158 108.158 0 0 1-.138-17.159 62.733 62.733 0 0 0 .087-8.767v-.113c.005-.774-.058-7.656-3.808-11-5.243-4.673-10.979-4.864-17.544-.58l-1.483 1.02c-5.46 4.065-6.592 7.695-6.444 8.326.044.426 3.839 12.585 2.68 21.394a40.668 40.668 0 0 1-3.5 11.569z" class="cls-15" transform="translate(-129.46 -98.298)"/>
        <path id="패스_18345" d="M2723.671 370.428c0 1.764 4.119 3.734 7 3.734s2.4-1.8 1.867-3.479c-.679-2.143-1.826-2.978-4.708-2.978s-4.159.959-4.159 2.723z" class="cls-8" transform="translate(-193.109 -97.762)"/>
        <path id="패스_18346" d="M2662.8 395.573l-.075.022a8.351 8.351 0 0 0-6.021 7.865 6.1 6.1 0 0 0 .016.709 5.535 5.535 0 0 1 .212 1.589c-.112.713-.747 1.332-.809 2.047-.073.854.676 1.541 1.02 2.327.955 2.177-1.168 4.911.125 6.868.242.365.586.672.812 1.046.676 1.12.164 2.615.855 3.728.271.436.711.782.937 1.238a6.41 6.41 0 0 1 .282 1.948 3.375 3.375 0 0 0 1.72 2.343 5.062 5.062 0 0 0 .895.613 5.893 5.893 0 0 0 3.468.637c2.917-.335 5.031-2.634 4.723-5.136l-.362-2.94c-.481-3.9-.438-9.579.352-19.526.306-3.852-3.886-6.623-8.149-5.378z" class="cls-15" transform="translate(-139.153 -119.779)"/>
        <path id="패스_18347" d="M2712 439.162a2.7 2.7 0 0 0-1.308-1.481c-1.483-.781-1.984.224-2.941 1.662l-13.583 17.735a2.724 2.724 0 0 0 .954 4.017 3.486 3.486 0 0 0 4.416-1.19l11.5-18.422c.54-.813 1.242-1.527.958-2.321z" class="cls-8" transform="translate(-169.142 -153.434)"/>
        <path id="패스_18348" d="M2829.852 423.921c.516.652.07 1.538-.192 2.467l-5.227 20.805a3.523 3.523 0 0 1-3.825 2.5 2.654 2.654 0 0 1-2.147-3.449l7.414-20.818c.463-1.642.628-2.738 2.277-2.476a2.671 2.671 0 0 1 1.7.971z" class="cls-8" transform="translate(-268.724 -141.854)"/>
        <path id="패스_18349" d="M2862.769 414.431a2.184 2.184 0 0 0 .586-1.06 1.147 1.147 0 0 0-.212-.7 5.806 5.806 0 0 0-1.247-1.461 2.061 2.061 0 0 0-1.995-.486 3.34 3.34 0 0 0-1.858 1.473c-.719 1.2-.964 1.631-.856 2.728.135 1.373 1.06 2.051 2.948 1.1a8.1 8.1 0 0 0 2.634-1.591z" class="cls-8" transform="translate(-299.728 -132.047)"/>
        <path id="패스_18350" d="M2869.84 404.321l3.707-1.8a.444.444 0 0 0 .22-.623.539.539 0 0 0-.693-.178l-3.707 1.8a.443.443 0 0 0-.22.623.539.539 0 0 0 .693.178z" class="cls-8" transform="translate(-309.254 -124.88)"/>
        <path id="패스_18351" d="M2874.858 408.814l3.707-1.8a.444.444 0 0 0 .22-.623.54.54 0 0 0-.694-.178l-3.707 1.8a.443.443 0 0 0-.22.623.539.539 0 0 0 .693.178z" class="cls-8" transform="translate(-313.261 -128.469)"/>
        <path id="패스_18352" d="M2875.923 413.13l3.707-1.8a.444.444 0 0 0 .22-.623.54.54 0 0 0-.693-.178l-3.707 1.8a.444.444 0 0 0-.22.623.539.539 0 0 0 .693.178z" class="cls-8" transform="translate(-314.113 -131.916)"/>
        <path id="패스_18353" d="M2874.375 417.3l2.373-1.229a2.74 2.74 0 0 0 1.432-1.73 2.5 2.5 0 0 0 .108-1.122l-.484-.021c-.13-.22-.869-.058-1.121.064l-3.187 3.134a.444.444 0 0 0-.22.623 1.252 1.252 0 0 0 1.1.282z" class="cls-8" transform="translate(-312.553 -134.009)"/>
        <path id="패스_18354" d="M2698.687 297.436a5.385 5.385 0 1 0 5.723-5.025 5.385 5.385 0 0 0-5.723 5.025z" class="cls-12" transform="translate(-173.146 -37.616)"/>
        <path id="패스_18355" d="M2786.008 284.457a.205.205 0 0 0 .18-.186c.05-.586.51-1.121 1.405-1.634l.23-.13a3.864 3.864 0 0 0 1.719-1.466 3.767 3.767 0 0 0 .314-1.369 5.125 5.125 0 0 1 .141-.891 5.067 5.067 0 0 1 1.036-1.705 5.408 5.408 0 0 0 1.114-1.862 2.844 2.844 0 0 0-.33-2.243c-.092-.146-.2-.281-.3-.412a2.8 2.8 0 0 1-.418-.657 3.175 3.175 0 0 1-.149-.986 2.081 2.081 0 0 0-.495-1.545.205.205 0 0 0-.279.3 1.763 1.763 0 0 1 .363 1.263 3.489 3.489 0 0 0 .177 1.116 3.157 3.157 0 0 0 .475.757c.1.129.193.251.275.381a2.426 2.426 0 0 1 .281 1.915 5.018 5.018 0 0 1-1.039 1.716 5.445 5.445 0 0 0-1.11 1.849 5.6 5.6 0 0 0-.155.962 3.407 3.407 0 0 1-.272 1.224 3.563 3.563 0 0 1-1.553 1.295l-.234.132c-1.021.585-1.547 1.224-1.61 1.955a.205.205 0 0 0 .187.222.2.2 0 0 0 .042 0z" class="cls-12" transform="translate(-242.714 -19.178)"/>
        <g id="그룹_4334" transform="translate(2481.889 245.302)">
            <g id="그룹_4333" class="cls-13">
                <path id="패스_18356" d="M2724.987 262.592c-.555-.789-1.155-1.56-1.733-2.332-.317-.422-.639-.841-.944-1.272-.165-.232-.312-.479-.48-.707-.189-.378-.378-.753-.534-1.147-.093-.235-.362-1.412-.222-.539.147.915-.058-.342-.09-.551-.064-.407-.093-.814-.126-1.224v-.029c0-.042 0-.084.007-.126.03-.407.081-.813.15-1.215.054-.315.153-.631.218-.947l.1-.3a18.483 18.483 0 0 1 .952-2.072c.085-.13.169-.261.258-.389.208-.3.436-.589.653-.885 1.574-2.142 4.926-2.687 5.412-2.732.417-.039.833-.05 1.251-.068l.135.006a19.636 19.636 0 0 1 2.364.274c.107.019.218.047.331.077.007.043.2.125.65.151.07.024.14.048.209.074a20.6 20.6 0 0 1 1.963.9c.115.079.231.156.346.237a11.75 11.75 0 0 1 .976.769l.017.015c.037.048.071.095.108.147.006.037.013.075.021.112.33 1.528 2.237 2.667 1.8 4.186-.1.356-.335.707-.252 1.064s.471.586.595.937c.232.658-.521 1.317-.675 1.973a4.5 4.5 0 0 0 .011.485c-1.653 4.881-3.411 8.166-6.68 9.077-2.709.756-5.881-2.66-6.787-3.949z" class="cls-12" transform="translate(-2672.749 -245.906)"/>
                <path id="패스_18357" d="M2746.461 250.787a3.923 3.923 0 0 0-.566-1.338l-.888-1.533a3.41 3.41 0 0 0-3.5-2.021c-.906-.071-2.837-.6-3.747-.593a14.469 14.469 0 0 0-4.926 1.256c-1.537.6-1.849 1.7-2.444 3.192a2.409 2.409 0 0 0 .436 2.766 2.928 2.928 0 0 0 1.166.5 9.508 9.508 0 0 0 3.98.1 33.429 33.429 0 0 1 3.3-.707 5.977 5.977 0 0 1 4.836 1.855 2.24 2.24 0 0 0 1.023.808c1.108.267.732-1.119.813-1.643.136-.89.652-1.726.512-2.647z" class="cls-12" transform="translate(-2680.18 -245.302)"/>
            </g>
        </g>
        <path id="패스_18358" d="M2752.414 267.771l-.092.04c-.957.422-9.162 4.115-10.571 7.334l-.243 2.481a6.2 6.2 0 0 0 5.461 7.044 5.227 5.227 0 0 0 5.329-2.846 11.126 11.126 0 0 0 1.572-4.8l.608-6.309c.212-2.163-.772-1.557-2.064-2.947z" class="cls-8" transform="translate(-207.326 -17.946)"/>
        <path id="패스_18359" d="M2736.99 317.386l-4.691-.982a.581.581 0 0 0-.064-.01.972.972 0 0 0-.912.863l-2.209 10.555a3.177 3.177 0 1 0 6.22 1.3l2.209-10.555a1.209 1.209 0 0 0-.1-.8.687.687 0 0 0-.457-.376z" class="cls-8" transform="translate(-197.401 -56.779)"/>
        <path id="패스_18360" d="M2768.464 300.177c-.036.382-.265.672-.513.649s-.42-.351-.385-.733.265-.672.513-.649.42.351.385.733z" class="cls-5" transform="translate(-228.164 -43.241)"/>
        <path id="패스_18361" d="M2770.134 299.449l.764.071-.515.427-.25-.5z" class="cls-5" transform="translate(-230.219 -43.246)"/>
        <path id="패스_18362" d="M2797.546 302.884c-.035.382-.265.672-.513.649s-.42-.351-.385-.733.265-.672.513-.649.42.351.385.733z" class="cls-5" transform="translate(-251.391 -45.403)"/>
        <path id="패스_18363" d="M2799.217 302.156l.764.071-.515.427-.249-.5z" class="cls-5" transform="translate(-253.447 -45.408)"/>
        <path id="패스_18364" d="M2733.4 304.378a2.091 2.091 0 1 0 1.5 2.212 1.906 1.906 0 0 0-1.5-2.212z" class="cls-8" transform="translate(-199.353 -47.178)"/>
        <path id="패스_18365" d="M2782.914 305.251a5.2 5.2 0 0 0 .034 1.1 8.654 8.654 0 0 0 .2 1.058c.045.173.094.346.149.517l.042.128c.007.02.01.011.014.021a.075.075 0 0 1 0 .045c.03.008-.106.047-.18.077l-.254.1a4.146 4.146 0 0 0-.5.251 4.2 4.2 0 0 0 .557.046H2783.386a.489.489 0 0 0 .2-.047.547.547 0 0 0 .3-.384.59.59 0 0 0 0-.245l-.024-.132c-.035-.176-.075-.351-.119-.525a8.733 8.733 0 0 0-.333-1.025 5.253 5.253 0 0 0-.5-.982z" class="cls-19" transform="translate(-240.038 -47.88)"/>
        <path id="패스_18366" d="M2749.078 333.663a5.382 5.382 0 0 1-1.151.028 3 3 0 0 1-1.078-.153 8.032 8.032 0 0 1-2.037-.99 9.743 9.743 0 0 1-1.747-1.464l-.378-.428-.35-.45-.4-.421c-.125-.148-.254-.3-.387-.445q.094.28.2.562c.08.182.169.361.254.545.117.161.245.313.366.471l.394.447a10.157 10.157 0 0 0 1.821 1.526 8.417 8.417 0 0 0 2.145 1.041 3.558 3.558 0 0 0 1.218.174 3.638 3.638 0 0 0 1.128-.442z" class="cls-19" transform="translate(-207.39 -67.12)"/>
        <path id="패스_18367" d="M2764.736 291.489a.205.205 0 0 0 .094-.37 3.227 3.227 0 0 0-3.222-.033.205.205 0 0 0 .2.359 2.868 2.868 0 0 1 2.783.007.2.2 0 0 0 .145.037z" class="cls-12" transform="translate(-223.325 -36.218)"/>
        <path id="패스_18368" d="M2796.552 294.315a.205.205 0 0 0 .027-.4 3.665 3.665 0 0 0-2.332.283.205.205 0 0 0 .185.366 3.3 3.3 0 0 1 2.043-.251.209.209 0 0 0 .077.005z" class="cls-12" transform="translate(-249.388 -38.754)"/>
        <path id="패스_18369" d="M2862.088 389.888l-1.764.744a1.4 1.4 0 0 1-1.827-.743l-5.411-12.827a1.4 1.4 0 0 1 .743-1.827l1.764-.744a1.4 1.4 0 0 1 1.828.743l5.411 12.827a1.4 1.4 0 0 1-.743 1.827z" class="cls-12" transform="translate(-296.384 -103.095)"/>
        <path id="패스_18370" d="M2865.08 391.31l-.731.324a.585.585 0 0 1-.769-.3l-6.529-14.713a.584.584 0 0 1 .3-.769l.731-.324a.584.584 0 0 1 .769.3l6.529 14.713a.584.584 0 0 1-.3.769z" class="cls-17" transform="translate(-299.599 -103.973)"/>
        <path id="패스_18371" d="M2865.428 386.3l-.731.325a.584.584 0 0 1-.769-.3l-7.444-16.776a.585.585 0 0 1 .3-.769l.731-.324a.585.585 0 0 1 .769.3l7.444 16.776a.585.585 0 0 1-.3.769z" class="cls-20" transform="translate(-299.146 -98.325)"/>
        <path id="패스_18372" d="M2854.02 390.825l2.079-.863a.481.481 0 0 1 .626.255l5.48 12.781a.18.18 0 0 1-.1.238l-.463.189a2.485 2.485 0 0 1-3.214-1.3l-4.682-10.625a.509.509 0 0 1 .271-.675z" class="cls-15" transform="translate(-296.967 -115.509)"/>
        <path id="패스_18373" d="M2860.209 406.987a.545.545 0 0 1 .329.72l-.989 2.77a.608.608 0 0 1-.728.4.544.544 0 0 1-.329-.72l.99-2.77a.608.608 0 0 1 .728-.4z" class="cls-8" transform="translate(-300.76 -129.118)"/>
        <path id="패스_18374" d="M2781.743 341.872a.34.34 0 0 1-.336-.3l-.312-2.464-2.819-9.22a.339.339 0 1 1 .649-.2l2.84 9.3.316 2.493a.339.339 0 0 1-.294.379h-.043z" class="cls-12" transform="translate(-236.709 -67.209)"/>
        <path id="패스_18375" d="M2783.478 395.626h-5.127l-1.745-13.934h8.664l-1.791 13.934z" class="cls-6" transform="translate(-235.387 -108.934)"/>
        <path id="패스_18376" d="M2784.447 381.065h-8.857a.142.142 0 0 1-.141-.141v-.194a.142.142 0 0 1 .141-.141h8.857a.142.142 0 0 1 .141.141v.194a.142.142 0 0 1-.141.141z" class="cls-15" transform="translate(-234.464 -108.052)"/>
        <path id="패스_18377" d="M2771.873 425.086a.523.523 0 0 1-.008.762l-2 1.861a.584.584 0 0 1-.8-.012.523.523 0 0 1 .008-.762l2-1.861a.584.584 0 0 1 .8.012z" class="cls-8" transform="translate(-229.24 -143.462)"/>
        <path id="패스_18378" d="M2771.393 432.9a2.178 2.178 0 0 0 .89-.823 1.147 1.147 0 0 0 .02-.735 5.816 5.816 0 0 0-.724-1.78 2.061 2.061 0 0 0-1.741-1.088 3.339 3.339 0 0 0-2.227.814c-1.06.911-1.429 1.246-1.671 2.32-.3 1.346.361 2.28 2.451 1.972a8.1 8.1 0 0 0 3-.682z" class="cls-8" transform="translate(-226.814 -146.297)"/>
        <path id="패스_18379" d="M2783.9 426.947l4.086-.547a.444.444 0 0 0 .4-.522.54.54 0 0 0-.6-.387l-4.086.548a.444.444 0 0 0-.4.522.539.539 0 0 0 .6.387z" class="cls-8" transform="translate(-240.725 -143.911)"/>
        <path id="패스_18380" d="M2787.251 432.791l4.086-.548a.444.444 0 0 0 .4-.522.539.539 0 0 0-.6-.387l-4.086.547a.444.444 0 0 0-.4.522.54.54 0 0 0 .6.387z" class="cls-8" transform="translate(-243.401 -148.578)"/>
        <path id="패스_18381" d="M2786.9 437.223l4.086-.547a.444.444 0 0 0 .4-.522.54.54 0 0 0-.6-.387l-4.085.548a.444.444 0 0 0-.4.522.539.539 0 0 0 .6.387z" class="cls-8" transform="translate(-243.125 -152.118)"/>
        <path id="패스_18382" d="M2782.323 440.465l2.639-.421a2.738 2.738 0 0 0 1.9-1.192 2.5 2.5 0 0 0 .456-1.031l-.453-.172c-.054-.25-.807-.329-1.084-.292l-4.011 1.972a.444.444 0 0 0-.4.522 1.251 1.251 0 0 0 .954.613z" class="cls-8" transform="translate(-239.184 -153.386)"/>
        <path id="패스_18383" d="M2696.2 448.592l-1.546 2.2a40.4 40.4 0 0 1-3.046 3.812l-6.2 8.1c-1.326 1.748-2.08 3.875-.809 5.3a10.37 10.37 0 0 0 2.034 1.6c1.376.966 3.006.327 4.534-1.063.531-.471 1.224-.578 1.728-1.072a7.534 7.534 0 0 0 1.1-2.277c1.016-2.1 3.779-2.951 4.522-5.136.137-.4.189-.818.339-1.218.448-1.2 1.67-2.019 2.107-3.22.171-.471.207-.968.412-1.429a9.337 9.337 0 0 1 1.174-1.592 3.958 3.958 0 0 0 .57-3.7c-.013-.069-.022-.139-.04-.207a2.82 2.82 0 0 0-1.411-1.816c-1.7-.919-4.146-.148-5.462 1.723z" class="cls-15" transform="translate(-161.376 -160.681)"/>
        <path id="패스_18384" d="M2675.047 461.686a3 3 0 0 1 .261 1.214 4 4 0 0 0 .2 1.209 3.459 3.459 0 0 0 1.593 1.77.146.146 0 0 1 .017.012 5.156 5.156 0 0 0 1.981 1h.02l.027.017.518.321a2.289 2.289 0 0 0 1.612.4 3.873 3.873 0 0 0 1.591-.63 7.09 7.09 0 0 0 .708-.525c.114-.1.223-.191.334-.294a2.691 2.691 0 0 1 .389-.3 5.352 5.352 0 0 0 1.456-.929 5.054 5.054 0 0 0 .7-1.563 4.775 4.775 0 0 1 .963-1.65c.841-.956 1.887-1.619 2.707-2.448a4.285 4.285 0 0 0 .966-1.379 5.325 5.325 0 0 0 .237-.827 3.928 3.928 0 0 1 .319-.926 8.673 8.673 0 0 1 1.093-1.535 4.631 4.631 0 0 0 .878-1.437c.084-.258.132-.552.217-.865a3.009 3.009 0 0 1 .411-.923c.372-.555.827-.959 1.118-1.426a4.009 4.009 0 0 0 .578-1.564 3.071 3.071 0 0 0-.169-1.617l-.016-.038v-.03a2.511 2.511 0 0 0-1.416-1.88 3.448 3.448 0 0 0-2.463-.124 4.86 4.86 0 0 0-2.162 1.362 5.047 5.047 0 0 0-.41.51l-.4.555-.8 1.111c-.546.726-.995 1.51-1.483 2.286l-1.434 2.335-1.443 2.332c-.5.775-.954 1.547-1.529 2.3l-.333.439.012-.559c.025-1.15.022-2.3.026-3.458l.016-3.464c.026-2.309.088-4.622.309-6.921-.135 2.306-.135 4.614-.106 6.921s.132 4.612.118 6.929l-.321-.12c.523-.7 1-1.507 1.479-2.274l1.421-2.341 1.415-2.347c.474-.776.941-1.577 1.473-2.327l.775-1.13.387-.565a5.69 5.69 0 0 1 .434-.568 5.2 5.2 0 0 1 2.39-1.565 4.039 4.039 0 0 1 2.889.135 3.177 3.177 0 0 1 1.173.936 3.137 3.137 0 0 1 .6 1.375l-.021-.067a3.68 3.68 0 0 1 .23 1.953 4.658 4.658 0 0 1-.658 1.826c-.354.563-.816.982-1.111 1.442a2.309 2.309 0 0 0-.317.733c-.072.273-.128.578-.231.9a5.231 5.231 0 0 1-1.008 1.646 8.171 8.171 0 0 0-1.028 1.408 3.324 3.324 0 0 0-.276.787 5.831 5.831 0 0 1-.273.916 4.891 4.891 0 0 1-1.113 1.574c-.9.884-1.933 1.532-2.7 2.4a4.346 4.346 0 0 0-.873 1.46 5.456 5.456 0 0 1-.838 1.706 2.578 2.578 0 0 1-.8.595c-.283.143-.558.256-.8.4a2.217 2.217 0 0 0-.333.247c-.113.1-.234.2-.355.3a7.557 7.557 0 0 1-.766.538 4.275 4.275 0 0 1-1.778.649 2.646 2.646 0 0 1-1.838-.5l.01.007-.522-.351.046.022a5.427 5.427 0 0 1-2.042-1.13l.017.012a3.636 3.636 0 0 1-1.6-1.924 3.831 3.831 0 0 1-.151-1.248 2.97 2.97 0 0 0-.195-1.217z" class="cls-25" transform="translate(-154.274 -158.34)"/>
        <g id="그룹_4336" transform="translate(2481.889 245.302)">
            <g id="그룹_4335" class="cls-13">
                <path id="패스_18385" d="M2817.077 448.2l-.636 2.248a31.326 31.326 0 0 1-1.443 4.013l-2.814 8.446c-.6 1.818-.52 3.757 1.182 4.486a11.665 11.665 0 0 0 2.478.632c1.634.334 2.918-.695 3.831-2.291.322-.545.929-.851 1.217-1.406a5.607 5.607 0 0 0 .192-2.168c.177-2 2.439-3.559 2.333-5.54-.02-.365-.123-.714-.13-1.08-.021-1.1.817-2.144.784-3.241-.013-.431-.161-.839-.138-1.272a7.177 7.177 0 0 1 .511-1.645 3.048 3.048 0 0 0-.822-3.139l-.112-.153a2.913 2.913 0 0 0-1.977-1 4.386 4.386 0 0 0-4.455 3.113z" class="cls-15" transform="translate(-2745.423 -404.852)"/>
                <path id="패스_18386" d="M2481.77 585.2v-9.844h309.784v9.844z" class="cls-25" transform="translate(-2481.794 -508.916)"/>
            </g>
        </g>
        <path id="패스_18387" d="M2497.354 674.788h-2.376V605.71h2.376v69.077z" class="cls-25" transform="translate(-10.454 -287.855)"/>
        <path id="패스_18388" d="M3060.548 674.788h-2.376V605.71h2.376v69.077z" class="cls-25" transform="translate(-460.272 -287.855)"/>
        <path id="패스_18389" d="M4039.815 679.846h-2.376v-69.078h2.376v69.078z" class="cls-10" transform="translate(-1242.406 -291.895)"/>
        <path id="패스_18390" d="M3359.909 553.552h-5.655a.575.575 0 0 1-.574-.575v-4.107h6.8v4.107a.574.574 0 0 1-.574.575z" class="cls-20" transform="translate(-696.292 -242.457)"/>
        <path id="패스_18391" d="M3354.509 572.664h-10.078a.2.2 0 0 1-.2-.2v-.276a.2.2 0 0 1 .2-.2h10.078a.2.2 0 0 1 .2.2v.276a.2.2 0 0 1-.2.2z" class="cls-20" transform="translate(-688.745 -260.919)"/>
        <path id="패스_18392" d="M3382.839 553.882a1 1 0 1 0 1 1 1 1 0 0 0-1-1zm0 2.334a1.337 1.337 0 1 1 1.336-1.336 1.338 1.338 0 0 1-1.336 1.336z" class="cls-20" transform="translate(-718.514 -246.189)"/>
        <path id="패스_18393" d="M3849.754 410.721a.341.341 0 0 1-.312-.2 4.215 4.215 0 0 1 .115-3.035c.113-.309.241-.613.367-.906a8.877 8.877 0 0 0 .589-1.688 6.031 6.031 0 0 0-.855-4.183c-.2-.343-.435-.679-.66-1a9.815 9.815 0 0 1-1.139-1.947c-.882-2.2-.256-4.7.425-6.416.3-.769.662-1.518 1.009-2.244a23.038 23.038 0 0 0 1.421-3.439c.511-1.759.62-4.185-.616-5.719a1.282 1.282 0 0 0-.5-.425.6.6 0 0 0-.479.036 1.5 1.5 0 0 0-.7.866 5.35 5.35 0 0 0-.054 2.248.338.338 0 1 1-.672.079 5.93 5.93 0 0 1 .083-2.541 2.173 2.173 0 0 1 1.057-1.264 1.263 1.263 0 0 1 1.01-.058 1.9 1.9 0 0 1 .791.634c1.4 1.737 1.3 4.411.737 6.335a23.561 23.561 0 0 1-1.457 3.542c-.342.715-.695 1.454-.992 2.2-.634 1.6-1.224 3.924-.425 5.913a9.141 9.141 0 0 0 1.067 1.813c.232.335.471.681.687 1.045a6.723 6.723 0 0 1 .938 4.665 9.447 9.447 0 0 1-.632 1.818c-.121.285-.246.58-.352.872a3.571 3.571 0 0 0-.131 2.53.339.339 0 0 1-.31.476z" class="cls-25" transform="translate(-1090.642 -106.621)"/>
        <path id="패스_18394" d="M3817.948 522.719a2.58 2.58 0 0 1 .972.2 1.578 1.578 0 0 0-.288-.282.884.884 0 0 0-1.1-.018.591.591 0 0 0-.111.167 2.078 2.078 0 0 1 .529-.066zm6.367.429c.091.015.183.032.274.051a3.506 3.506 0 0 1 .662.206 1.191 1.191 0 0 0-.936-.257zm-11.726.929a2.223 2.223 0 0 1 .58.076 4.453 4.453 0 0 1 1.051.486 3.857 3.857 0 0 0 .844.4 1.723 1.723 0 0 0 .769-.735l.137-.216a4.124 4.124 0 0 1 .648-.86.046.046 0 0 0 0-.017c-.131-.071-.262-.141-.391-.2a8.181 8.181 0 0 0-5.866-.524 5.036 5.036 0 0 0-.488.166 1.984 1.984 0 0 1 1.212.6 2.14 2.14 0 0 1 .52 1.04 2.354 2.354 0 0 1 .982-.217zm8.081.286l.159.19.282.33c.187.215.366.406.544.576a1.93 1.93 0 0 0 .833-.985c.036-.079.071-.159.1-.24.061-.143.125-.29.193-.436a4.938 4.938 0 0 0-.534.1c-.235.058-.469.134-.714.214-.284.092-.572.185-.868.252zm-11.9-.642a.852.852 0 0 0-.024.2 1.485 1.485 0 0 0 .2.685 1.709 1.709 0 0 0 .62.726.8.8 0 0 0 .769.052 1.514 1.514 0 0 0 .383-.369c.072-.086.145-.172.223-.252l.036-.037a1.513 1.513 0 0 0-.386-1.008 1.282 1.282 0 0 0-1.618-.193 1.1 1.1 0 0 0-.2.2zm13.427 2.2a3.6 3.6 0 0 0 .836.469 2.2 2.2 0 0 0 2.16-.218 1.444 1.444 0 0 0 .505-1.016 1.086 1.086 0 0 0-.264-.826 1.854 1.854 0 0 0-.992-.471 4.877 4.877 0 0 0-.874-.105 6.024 6.024 0 0 0-.356.742l-.109.248a2.865 2.865 0 0 1-.906 1.176zm-12.809 1.392a.34.34 0 0 1-.078-.67 2.394 2.394 0 0 0 .676-.278 1.707 1.707 0 0 1-.9-.117 2 2 0 0 1-1.216-1.471 1.881 1.881 0 0 1 .274-1.354 2.054 2.054 0 0 1 .67-.947 3.782 3.782 0 0 1 1.351-.648 8.863 8.863 0 0 1 6.357.568c.086.043.171.087.256.132a1.34 1.34 0 0 1 .244-.374 1.549 1.549 0 0 1 2.007-.067 3.314 3.314 0 0 1 1.021 1.572l.018.054.051.049a5.784 5.784 0 0 0 1.2-.3c.248-.08.5-.163.765-.227a5.56 5.56 0 0 1 1.131-.157 1.785 1.785 0 0 1 .622-.488 1.922 1.922 0 0 1 2.347.86 3.354 3.354 0 0 1 .252 2.427.339.339 0 0 1-.348.264 2 2 0 0 1-.467.557 2.881 2.881 0 0 1-2.838.325 4.7 4.7 0 0 1-1.337-.834 1.293 1.293 0 0 1-.258-.015 1.66 1.66 0 0 1-1.006-.648 3.972 3.972 0 0 1-.568-1.082 5.866 5.866 0 0 1-2.347-.87l-.01.006c-.01.1-.02.2-.036.3a2.124 2.124 0 0 1-1.623 1.867 1.72 1.72 0 0 1-.53-.009c-.03.006-.062.011-.093.015a2.374 2.374 0 0 1-1.4-.4l-.143-.076a1.952 1.952 0 0 0-1.747-.2l-.066.042a2.347 2.347 0 0 1-.189.638 2.9 2.9 0 0 1-1.965 1.548.342.342 0 0 1-.08.01z" class="cls-10" transform="translate(-1059.033 -220.587)"/>
        <path id="패스_18395" d="M3814.2 520.878a1.928 1.928 0 0 0-.833.985c-.036.079-.071.159-.1.24-.06.143-.125.29-.193.435a4.933 4.933 0 0 0 .533-.1c.235-.058.469-.134.715-.214.284-.092.572-.185.868-.252l-.161-.191c-.093-.11-.185-.22-.28-.329-.187-.215-.366-.407-.543-.576zm-2.323-1.117a1.915 1.915 0 0 0-1.22.4 1.444 1.444 0 0 0-.505 1.016 1.084 1.084 0 0 0 .264.826 1.854 1.854 0 0 0 .992.471 4.839 4.839 0 0 0 .874.105 5.93 5.93 0 0 0 .356-.742l.109-.248a2.862 2.862 0 0 1 .906-1.176 3.616 3.616 0 0 0-.835-.469 2.593 2.593 0 0 0-.94-.181zm13 1.849a1.506 1.506 0 0 0 .386 1.008 1.283 1.283 0 0 0 1.619.193 1.116 1.116 0 0 0 .2-.2.851.851 0 0 0 .024-.2 1.486 1.486 0 0 0-.2-.685 1.71 1.71 0 0 0-.62-.726.8.8 0 0 0-.769-.052 1.511 1.511 0 0 0-.383.369c-.073.086-.145.172-.223.252l-.036.037zm-14.275 1.321a1.19 1.19 0 0 0 .936.257c-.091-.015-.183-.032-.274-.051a3.511 3.511 0 0 1-.662-.206zm6.329.482a1.56 1.56 0 0 0 .29.287.886.886 0 0 0 1.1.018.7.7 0 0 0 .11-.164 2.407 2.407 0 0 1-1.5-.141zm2.3-.29c.129.071.262.141.391.205a8.18 8.18 0 0 0 5.866.524 4.992 4.992 0 0 0 .487-.166 1.982 1.982 0 0 1-1.212-.6 2.136 2.136 0 0 1-.519-1.04 2.314 2.314 0 0 1-1.562.141 4.457 4.457 0 0 1-1.051-.486 3.848 3.848 0 0 0-.844-.4 1.723 1.723 0 0 0-.769.735l-.137.215a4.1 4.1 0 0 1-.648.861.047.047 0 0 0 0 .017zm4.012 1.725a8.832 8.832 0 0 1-3.923-.912c-.087-.042-.171-.087-.256-.132a1.336 1.336 0 0 1-.244.374 1.549 1.549 0 0 1-2.007.067 3.314 3.314 0 0 1-1.02-1.572l-.02-.054-.048-.049a5.822 5.822 0 0 0-1.2.3c-.246.08-.5.163-.763.227a5.573 5.573 0 0 1-1.131.157 1.784 1.784 0 0 1-.622.488 1.922 1.922 0 0 1-2.347-.86 3.357 3.357 0 0 1-.252-2.427.339.339 0 0 1 .349-.265 2 2 0 0 1 .467-.557 2.881 2.881 0 0 1 2.838-.325 4.7 4.7 0 0 1 1.341.834 1.3 1.3 0 0 1 .253.015 1.664 1.664 0 0 1 1.007.649 3.974 3.974 0 0 1 .567 1.082 5.864 5.864 0 0 1 2.347.869l.01-.005c.01-.1.02-.2.036-.3a2.124 2.124 0 0 1 1.622-1.867 1.715 1.715 0 0 1 .529.009c.03-.006.062-.011.093-.015a2.382 2.382 0 0 1 1.4.4l.143.077a1.952 1.952 0 0 0 1.748.2l.066-.042a2.32 2.32 0 0 1 .189-.638 2.9 2.9 0 0 1 1.965-1.548.339.339 0 0 1 .159.66 2.409 2.409 0 0 0-.677.278 1.7 1.7 0 0 1 .9.117 2 2 0 0 1 1.216 1.471 1.888 1.888 0 0 1-.274 1.354 2.061 2.061 0 0 1-.668.947 3.805 3.805 0 0 1-1.353.648 8.719 8.719 0 0 1-2.434.343z" class="cls-25" transform="translate(-1060.194 -218.615)"/>
        <path id="패스_18396" d="M3815.015 524.258l.159.055c.163.057.318.11.471.149a3.09 3.09 0 0 0 1.862-.223c.09-.161-.208-.755-.523-.948a1.278 1.278 0 0 0-.9.026 1.689 1.689 0 0 0-.984.633.959.959 0 0 0-.084.307zm1.61 2.1a2.566 2.566 0 0 1-1.5-.432 1.932 1.932 0 0 1-.751-1.148 1.59 1.59 0 0 0-.292-.031 1.2 1.2 0 0 0-1.139 1.1.34.34 0 1 1-.678-.029 1.87 1.87 0 0 1 1.816-1.748 2.07 2.07 0 0 1 .27.017 1.677 1.677 0 0 1 .131-.428 2.318 2.318 0 0 1 1.405-1 1.854 1.854 0 0 1 1.449.044c.461.281 1.117 1.224.763 1.86-.382.684-2.116.676-2.621.549-.093-.023-.185-.05-.274-.079a1.212 1.212 0 0 0 .316.337 2 2 0 0 0 1.254.3 2.087 2.087 0 0 0 1.3-.479 3.281 3.281 0 0 0 .477-.607 4.119 4.119 0 0 1 .536-.682 2.327 2.327 0 0 1 3.12-.046 4.031 4.031 0 0 1 .473.546c.079.1.155.2.236.294a1.072 1.072 0 0 0 .66.422 1.1 1.1 0 0 0 .765-.364c.111-.107.211-.223.314-.339a4.607 4.607 0 0 1 .508-.518 2.447 2.447 0 0 1 2.337-.435 2.273 2.273 0 0 1 1.49 1.866.339.339 0 1 1-.674.07 1.605 1.605 0 0 0-1.041-1.3 1.757 1.757 0 0 0-1.677.317 4.143 4.143 0 0 0-.433.444c-.113.13-.227.26-.352.38a1.68 1.68 0 0 1-1.295.552 1.7 1.7 0 0 1-1.113-.652c-.091-.105-.177-.216-.262-.326a3.539 3.539 0 0 0-.395-.46 1.654 1.654 0 0 0-2.188.032 3.578 3.578 0 0 0-.445.575 3.85 3.85 0 0 1-.582.729 2.769 2.769 0 0 1-1.727.656c-.059 0-.121.005-.187.005z" class="cls-10" transform="translate(-1062.563 -221.432)"/>
        <path id="패스_18397" d="M3825.19 536.372c-.431 3.324-3.209 6.09-6.983 7.216h-7.559c-3.775-1.127-6.552-3.892-6.981-7.216a.753.753 0 0 1 .781-.82h19.959a.755.755 0 0 1 .783.82z" class="cls-17" transform="translate(-1055.688 -231.82)"/>
        <path id="패스_18398" d="M3825.5 540.663h-21.393v-.339h21.393v.339z" class="cls-12" transform="translate(-1056.047 -235.631)"/>
        <path id="패스_18399" d="M3846.238 359.555h-.028c-.209.025-.411.375-.423.734a1.976 1.976 0 0 0 .278 1.193 1.023 1.023 0 0 0 .56.429 1.978 1.978 0 0 0 .624-.194 2.541 2.541 0 0 0-.64-1.982.621.621 0 0 0-.37-.181zm-.614 31.133a.341.341 0 0 1-.338-.3 2.427 2.427 0 0 1 1.027-2.105 6.668 6.668 0 0 1 .914-.554 6.537 6.537 0 0 0 .765-.452 1.82 1.82 0 0 0 .825-1.463 1.842 1.842 0 0 0-1.187-1.423c-.2-.088-.411-.16-.632-.236a4.444 4.444 0 0 1-1.441-.707 4.489 4.489 0 0 1-1.276-3.741 8.151 8.151 0 0 1 .876-3.261 14.809 14.809 0 0 1 .821-1.34c.234-.351.475-.715.683-1.088a4.151 4.151 0 0 0 .6-2.594 5.223 5.223 0 0 0-.526-1.393c-.125-.256-.253-.521-.36-.8a5.9 5.9 0 0 1-.322-3.01 11.189 11.189 0 0 1 .6-2.062 14.2 14.2 0 0 0 .457-1.4q.033-.133.061-.272a3.244 3.244 0 0 1-.493.109.338.338 0 0 1-.07 0 1.566 1.566 0 0 1-1.083-.711 2.534 2.534 0 0 1-.408-1.618 1.364 1.364 0 0 1 1.021-1.384 1.192 1.192 0 0 1 .928.345 2.449 2.449 0 0 1 .69 1.1 10.763 10.763 0 0 0-1.1-2.76c-.119-.234-.228-.45-.318-.641a1.556 1.556 0 0 1-.058-1.466 2.078 2.078 0 0 1 1.455-.855.339.339 0 1 1 .081.674 1.382 1.382 0 0 0-.942.511.936.936 0 0 0 .077.845c.088.186.2.4.312.624.682 1.346 1.621 3.189 1.007 4.371a1.562 1.562 0 0 1-.356.454 5.73 5.73 0 0 1-.143.836 15.086 15.086 0 0 1-.477 1.468 10.3 10.3 0 0 0-.566 1.935 5.205 5.205 0 0 0 .282 2.658c.1.251.215.493.34.748a5.825 5.825 0 0 1 .582 1.576 4.707 4.707 0 0 1-.67 3.038c-.219.4-.469.772-.711 1.135a13.88 13.88 0 0 0-.783 1.276 7.418 7.418 0 0 0-.8 2.986 3.027 3.027 0 0 0 2.261 3.769c.223.077.455.157.682.255a2.224 2.224 0 0 1 .487 4.059 7.031 7.031 0 0 1-.841.5 5.978 5.978 0 0 0-.823.5 1.746 1.746 0 0 0-.761 1.49.341.341 0 0 1-.3.375h-.038z" class="cls-10" transform="translate(-1088.122 -87.299)"/>
        <path id="패스_18400" d="M3871.919 541.016a.617.617 0 0 0 .115.864l2.448 2.077a.588.588 0 1 0 .757-.892l-2.448-2.077a.62.62 0 0 0-.872.028z" class="cls-8" transform="translate(-1110.103 -236.031)"/>
        <path id="패스_18401" d="M3861.833 552.077a2.606 2.606 0 0 1-1.043-.914 1.514 1.514 0 0 1-.111-.863 7.027 7.027 0 0 1 .552-2.137 2.055 2.055 0 0 1 1.709-1.385 3.488 3.488 0 0 1 2.454.825c1.232 1.009 1.663 1.38 2.049 2.631.485 1.566-.1 2.7-2.353 2.467a8.109 8.109 0 0 1-3.257-.623z" class="cls-8" transform="translate(-1101.217 -240.777)"/>
        <path id="패스_18402" d="M3852.32 546l-4.388-.4a.543.543 0 0 1 .1-1.081l4.389.4a.543.543 0 1 1-.1 1.081z" class="cls-8" transform="translate(-1090.653 -238.979)"/>
        <path id="패스_18403" d="M3849.482 553.074l-4.389-.4a.543.543 0 1 1 .1-1.081l4.389.4a.543.543 0 0 1-.1 1.081z" class="cls-8" transform="translate(-1088.385 -244.63)"/>
        <path id="패스_18404" d="M3850.39 558.269l-4.388-.4a.543.543 0 0 1 .1-1.081l4.388.4a.543.543 0 0 1-.1 1.082z" class="cls-8" transform="translate(-1089.112 -248.779)"/>
        <path id="패스_18405" d="M3852.075 561.806l-2.843-.338a3.075 3.075 0 0 1-2.16-1.289 3.326 3.326 0 0 1-.606-1.186l.457-.23c.028-.3.813-.435 1.111-.408l4.483 2.081a.544.544 0 0 1 .491.59 1.247 1.247 0 0 1-.934.778z" class="cls-8" transform="translate(-1089.877 -250.031)"/>
        <path id="패스_18406" d="M3877.427 549.252c.64.751 1.687.516 2.75.495l23.742.218a3.408 3.408 0 0 0-.139-6.815l-24.089 2.174c-1.882.038-3.114-.094-3.076 1.788a3.4 3.4 0 0 0 .811 2.14z" class="cls-8" transform="translate(-1113.957 -237.887)"/>
        <path id="패스_18407" d="M3098.921 585.2v-9.844h194.787v9.844z" class="cls-10" transform="translate(-492.819 -263.613)"/>
        <path id="패스_18408" d="M2802.349 502.107c-.249-1.425-.425-2.855-.573-4.288s-.259-2.869-.352-4.306-.142-2.878-.152-4.32a35.456 35.456 0 0 1 .175-4.327l.354 4.3c.118 1.433.21 2.868.3 4.3s.158 2.872.2 4.311.078 2.879.047 4.325z" class="cls-25" transform="translate(-255.086 -191.337)"/>
    </g>
</svg>
