<svg xmlns="http://www.w3.org/2000/svg" id="intro1_img" width="268" height="202.898" viewBox="0 0 268 202.898">
    <defs>
        <style>
            .cls-3{fill:#9ab3de}.cls-4{fill:#262655}.cls-5{fill:#3d509d}.cls-6{fill:#f9c08c}.cls-7{fill:#fff3e0}.cls-8{fill:#ef8272}.cls-9{fill:#8c3c31}.cls-10{fill:#f6a83c}.cls-11{fill:#f08817}.cls-12{fill:#f7e4ca}.cls-13{fill:#8c3d32}.cls-14{fill:#f18d1f}.cls-16{fill:#ffad69}.cls-18{fill:#2b5987}.cls-19{fill:#72aed6}
        </style>
    </defs>
    <circle id="타원_45" cx="36" cy="36" r="36" fill="#fac865" opacity="0.5" transform="translate(19 117)"/>
    <circle id="타원_46" cx="25.5" cy="25.5" r="25.5" fill="#ffc38d" opacity="0.2" transform="translate(201)"/>
    <g id="그룹_4330" transform="translate(-1910.698 -470.539)">
        <path id="패스_17952" d="M2305.208 702.322l15.089 27.124-6.751-.059-21.019-26.948 12.681-.117z" class="cls-3" transform="translate(-173.84 -105.368)"/>
        <path id="패스_17953" d="M2039.034 702.322l-15.089 27.124 6.752-.059 21.019-26.948-12.682-.117z" class="cls-3" transform="translate(-51.568 -105.368)"/>
        <path id="패스_17954" d="M2019.211 573.523s-1.864-25.6.155-32.479 3.882-10.72 12.578-11.52 14.907-2.72 25.621.32c0 0 15.838-4.16 37.733-2.56 0 0 31.677-1.28 38.509-.159s21.738-3.041 21.738-3.041 9.627-.479 10.249-.16 9.627-1.92 10.558 13.28 2.329 20.159 2.951 32.8c0 0 13.974-1.6 13.664 9.44s-2.019 33.439-12.112 44.159c0 0-1.4 1.76-5.59 1.76s-35.249-.479-35.249-.479l-54.036 1.919-51.709-.159s-6.366.96-13.509-14.88-16.149-31.359-1.552-38.238" class="cls-4" transform="translate(-45.68 -24.114)"/>
        <path id="패스_17955" d="M2024.3 614.034a.221.221 0 0 1-.085-.424l5.209-2.183a.221.221 0 1 1 .171.408l-5.209 2.182a.213.213 0 0 1-.085.017z" class="cls-5" transform="translate(-51.637 -63.981)"/>
        <path id="패스_17956" d="M2016.27 644.168a.221.221 0 0 1-.205-.139l-2.746-6.809a36.889 36.889 0 0 1-2.312-7.094 12.41 12.41 0 0 1 .693-7.416 15.332 15.332 0 0 1 4.249-5.069.221.221 0 0 1 .286.338 14.936 14.936 0 0 0-4.133 4.917 11.973 11.973 0 0 0-.659 7.151 36.505 36.505 0 0 0 2.287 7.008l2.746 6.809a.221.221 0 0 1-.122.287.212.212 0 0 1-.083.016z" class="cls-5" transform="translate(-45.564 -66.786)"/>
        <path id="패스_17957" d="M2049.4 656.058a.218.218 0 0 1-.105-.027.221.221 0 0 1-.089-.3 27.591 27.591 0 0 1 14.151-12.405.221.221 0 1 1 .158.413 27.139 27.139 0 0 0-13.92 12.2.223.223 0 0 1-.2.116z" class="cls-5" transform="translate(-63.064 -78.505)"/>
        <path id="패스_17958" d="M2049.238 672.724a.222.222 0 0 1-.2-.127 6.223 6.223 0 0 1-.489-3.816.219.219 0 0 1 .259-.176.222.222 0 0 1 .176.259 5.782 5.782 0 0 0 .454 3.543.221.221 0 0 1-.1.295.226.226 0 0 1-.095.021z" class="cls-5" transform="translate(-62.73 -90.026)"/>
        <path id="패스_17959" d="M2079.694 678.644c-8.465 0-17.025-.15-25.471-.445a.222.222 0 0 1-.213-.229.232.232 0 0 1 .229-.214c9 .315 18.137.464 27.145.442a.221.221 0 0 1 0 .443h-1.69z" class="cls-5" transform="translate(-65.258 -94.197)"/>
        <path id="패스_17960" d="M2074.324 668.067a.222.222 0 0 1 0-.443c14.27-.317 28.77-.435 43.1-.346a.221.221 0 1 1 0 .442c-14.322-.089-28.82.029-43.085.347z" class="cls-5" transform="translate(-74.402 -89.412)"/>
        <path id="패스_17961" d="M2120.421 680.11a.221.221 0 0 1 0-.442l21.211-.253a.247.247 0 0 1 .224.218.221.221 0 0 1-.218.224l-21.211.252z" class="cls-5" transform="translate(-95.402 -94.952)"/>
        <path id="패스_17962" d="M2234.281 681.175h-46.112a.221.221 0 0 1 0-.442h46.112a.221.221 0 0 1 0 .442z" class="cls-5" transform="translate(-126.237 -95.552)"/>
        <path id="패스_17963" d="M2316.088 613.024a.206.206 0 0 1-.04 0 .222.222 0 0 1-.178-.258 5.13 5.13 0 0 1 1.91-3.109.221.221 0 0 1 .268.352 4.681 4.681 0 0 0-1.742 2.837.222.222 0 0 1-.218.181z" class="cls-5" transform="translate(-184.479 -63.161)"/>
        <path id="패스_17964" d="M2295.249 664.387a.221.221 0 0 1-.218-.225 33.058 33.058 0 0 1 3.909-15.177.221.221 0 1 1 .39.209 32.625 32.625 0 0 0-3.856 14.975.221.221 0 0 1-.221.219z" class="cls-5" transform="translate(-175.025 -81.034)"/>
        <path id="패스_17965" d="M2283.113 681.869H2280a.221.221 0 1 1 0-.442h3.111a.221.221 0 0 1 0 .442z" class="cls-5" transform="translate(-168.083 -95.868)"/>
        <path id="패스_17966" d="M2232.921 664.873h-66.141a.221.221 0 0 1 0-.442h66.141a.221.221 0 0 1 0 .442z" class="cls-5" transform="translate(-116.484 -88.128)"/>
        <path id="패스_17967" d="M2210.145 544a.222.222 0 0 1-.22-.223 10.661 10.661 0 0 0-2.223-6.545.221.221 0 1 1 .349-.271 11.1 11.1 0 0 1 2.316 6.818.221.221 0 0 1-.221.22z" class="cls-5" transform="translate(-135.236 -30.038)"/>
        <path id="패스_17968" d="M2213.676 540.071a.222.222 0 0 1-.217-.177l-.563-2.787a.221.221 0 0 1 .173-.261.223.223 0 0 1 .261.173l.563 2.786a.222.222 0 0 1-.174.261.234.234 0 0 1-.044 0z" class="cls-5" transform="translate(-137.622 -30.053)"/>
        <path id="패스_17969" d="M2079.887 541.535a.221.221 0 0 1-.174-.357 20.05 20.05 0 0 1 9.573-6.709.221.221 0 1 1 .136.421 19.611 19.611 0 0 0-9.36 6.56.219.219 0 0 1-.175.086z" class="cls-5" transform="translate(-76.947 -28.936)"/>
        <path id="패스_17970" d="M2070.105 541.844a.221.221 0 0 1-.165-.368 11.507 11.507 0 0 1 3.377-2.607.221.221 0 0 1 .2.394 11.082 11.082 0 0 0-3.249 2.507.219.219 0 0 1-.165.074z" class="cls-5" transform="translate(-72.494 -30.965)"/>
        <path id="패스_17971" d="M2027.622 564.826a.221.221 0 0 1-.221-.21 55.522 55.522 0 0 1 .074-9.643 18.565 18.565 0 0 1 3.357-9.017.221.221 0 0 1 .353.267 18.13 18.13 0 0 0-3.271 8.805 55.21 55.21 0 0 0-.072 9.566.221.221 0 0 1-.209.232z" class="cls-5" transform="translate(-53.068 -34.13)"/>
        <path id="패스_17972" d="M2027.358 594.581a.221.221 0 0 1-.218-.189l-.29-1.95a.221.221 0 1 1 .438-.065l.289 1.95a.221.221 0 0 1-.186.251h-.033z" class="cls-5" transform="translate(-52.896 -55.228)"/>
        <path id="패스_17973" d="M2052.351 616.456a5.062 5.062 0 0 1-3.745-2.624l-1.862-3.666.554-.281-.769-1.514-5.652 2.871.769 1.514.553-.281 1.862 3.666a5.061 5.061 0 0 1-.089 4.573 5.9 5.9 0 0 0-.051 5.333l9.263 18.24a1.354 1.354 0 0 0 1.839.517l10.263-5.213a1.352 1.352 0 0 0 .667-1.789l-9.264-18.24a5.9 5.9 0 0 0-4.336-3.105" class="cls-6" transform="translate(-59.279 -62.584)"/>
        <path id="패스_17974" d="M2067.629 650.107l-9.574 4.862a3.258 3.258 0 0 1-4.38-1.429l-6.546-12.888a3.258 3.258 0 0 1 1.43-4.38l9.573-4.862a3.259 3.259 0 0 1 4.38 1.43l6.545 12.887a3.258 3.258 0 0 1-1.429 4.381" class="cls-6" transform="translate(-61.966 -72.919)"/>
        <path id="패스_17975" d="M2044.4 614.2a.148.148 0 0 1-.07-.277l2.928-1.572a.147.147 0 1 1 .139.26l-2.927 1.572a.147.147 0 0 1-.07.018z" class="cls-5" transform="translate(-60.823 -64.402)"/>
        <path id="패스_17976" d="M2068.14 648.022l-10.284 5.223-4-7.873 10.284-5.223 4 7.873z" class="cls-5" transform="translate(-65.193 -77.064)"/>
        <path id="패스_17977" d="M2053.734 646.422a.147.147 0 0 1-.067-.279l7.873-4a.147.147 0 1 1 .134.262l-7.873 4a.14.14 0 0 1-.067.016z" class="cls-4" transform="translate(-65.071 -77.97)"/>
        <path id="패스_17978" d="M2075.365 648.046a.147.147 0 0 1-.131-.081l-3.932-7.741-1.38.7a.148.148 0 0 1-.133-.263l1.511-.768a.145.145 0 0 1 .113-.009.147.147 0 0 1 .085.073l4 7.873a.146.146 0 0 1-.064.2.142.142 0 0 1-.067.016z" class="cls-4" transform="translate(-72.414 -76.943)"/>
        <path id="패스_17979" d="M2048.33 640.386a.148.148 0 0 1-.065-.28l4.943-2.432a.148.148 0 0 1 .13.265l-4.943 2.431a.147.147 0 0 1-.065.015z" class="cls-5" transform="translate(-62.611 -75.935)"/>
        <path id="패스_17980" d="M2046.388 637.264a.148.148 0 0 1-.123-.066c-.027-.04-2.608-4.034-.371-7.06a.148.148 0 0 1 .237.176c-2.117 2.862.354 6.684.38 6.722a.148.148 0 0 1-.042.2.151.151 0 0 1-.082.024z" class="cls-5" transform="translate(-61.154 -72.481)"/>
        <path id="패스_17981" d="M2047.213 635.419a.148.148 0 0 1-.136-.092 3.467 3.467 0 0 1-.067-2.41.148.148 0 0 1 .279.1 3.164 3.164 0 0 0 .061 2.2.148.148 0 0 1-.08.193.147.147 0 0 1-.056.011z" class="cls-5" transform="translate(-61.994 -73.731)"/>
        <path id="패스_17982" d="M2299.637 762.351c0 3.658-9.241 6.623-20.641 6.623s-20.641-2.966-20.641-6.623 9.241-6.623 20.641-6.623 20.641 2.965 20.641 6.623" class="cls-7" transform="translate(-158.262 -129.697)"/>
        <path id="패스_17983" d="M2278.749 755.776c-11.028 0-20.346 2.9-20.346 6.328s9.317 6.328 20.346 6.328 20.346-2.9 20.346-6.328-9.317-6.328-20.346-6.328zm0 13.247c-11.74 0-20.936-3.039-20.936-6.919s9.2-6.918 20.936-6.918 20.936 3.038 20.936 6.918-9.2 6.919-20.936 6.919z" class="cls-8" transform="translate(-158.015 -129.45)"/>
        <path id="패스_17984" d="M2337.571 792.511c0 3.658-9.242 6.623-20.642 6.623s-20.641-2.966-20.641-6.623 9.241-6.623 20.641-6.623 20.642 2.966 20.642 6.623" class="cls-7" transform="translate(-175.555 -143.415)"/>
        <path id="패스_17985" d="M2316.683 785.936c-11.028 0-20.345 2.9-20.345 6.327s9.317 6.328 20.345 6.328 20.347-2.9 20.347-6.328-9.318-6.327-20.347-6.327zm0 13.245c-11.739 0-20.935-3.039-20.935-6.918s9.2-6.918 20.935-6.918 20.937 3.039 20.937 6.918-9.2 6.918-20.937 6.918z" class="cls-8" transform="translate(-175.308 -143.168)"/>
        <path id="패스_17986" d="M2015.625 752.087h-24.594a.147.147 0 1 1 0-.295h24.594a.147.147 0 1 1 0 .295z" class="cls-9" transform="translate(-36.514 -127.913)"/>
        <path id="패스_17987" d="M2033.688 755.949h-24.594a.147.147 0 0 1 0-.295h24.594a.147.147 0 0 1 0 .295z" class="cls-9" transform="translate(-44.739 -129.672)"/>
        <path id="패스_17988" d="M2053.354 752.087h-12.6a.147.147 0 1 1 0-.295h12.6a.147.147 0 1 1 0 .295z" class="cls-9" transform="translate(-59.158 -127.913)"/>
        <path id="패스_17989" d="M2347.67 752.087h-22.753a.147.147 0 1 1 0-.295h22.753a.147.147 0 0 1 0 .295z" class="cls-9" transform="translate(-188.538 -127.913)"/>
        <path id="패스_17990" d="M2388.286 752.087h-16.869a.147.147 0 1 1 0-.295h16.869a.147.147 0 1 1 0 .295z" class="cls-9" transform="translate(-209.736 -127.913)"/>
        <path id="패스_17991" d="M2362.512 755.435h-23.537a.147.147 0 1 1 0-.295h23.537a.147.147 0 1 1 0 .295z" class="cls-9" transform="translate(-194.946 -129.438)"/>
        <path id="패스_17992" d="M2132.8 786.474h-16.869a.147.147 0 1 1 0-.295h16.869a.147.147 0 1 1 0 .295z" class="cls-9" transform="translate(-93.39 -143.548)"/>
        <path id="패스_17993" d="M2118.189 789.821h-23.537a.147.147 0 0 1 0-.295h23.537a.147.147 0 0 1 0 .295z" class="cls-9" transform="translate(-83.7 -145.074)"/>
        <path id="패스_17994" d="M2148.126 789.821h-7.972a.147.147 0 0 1 0-.295h7.972a.147.147 0 0 1 0 .295z" class="cls-9" transform="translate(-104.427 -145.074)"/>
        <path id="패스_17995" d="M2298.262 761.741a7.494 7.494 0 0 1-7.609-.137h-14.419a1.951 1.951 0 0 0-1.95 1.95v1.252a1.95 1.95 0 0 0 1.95 1.95h21.323a1.949 1.949 0 0 0 1.949-1.95v-1.252a1.946 1.946 0 0 0-1.244-1.813" class="cls-10" transform="translate(-165.565 -132.379)"/>
        <path id="패스_17996" d="M2297.139 759.523c-2.736 1.258-6.257.957-8.307-1.4a5.184 5.184 0 0 1-.886-1.448 49.067 49.067 0 0 0-11.006-.24c-2.172.271-4.01 1.215-4.079 3.654a1.135 1.135 0 0 0 .15.67 1.352 1.352 0 0 0 1.169.423 9.362 9.362 0 0 0 2.591-.372 4.216 4.216 0 0 1 2.553-.31 3.866 3.866 0 0 1 1.516 1.357 6.091 6.091 0 0 0 2.448 1.963 2.832 2.832 0 0 0 2.965-.478c.365-.367.589-.853.938-1.234a3.715 3.715 0 0 1 3.492-.826c1.225.25 2.36.83 3.57 1.154a3.092 3.092 0 0 0 1.695.074 1.377 1.377 0 0 0 1.023-1.235 3.543 3.543 0 0 1 .06-1.49 2.19 2.19 0 0 1 .108-.26" class="cls-6" transform="translate(-164.917 -129.919)"/>
        <path id="패스_17997" d="M2294.594 761.873l-12.231.954 16.521 4.6 3.1-5.61a7.563 7.563 0 0 1-7.385.051" class="cls-11" transform="translate(-169.248 -132.478)"/>
        <path id="패스_17998" d="M2317.054 760.749a7.844 7.844 0 0 1-3.029 1.248h1.648a1.943 1.943 0 0 0 1.92-1.666c-.172.146-.351.286-.539.417" class="cls-12" transform="translate(-183.64 -131.802)"/>
        <path id="패스_17999" d="M2289.481 757.079a5.069 5.069 0 0 1-1.262-3.152h-11.985a1.95 1.95 0 0 0-1.95 1.95v1.252a1.95 1.95 0 0 0 1.95 1.95h16.821a6.2 6.2 0 0 1-3.575-2" class="cls-12" transform="translate(-165.569 -128.883)"/>
        <path id="패스_18000" d="M2288.7 745.562c-.018-.009-.036-.013-.053-.021a3.712 3.712 0 0 1-1.344-1.083c-.625-.018-1.25-.024-1.876 0-3.535.105-12.421 1.117-12.562 6.155a1.139 1.139 0 0 0 .151.67 1.349 1.349 0 0 0 1.169.423 9.335 9.335 0 0 0 2.591-.371 4.209 4.209 0 0 1 2.553-.31 3.879 3.879 0 0 1 1.517 1.357 6.1 6.1 0 0 0 2.447 1.964 2.83 2.83 0 0 0 2.964-.478c.365-.367.589-.853.938-1.235a2.69 2.69 0 0 1 1.064-.7 6.246 6.246 0 0 1 .442-6.369" class="cls-6" transform="translate(-164.923 -124.56)"/>
        <path id="패스_18001" d="M2288.907 738.213c-.018-.009-.036-.013-.053-.021a4.173 4.173 0 0 1-2.2-2.882c-.632-2.621.873-5.124 3.024-6.57a13.079 13.079 0 0 0-3.226-.419 13.545 13.545 0 0 0-13.046 10.154 2.623 2.623 0 0 0 2.545 3.244l10.5.065h1.325a7.633 7.633 0 0 1 1.132-3.57" class="cls-10" transform="translate(-165.133 -117.216)"/>
        <path id="패스_18002" d="M2289.026 753.085h-12.232a.147.147 0 0 1 0-.295h12.232a.147.147 0 0 1 0 .295z" class="cls-13" transform="translate(-166.65 -128.368)"/>
        <path id="패스_18003" d="M2290.32 767.83a3.834 3.834 0 0 1-.856-.1 4.422 4.422 0 0 1-2.075-1.348c-.16-.166-.314-.338-.469-.51a8.971 8.971 0 0 0-1.22-1.191.148.148 0 0 1 .178-.236 9.254 9.254 0 0 1 1.261 1.229c.152.169.306.339.463.5a4.148 4.148 0 0 0 1.928 1.264 2.212 2.212 0 0 0 2.6-.886.147.147 0 1 1 .243.166 2.353 2.353 0 0 1-2.05 1.113z" class="cls-13" transform="translate(-170.749 -133.659)"/>
        <path id="패스_18004" d="M2298.761 768.3a.137.137 0 0 1-.04-.005l-16.521-4.6a.148.148 0 0 1 .079-.285l16.522 4.606a.147.147 0 0 1-.04.289z" class="cls-14" transform="translate(-169.126 -133.196)"/>
        <path id="패스_18005" d="M2286.917 763.417h-9.173a.147.147 0 1 1 0-.295h9.173a.147.147 0 1 1 0 .295z" class="cls-10" transform="translate(-167.084 -133.073)"/>
        <path id="패스_18006" d="M2302.594 763.417h-4.933a.147.147 0 1 1 0-.295h4.933a.147.147 0 1 1 0 .295z" class="cls-10" transform="translate(-176.157 -133.073)"/>
        <path id="패스_18007" d="M2291.955 738.622a.221.221 0 0 1-.18-.349 4.142 4.142 0 0 0 .614-1.287.221.221 0 0 1 .426.12 4.618 4.618 0 0 1-.68 1.423.22.22 0 0 1-.18.094z" class="cls-7" transform="translate(-173.528 -121.096)"/>
        <path id="패스_18008" d="M2296.267 741.03a.221.221 0 0 1-.16-.068 3.145 3.145 0 0 1-.678-1.087.221.221 0 1 1 .416-.152 2.69 2.69 0 0 0 .582.933.221.221 0 0 1-.16.374z" class="cls-7" transform="translate(-175.204 -122.35)"/>
        <path id="패스_18009" d="M2285.476 736.692a.232.232 0 0 1-.047-.005l-1-.214a.221.221 0 0 1 .093-.433l1 .214a.221.221 0 0 1-.045.438z" class="cls-7" transform="translate(-170.121 -120.737)"/>
        <path id="패스_18010" d="M2288.261 743.022l-.333-.293.707-.723a.221.221 0 1 1 .316.31l-.69.706z" class="cls-7" transform="translate(-171.795 -123.426)"/>
        <path id="패스_18011" d="M2291.3 733.064h-.785a.221.221 0 1 1 0-.442h.785a.221.221 0 0 1 0 .442z" class="cls-7" transform="translate(-172.871 -119.183)"/>
        <path id="패스_18012" d="M2296.293 732.348a.21.21 0 0 1-.085-.016.221.221 0 0 1-.12-.289l.356-.858a.221.221 0 0 1 .409.169l-.356.858a.221.221 0 0 1-.2.137z" class="cls-7" transform="translate(-175.504 -118.466)"/>
        <path id="패스_18013" d="M2278.134 741.543a.233.233 0 0 1-.069-.011.222.222 0 0 1-.141-.28l.325-.987a.221.221 0 1 1 .419.138l-.325.987a.22.22 0 0 1-.209.152z" class="cls-7" transform="translate(-167.234 -122.594)"/>
        <path id="패스_18014" d="M2283.167 743.765a.253.253 0 0 1-.053-.006.222.222 0 0 1-.162-.268l.208-.858a.221.221 0 0 1 .43.1l-.209.859a.221.221 0 0 1-.214.169z" class="cls-7" transform="translate(-169.526 -123.664)"/>
        <path id="패스_18015" d="M2221.294 795.548l.027.221c.216 1.79-.143 3.66.256 5.42a5.548 5.548 0 0 0 1.052 2.191c1.076 1.371 13.391 12.23 13.391 12.23a2.821 2.821 0 0 0 1.515.633.4.4 0 0 0 .323-.057.332.332 0 0 0 .08-.2c.064-.362.09-.809-.239-1.019a1.731 1.731 0 0 0 .806.306.77.77 0 0 0 .517-.113.753.753 0 0 0 .238-.507 1.571 1.571 0 0 0-.229-1.24c-.053.067.087.2.163.252a2.263 2.263 0 0 0 .913.368 1.036 1.036 0 0 0 .9-.286 1.069 1.069 0 0 0 .093-1.06 1.327 1.327 0 0 0-.461-.67c-.188-.133-.145-.222-.162-.439a.222.222 0 0 1 .039-.164c.089-.1.269-.039.4.023a2.943 2.943 0 0 0 2.442.03 1.062 1.062 0 0 0 .5-.4.842.842 0 0 0-.206-.961 3.517 3.517 0 0 0-.92-.6 2.077 2.077 0 0 1-.837-.686c-.33-.551-.945-.872-1.4-1.343-3.394-3.534-7.319-6.821-8.28-11.877a44.845 44.845 0 0 1-.533-5.57c-.079-1.279.121-3.34-.906-4.319-1.913-1.824-6.08-1.065-8.305-.459a3.479 3.479 0 0 0-1.752.887c-.714.8-.59 2.024-.423 3.086.33 2.1.735 4.207 1 6.318" class="cls-8" transform="translate(-140.921 -142.815)"/>
        <path id="패스_18016" d="M2254.77 838.533h-.022a.147.147 0 0 1-.124-.168 1.522 1.522 0 0 0-.535-1.355.147.147 0 0 1-.017-.207.148.148 0 0 1 .208-.018 1.8 1.8 0 0 1 .637 1.625.148.148 0 0 1-.146.125z" class="cls-13" transform="translate(-156.36 -166.601)"/>
        <path id="패스_18017" d="M2257.989 835.909a.148.148 0 0 1-.146-.148 2.5 2.5 0 0 0-.766-1.785.147.147 0 0 1 .206-.211 2.8 2.8 0 0 1 .855 2 .147.147 0 0 1-.147.146z" class="cls-13" transform="translate(-157.724 -165.222)"/>
        <path id="패스_18018" d="M2225.52 811.835c-.325 0-.618-.254-.806-.7a5.368 5.368 0 0 1-.419-1.81.147.147 0 0 1 .139-.155.149.149 0 0 1 .155.14 5.067 5.067 0 0 0 .4 1.71c.068.163.263.548.555.52.213-.013.371-.224.47-.628a.148.148 0 1 1 .287.07c-.134.544-.383.83-.739.853z" class="cls-13" transform="translate(-142.815 -154.029)"/>
        <path id="패스_18019" d="M2229.24 568.573a43.847 43.847 0 0 1 2.592 16.926 13.492 13.492 0 0 1-1.082 4.89 6.249 6.249 0 0 1-3.561 3.365 8.39 8.39 0 0 1-4.61-.17 7.735 7.735 0 0 1-3.556-1.7 8.9 8.9 0 0 1-1.932-3.621c-2.969-8.555-5.957-17.189-7.053-26.177a17.283 17.283 0 0 1 .294-7.29c.719-2.273 2.5-4.5 4.938-4.995 2.392-.484 4.586 1.494 6.3 2.98 1.846 1.6 2.722 4.051 3.733 6.214a94.12 94.12 0 0 1 3.94 9.572" class="cls-8" transform="translate(-136.2 -35.883)"/>
        <path id="패스_18020" d="M2080.881 567.169a43.844 43.844 0 0 1-8.97 14.585 13.465 13.465 0 0 1-3.989 3.029 6.244 6.244 0 0 1-4.892.265 8.4 8.4 0 0 1-3.407-3.111 7.745 7.745 0 0 1-1.615-3.593 8.89 8.89 0 0 1 .868-4.011c3.268-8.445 6.573-16.962 11.55-24.527a17.288 17.288 0 0 1 4.939-5.37c2.018-1.269 4.817-1.817 7-.615 2.137 1.178 2.532 4.106 2.875 6.345.371 2.416-.544 4.85-1.171 7.154a94.16 94.16 0 0 1-3.187 9.849" class="cls-8" transform="translate(-67.069 -32.888)"/>
        <path id="패스_18021" d="M2109.991 753.67a106.3 106.3 0 0 0 1.561 11.243s1.044 3.662-3.069 4-20.808.068-20.808.068a3.354 3.354 0 0 1-1.315-.315c-.311-.127-.66-.356-.666-.723a.684.684 0 0 1 .3-.55 1.715 1.715 0 0 1 .571-.225 2.363 2.363 0 0 1-.959-.3.987.987 0 0 1-.457-.916.924.924 0 0 1 .578-.693 2.3 2.3 0 0 1 .884-.121l-.72-.169a1.731 1.731 0 0 1-.649-.25.716.716 0 0 1-.3-.643c.05-.354.4-.537.705-.66l.988-.4a2.115 2.115 0 0 1-1.336-.122 1.145 1.145 0 0 1-.844-.606 1.037 1.037 0 0 1 .354-1.034 2.908 2.908 0 0 1 1.894-.666 11.038 11.038 0 0 0 2.017-.14c1.651-.061 3.306-.2 4.946-.406 2.264-.28 6.179-.2 5.784-3.376a9.285 9.285 0 0 0-.835-2.5q-1.067-2.456-1.893-5.007a1.462 1.462 0 0 1 0-1.283 1.413 1.413 0 0 1 .693-.438 29.053 29.053 0 0 1 7.279-1.63 4.39 4.39 0 0 1 3.421.646 4.471 4.471 0 0 1 1.139 2.533c.322 1.551.548 3.115.739 4.682" class="cls-8" transform="translate(-79.104 -125.115)"/>
        <path id="패스_18022" d="M2085.241 778.737a.147.147 0 0 1-.105-.251 2.4 2.4 0 0 1 2.44-.621.147.147 0 0 1-.093.28 2.1 2.1 0 0 0-2.135.547.148.148 0 0 1-.106.045z" class="cls-13" transform="translate(-79.421 -139.707)"/>
        <path id="패스_18023" d="M2087.371 781.381a.147.147 0 0 1-.033-.291l.959-.217a.148.148 0 0 1 .176.112.147.147 0 0 1-.112.176l-.958.217h-.032z" class="cls-13" transform="translate(-80.392 -141.128)"/>
        <path id="패스_18024" d="M2126.569 772.652a1.3 1.3 0 0 1-.316-.039 1.225 1.225 0 0 1-.843-.688.148.148 0 1 1 .27-.12.934.934 0 0 0 .643.522.991.991 0 0 0 .845-.173 1.647 1.647 0 0 0 .387-1.814.148.148 0 0 1 .084-.192.15.15 0 0 1 .191.084 1.929 1.929 0 0 1-.478 2.151 1.257 1.257 0 0 1-.783.267z" class="cls-13" transform="translate(-97.776 -136.237)"/>
        <path id="패스_18025" d="M2077.465 657.791c.642 1.784 1.341 3.546 1.881 5.369.884 2.988.95 6.275 1.525 9.373 1.455 7.832 4.238 15.19 6.283 22.842.426 1.593.937 3.314 2.276 4.275 1.127.81 2.8 1.059 3.354 2.332.323.743.187 1.723.8 2.252a2.077 2.077 0 0 0 .85.376 16.37 16.37 0 0 0 6.618.332 21.769 21.769 0 0 0 4.167-.866c2.057-.769 1.309-2.188 1.431-3.983.1-1.514 1.74-3.173 2.3-4.659a14.885 14.885 0 0 0 .575-6.679 67.015 67.015 0 0 0-2.218-11.144 72.739 72.739 0 0 1-2.188-13.3c1.7 1.976 2.495-2.8 2.8-3.389.948-1.824 1.534-1.924 3.441-2.3a54.883 54.883 0 0 1 14.612-1.219 4.037 4.037 0 0 1 1.53.29 4.219 4.219 0 0 1 1.344 1.221q1.738 2.134 3.317 4.4c4.042 5.809 6.572 10.763 7.428 17.859a17.408 17.408 0 0 0 .989 4.626c1.026 2.469 3.118 4.262 4.375 6.609 2.031 3.789 2.458 8.151 2.811 12.363.16 1.923.3 3.8.271 5.711-.033 2.158-.291 4.756.54 6.792a5.619 5.619 0 0 0 3.672 3.248 2.63 2.63 0 0 1 1.017.4c.861.706.194 2.172.68 3.174.461.953 1.728 1.11 2.787 1.13 3.273.059 6.668-.018 9.63-1.413a1.2 1.2 0 0 0 .615-.5c.364-.762-.176-2.175-.324-2.924a1.528 1.528 0 0 1-.04-.55 1.767 1.767 0 0 1 .684-.91 8.291 8.291 0 0 0 2.4-4.795 14.726 14.726 0 0 0-.388-6.095c-.576-2.543-.365-5.428-.569-8.031q-.675-8.588-2.115-17.094a13.414 13.414 0 0 1-.292-3.5c.091-.966.4-1.9.518-2.859a14.567 14.567 0 0 0-.453-4.762c-.944-4.472-2.177-8.936-3.005-13.424-.292-1.583-.094-3.06-.57-4.643a31.572 31.572 0 0 0-2.368-5.311c-1.224-2.366-2-5.141-3.469-7.332a20.411 20.411 0 0 0-3.354-3.58 2.682 2.682 0 0 0-2.832-.839c-7.561 1.045-15.141.255-22.793 1.441-7.086 1.1-14.213-.636-21.3-.768-7.45-.138-14.841 1.158-22.166 2.444a13 13 0 0 0-5.1 1.651c-3.477 2.32-4.224 7.469-3.351 11.723a33.62 33.62 0 0 0 1.373 4.632" class="cls-7" transform="translate(-75.13 -75.354)"/>
        <path id="패스_18026" d="M2100.995 600.384c5.2-4.961 12.275-7.681 19.421-8.468s14.389.247 21.354 2.03a31.3 31.3 0 0 1 8.473 3.169c2.981 1.8 4.914 4.935 7.113 7.558a6.668 6.668 0 0 1 1.511 2.451c.438 1.645-.42 3.327-1.25 4.814 1.655.315 2.458 2.44 1.889 4.025a6.316 6.316 0 0 1-3.618 3.325c-9 3.962-17.819 7.228-27.8 7.611a47.234 47.234 0 0 1-13.345-1.028c-4.169-1.075-8.172-2.654-12.508-3.171-2.349-.28-4.249-.379-6.347-1.5a5.459 5.459 0 0 1-2.333-2.079c-.119-.208-.837-2.73-.6-2.673a2.562 2.562 0 0 1-1.782-2.324 4.538 4.538 0 0 1 .972-2.909 23 23 0 0 1 2.106-2.312c2.512-2.638 4.1-5.987 6.75-8.518" class="cls-8" transform="translate(-82.156 -54.971)"/>
        <path id="패스_18027" d="M2164.121 491.44a2.166 2.166 0 0 1-2.037-1.8c-.051-.231-.028-2.834.3-2.923-.638.174-1.263-.489-1.291-1.15a2.881 2.881 0 0 1 .756-1.792 13.111 13.111 0 0 1 1.647-1.775 3.093 3.093 0 0 1-2.2.5.506.506 0 0 1-.265-.154.527.527 0 0 1-.037-.474 2.748 2.748 0 0 1 1.334-1.494c.591-.344 1.241-.578 1.828-.93 1.537-.926 1.669-2.651 2.939-3.666a1.581 1.581 0 0 1 1.722-.241 3.177 3.177 0 0 1 3.11-1.005 13.8 13.8 0 0 1 3.482 1.028c2.743 1.082 5.265 2.576 7.951 3.714 1.336.565 2.916.958 3.814 2.186a3.257 3.257 0 0 1 .547 2.8c-.069.268-.4.7-.4.952a14.761 14.761 0 0 1-1.518 1.9 4.112 4.112 0 0 0-1.059 2.254 7.68 7.68 0 0 1-.1 1.462 2.638 2.638 0 0 1-2.2 1.652c-.8.138-1.6.02-2.4.107-.653.071-1.282.247-1.953.293-4.41.307-9.565-1.709-13.978-1.448" class="cls-6" transform="translate(-113.959 -1.632)"/>
        <path id="패스_18028" d="M2152.7 553.727c0 3.4.581 6.814.577 10.232 0 3.149.057 6.241-.073 9.414a.372.372 0 0 1-.081.261.366.366 0 0 1-.254.066c-3.645.027-7.085-1.2-10.669-1.5-4.109-.351-8.2-.822-12.32-1.076a94.117 94.117 0 0 0-24.5 1.185c-3.468.7-6.871 1.689-10.268 2.677-4.253 1.234-8.728 3.112-13.215 3.063a.49.49 0 0 1-.288-.064.51.51 0 0 1-.158-.358c-1.632-10.828 1.166-21.363 3.89-31.781a.87.87 0 0 0 .041-.387c-.073-.371-3.4-2.58-3.991-3.01-1.618-1.18-3.492-2.03-5.152-3.16-.375-.256-.785-.576-.8-1.012a1.413 1.413 0 0 1 .364-.826c6.046-8.225 14.65-18.205 25.68-20.233 3.967-.729 7.993-1.165 12.021-1.529 1.481-.134 3.478.092 4.537-.864 1.085-.979 1.757-1.935 3.489-2.026.917-.047 1.782-.033 2.7-.053l2.554-.054a6.656 6.656 0 0 1 3.521.567c2.1 1.244 3.483 2.976 5.563 4.254 3.935 2.418 9.253 2.623 13.742 4.866a31.137 31.137 0 0 1 12.24 10.755 3.331 3.331 0 0 1 .7 1.816 3.147 3.147 0 0 1-.382 1.258 16.8 16.8 0 0 1-7.955 7.773 7.082 7.082 0 0 0-1.719.968c-2.286 2.014-.06 6.3.211 8.781" class="cls-5" transform="translate(-74.989 -19.038)"/>
        <path id="패스_18029" d="M2153.053 514.057a5.649 5.649 0 0 0-1.282 2.711 6.547 6.547 0 0 0 1.558 5.165 13 13 0 0 0 4.874 3.267 12.45 12.45 0 0 0 6.231 1.385 6.453 6.453 0 0 0 3.809-1.628 5.75 5.75 0 0 0 1.857-3.68 6.807 6.807 0 0 0-1.989-5.144 13.221 13.221 0 0 0-4.769-3.01 14.018 14.018 0 0 0-3.99-1.045c-2.059-.176-4.859.384-6.3 1.978" class="cls-4" transform="translate(-109.739 -18.75)"/>
        <path id="패스_18030" d="M2180.969 491.1c-.571 1.061-1.143 2.206-1.713 3.268a2.444 2.444 0 0 1 1.457.3 1.483 1.483 0 0 1 .552 1.359 2.441 2.441 0 0 1-.671 1.355 4.751 4.751 0 0 1-3.548 1.093c-.466 0-.984 1.753-1.113 2.085a11.917 11.917 0 0 1-1.208 2.314 14.84 14.84 0 0 1-3.339 3.315 2.855 2.855 0 0 0-1.1 1.344 4.771 4.771 0 0 1-1.241 1.823c-1.418 1.258-3.832 1.459-5.641 1.178a20.46 20.46 0 0 1-5.872-2.225 4.555 4.555 0 0 1-2.179-2.465 7.3 7.3 0 0 1-.768-3.224 4.11 4.11 0 0 1 .9-2.254c.442-.535 1.047-.94 1.437-1.519.426-.636.209-1.363.5-2.057.315-.746.984-1.22 1.33-1.962a15.339 15.339 0 0 1 1.286-2.242c.494-.717 1.6-1.551 1.875-2.324-.743-.334-1.465-.35-1.927-1.117a4.346 4.346 0 0 1-.4-2.871 4.211 4.211 0 0 1 .75-2 2.057 2.057 0 0 1 1.882-.834 2.137 2.137 0 0 1 1.424 1.095 5.758 5.758 0 0 1 .568 1.758c-.1 0 .24-.187.294-.272a31.77 31.77 0 0 1 2.591-3.526 7.753 7.753 0 0 1 7.371 2.432c1.035 1.187 1.69 2.658 2.634 3.919a4.8 4.8 0 0 0 3.87 2.258" class="cls-8" transform="translate(-111.05 -5.202)"/>
        <path id="패스_18031" d="M2169.41 491.576a.076.076 0 0 1-.041-.012 2.659 2.659 0 0 1-1.089-2.8.074.074 0 0 1 .143.036 2.509 2.509 0 0 0 1.027 2.637.074.074 0 0 1 .022.1.076.076 0 0 1-.062.033z" class="cls-13" transform="translate(-117.273 -8.112)"/>
        <path id="패스_18032" d="M2194.367 509.712a.072.072 0 0 1-.036-.009.073.073 0 0 1-.028-.1l3-5.251a.074.074 0 1 1 .128.073l-3 5.251a.072.072 0 0 1-.063.037z" class="cls-13" transform="translate(-129.151 -15.224)"/>
        <path id="패스_18033" d="M2186.152 508.2a.074.074 0 0 1-.01-.147l1.312-.181a.745.745 0 0 0 .393-.133.732.732 0 0 0 .159-.262c.492-1.146.947-2.323 1.351-3.5a.074.074 0 0 1 .139.048c-.406 1.18-.861 2.361-1.355 3.51a.858.858 0 0 1-.2.315.867.867 0 0 1-.471.168l-1.312.182z" class="cls-13" transform="translate(-125.41 -15.048)"/>
        <path id="패스_18034" d="M2185.156 510.166a.074.074 0 0 1-.074-.072.074.074 0 0 1 .072-.075 5.457 5.457 0 0 0 1.1-.134.074.074 0 1 1 .033.144 5.6 5.6 0 0 1-1.135.138z" class="cls-13" transform="translate(-124.957 -17.763)"/>
        <path id="패스_18035" d="M2196.97 500.134c-.038.134.111.24.236.3l.786.372c.1.045.217.088.3.022a.2.2 0 0 0 .031-.242.52.52 0 0 0-.194-.177c-.164-.1-1.045-.674-1.158-.275" class="cls-13" transform="translate(-130.369 -13.255)"/>
        <path id="패스_18036" d="M2195.527 503.735c-.03.145 0 .33.135.386a.336.336 0 0 0 .291-.052c.24-.141.767-.811.39-1.058-.348-.228-.761.466-.815.724" class="cls-13" transform="translate(-129.709 -14.61)"/>
        <path id="패스_18037" d="M2183.541 492.865c-.037.134.11.241.237.3l.785.372c.1.045.217.089.3.022a.2.2 0 0 0 .03-.242.52.52 0 0 0-.194-.177c-.163-.1-1.045-.674-1.158-.275" class="cls-13" transform="translate(-124.253 -9.941)"/>
        <path id="패스_18038" d="M2181.987 496.854c-.03.145 0 .33.134.386a.335.335 0 0 0 .291-.052c.24-.142.767-.811.39-1.058-.347-.228-.761.466-.814.724" class="cls-13" transform="translate(-123.543 -11.473)"/>
        <path id="패스_18039" d="M2198.413 508.375a2.276 2.276 0 0 1-.552-.067.2.2 0 0 1-.146-.127.109.109 0 0 1 .033-.11.073.073 0 0 1 .119.079.085.085 0 0 0 .029.014 2.178 2.178 0 0 0 1.809-.359.074.074 0 0 1 .1.016.073.073 0 0 1-.016.1 2.329 2.329 0 0 1-1.38.452z" class="cls-13" transform="translate(-130.708 -16.809)"/>
        <path id="패스_18040" d="M2176.39 521.7a.079.079 0 0 1-.033-.007c-1.338-.659-2.659-1.395-3.926-2.185a.074.074 0 1 1 .078-.125c1.263.788 2.58 1.52 3.913 2.178a.074.074 0 0 1-.032.14z" class="cls-13" transform="translate(-119.179 -22.087)"/>
        <path id="패스_18041" d="M2170.131 517.909a.074.074 0 0 1-.044-.014l-.851-.626a.073.073 0 0 1-.016-.1.075.075 0 0 1 .1-.016l.852.625a.074.074 0 0 1 .016.1.072.072 0 0 1-.059.03z" class="cls-13" transform="translate(-117.727 -21.07)"/>
        <path id="패스_18042" d="M2170.984 510.211a5.039 5.039 0 0 1-1-.1.074.074 0 0 1-.058-.087.076.076 0 0 1 .087-.058c2.01.408 4.818-.523 5.792-2.56a.074.074 0 0 1 .1-.035.073.073 0 0 1 .035.1 5.552 5.552 0 0 1-4.952 2.738z" class="cls-13" transform="translate(-118.052 -16.617)"/>
        <path id="패스_18043" d="M2180.063 513.529a.07.07 0 0 1-.037-.01 4.112 4.112 0 0 1-1.474-1.495.074.074 0 1 1 .127-.073 3.981 3.981 0 0 0 1.421 1.441.074.074 0 0 1-.038.137z" class="cls-13" transform="translate(-121.979 -18.688)"/>
        <path id="패스_18044" d="M2179.26 514.093a.075.075 0 0 1-.042-.013 2.357 2.357 0 0 1-.486-.456.075.075 0 0 1 .012-.1.074.074 0 0 1 .1.011 2.225 2.225 0 0 0 .455.428.074.074 0 0 1-.042.134z" class="cls-13" transform="translate(-122.059 -19.414)"/>
        <path id="패스_18045" d="M2183.311 515.574a.072.072 0 0 1-.073-.071 4.637 4.637 0 0 1 .525-2.3.074.074 0 0 1 .131.069 4.484 4.484 0 0 0-.509 2.224.074.074 0 0 1-.071.076z" class="cls-13" transform="translate(-124.117 -19.259)"/>
        <path id="패스_18046" d="M2160.7 516.7a.076.076 0 0 1-.066-.041 13.422 13.422 0 0 1-1.269-3.872 6.869 6.869 0 0 1-.017-1.711.074.074 0 0 1 .147.013 6.588 6.588 0 0 0 .016 1.676 13.24 13.24 0 0 0 1.255 3.829.073.073 0 0 1-.033.1.08.08 0 0 1-.033.008z" class="cls-13" transform="translate(-113.217 -18.277)"/>
        <path id="패스_18047" d="M2157.167 515.274h-.013a.074.074 0 0 1-.06-.085 6 6 0 0 1 .629-1.848.075.075 0 0 1 .1-.03.074.074 0 0 1 .03.1 5.834 5.834 0 0 0-.614 1.8.074.074 0 0 1-.073.062z" class="cls-13" transform="translate(-112.211 -19.321)"/>
        <path id="패스_18048" d="M2180.912 527.817a2.913 2.913 0 0 1-.487-.041.073.073 0 0 1-.06-.084.072.072 0 0 1 .085-.061 2.908 2.908 0 0 0 1.976-.386.074.074 0 0 1 .077.126 3.051 3.051 0 0 1-1.59.447z" class="cls-13" transform="translate(-122.808 -25.673)"/>
        <path id="패스_18049" d="M2175.223 474.246a.148.148 0 0 1-.143-.109 3.009 3.009 0 0 1 1.116-3.151.148.148 0 0 1 .174.239 2.742 2.742 0 0 0-1 2.835.149.149 0 0 1-.1.181.179.179 0 0 1-.038 0z" class="cls-10" transform="translate(-120.359 -.019)"/>
        <path id="패스_18050" d="M2173.861 474.841h-.019a2.1 2.1 0 0 1-1.746-2.374.148.148 0 1 1 .291.053 1.805 1.805 0 0 0 1.491 2.027.147.147 0 0 1-.017.294z" class="cls-10" transform="translate(-119.03 -.651)"/>
        <path id="패스_18051" d="M2093.062 566.469a.163.163 0 0 1-.039-.005.149.149 0 0 1-.1-.182c.585-2.119 1.117-4.029 1.719-5.958.3-.973.672-1.935 1.027-2.865.26-.68.529-1.383.771-2.084a.148.148 0 0 1 .187-.091.147.147 0 0 1 .091.187c-.243.706-.512 1.411-.773 2.093-.354.925-.72 1.883-1.021 2.847-.6 1.924-1.133 3.832-1.717 5.948a.148.148 0 0 1-.142.109z" class="cls-4" transform="translate(-82.983 -38.415)"/>
        <path id="패스_18052" d="M2100.2 548.914a.147.147 0 0 1-.137-.2c.788-1.9 1.649-3.783 2.561-5.61a.147.147 0 1 1 .264.132c-.909 1.821-1.767 3.7-2.552 5.59a.147.147 0 0 1-.136.091z" class="cls-4" transform="translate(-86.235 -32.835)"/>
        <path id="패스_18053" d="M2096.891 554.971a.146.146 0 0 1-.146-.131 27.35 27.35 0 0 1 .312-8.419.148.148 0 1 1 .29.057 27.052 27.052 0 0 0-.31 8.328.147.147 0 0 1-.129.164z" class="cls-4" transform="translate(-84.642 -34.33)"/>
        <path id="패스_18054" d="M2211.824 567.23h-.022a.147.147 0 0 1-.124-.168 4.429 4.429 0 0 0-.292-3.213l-3.363-7.835a.147.147 0 1 1 .271-.116l3.363 7.835a6.169 6.169 0 0 1 .361.995 6.263 6.263 0 0 1-.049 2.379.146.146 0 0 1-.145.126z" class="cls-4" transform="translate(-135.398 -38.657)"/>
        <path id="패스_18055" d="M2090.275 616.451a.138.138 0 0 1-.062-.014.147.147 0 0 1-.072-.2 24.083 24.083 0 0 1 11.527-11.6.148.148 0 1 1 .125.267 23.782 23.782 0 0 0-11.384 11.452.147.147 0 0 1-.134.086z" class="cls-4" transform="translate(-81.711 -60.892)"/>
        <path id="패스_18056" d="M2137.176 593.287a.148.148 0 0 1-.034-.291 46.8 46.8 0 0 1 13.61-1.191.148.148 0 0 1 .139.156.146.146 0 0 1-.156.138 46.515 46.515 0 0 0-13.524 1.183.125.125 0 0 1-.034 0z" class="cls-4" transform="translate(-103.068 -55.016)"/>
        <path id="패스_18057" d="M2147.836 595.092a.147.147 0 0 1-.011-.294 36.533 36.533 0 0 1 4.477-.091.148.148 0 0 1 .141.154.154.154 0 0 1-.153.141 36.253 36.253 0 0 0-4.441.09z" class="cls-4" transform="translate(-107.927 -56.361)"/>
        <path id="패스_18058" d="M2175.552 595.847a.144.144 0 0 1-.072-.019 25.7 25.7 0 0 0-10.117-3.166.148.148 0 0 1-.133-.161.153.153 0 0 1 .161-.133 25.994 25.994 0 0 1 10.233 3.2.147.147 0 0 1-.073.276z" class="cls-4" transform="translate(-115.912 -55.309)"/>
        <path id="패스_18059" d="M2215.609 568.75a.147.147 0 0 1-.116-.239 4.13 4.13 0 0 1 1.945-1.138l.268-.1a13.237 13.237 0 0 0 5.094-3.421.149.149 0 0 1 .208-.009.147.147 0 0 1 .009.209 13.535 13.535 0 0 1-5.207 3.5l-.27.1a3.911 3.911 0 0 0-1.815 1.045.147.147 0 0 1-.115.055z" class="cls-4" transform="translate(-138.789 -42.302)"/>
        <path id="패스_18060" d="M2230.453 558.295a.144.144 0 0 1-.094-.035.148.148 0 0 1-.019-.208 14.3 14.3 0 0 0 2.75-4.627.147.147 0 1 1 .28.094 14.59 14.59 0 0 1-2.8 4.724.147.147 0 0 1-.113.052z" class="cls-4" transform="translate(-145.552 -37.528)"/>
        <path id="패스_18061" d="M2174 567.888h-21.321a1.949 1.949 0 0 1-1.95-1.95v-1.252a1.949 1.949 0 0 1 1.95-1.949H2174a1.949 1.949 0 0 1 1.95 1.949v1.252a1.95 1.95 0 0 1-1.95 1.95" class="cls-10" transform="translate(-109.3 -41.815)"/>
        <path id="패스_18062" d="M2149.3 561.216a1.131 1.131 0 0 0 .149.67 1.354 1.354 0 0 0 1.17.423 9.351 9.351 0 0 0 2.592-.371 4.2 4.2 0 0 1 2.552-.31 3.868 3.868 0 0 1 1.515 1.357 6.1 6.1 0 0 0 2.449 1.963 2.83 2.83 0 0 0 2.963-.478c.365-.367.589-.853.938-1.235a3.715 3.715 0 0 1 3.492-.826c1.226.251 2.361.83 3.571 1.154a3.094 3.094 0 0 0 1.7.073 1.376 1.376 0 0 0 1.023-1.234 3.523 3.523 0 0 1 .06-1.49c.216-.649.828-1.172.344-1.9-.365-.551-1.137-.607-1.8-.621-6.229-.137-12.456-1.6-18.638-.829-2.171.27-4.01 1.215-4.078 3.654" class="cls-6" transform="translate(-108.651 -39.355)"/>
        <path id="패스_18063" d="M2158.8 563.5l16.521 4.6 3.4-6.159-19.921 1.559z" class="cls-11" transform="translate(-112.981 -41.453)"/>
        <path id="패스_18064" d="M2174 560.208h-21.321a1.949 1.949 0 0 1-1.95-1.95v-1.252a1.95 1.95 0 0 1 1.95-1.95H2174a1.95 1.95 0 0 1 1.95 1.95v1.252a1.95 1.95 0 0 1-1.95 1.95" class="cls-12" transform="translate(-109.3 -38.317)"/>
        <path id="패스_18065" d="M2149.3 551.736a1.128 1.128 0 0 0 .149.67 1.354 1.354 0 0 0 1.17.423 9.35 9.35 0 0 0 2.592-.371 4.21 4.21 0 0 1 2.552-.311 3.875 3.875 0 0 1 1.515 1.357 6.106 6.106 0 0 0 2.449 1.963 2.831 2.831 0 0 0 2.963-.478c.365-.367.589-.853.938-1.235a3.713 3.713 0 0 1 3.492-.826c1.226.25 2.361.83 3.571 1.155a3.1 3.1 0 0 0 1.7.073 1.376 1.376 0 0 0 1.023-1.233c0-.348-.182-.7-.094-1.032.189-.72 1.226-.641 1.9-.954 1.115-.516 1.081-2.259.225-3.141a5.772 5.772 0 0 0-3.37-1.318 55.183 55.183 0 0 0-10.212-.9c-3.534.105-12.421 1.118-12.561 6.155" class="cls-6" transform="translate(-108.65 -33.994)"/>
        <path id="패스_18066" d="M2162.888 542.914l-10.5-.065a2.624 2.624 0 0 1-2.545-3.244 13.458 13.458 0 0 1 26.111.078 2.624 2.624 0 0 1-2.565 3.231z" class="cls-10" transform="translate(-108.861 -26.655)"/>
        <path id="패스_18067" d="M2165.8 554.217h-12.569a.147.147 0 1 1 0-.295h12.569a.147.147 0 1 1 0 .295z" class="cls-13" transform="translate(-110.381 -37.801)"/>
        <path id="패스_18068" d="M2185.353 554.217h-6.788a.147.147 0 1 1 0-.295h6.788a.147.147 0 1 1 0 .295z" class="cls-13" transform="translate(-121.919 -37.801)"/>
        <path id="패스_18069" d="M2187.755 559a4.39 4.39 0 0 1-.769-.078 9.017 9.017 0 0 1-2.686-.922.147.147 0 1 1 .138-.26 8.76 8.76 0 0 0 2.6.895 2.864 2.864 0 0 0 1.306-.007 1.147 1.147 0 0 0 .832-.818 2.108 2.108 0 0 0-.016-.635 1.338 1.338 0 0 1 .161-1.068 1.413 1.413 0 0 1 .711-.394.146.146 0 0 1 .185.1.149.149 0 0 1-.1.184 1.144 1.144 0 0 0-.569.3 1.1 1.1 0 0 0-.1.847 2.332 2.332 0 0 1 .014.726 1.445 1.445 0 0 1-1.037 1.045 2.327 2.327 0 0 1-.674.092z" class="cls-10" transform="translate(-124.563 -38.613)"/>
        <path id="패스_18070" d="M2166.759 568.962a3.807 3.807 0 0 1-.855-.1 4.408 4.408 0 0 1-2.075-1.348c-.161-.167-.316-.34-.472-.512a8.964 8.964 0 0 0-1.219-1.188.147.147 0 0 1 .177-.236 9.239 9.239 0 0 1 1.26 1.226c.155.17.308.341.467.506a4.14 4.14 0 0 0 1.927 1.265 2.211 2.211 0 0 0 2.6-.887.148.148 0 1 1 .244.167 2.354 2.354 0 0 1-2.051 1.113z" class="cls-13" transform="translate(-114.479 -43.093)"/>
        <path id="패스_18071" d="M2175.2 569.429a.142.142 0 0 1-.039-.005l-16.521-4.6a.147.147 0 1 1 .079-.284l16.522 4.6a.148.148 0 0 1-.04.29z" class="cls-14" transform="translate(-112.858 -42.631)"/>
        <path id="패스_18072" d="M2163.358 564.548h-9.173a.147.147 0 0 1 0-.295h9.173a.147.147 0 0 1 0 .295z" class="cls-10" transform="translate(-110.816 -42.506)"/>
        <path id="패스_18073" d="M2179.37 564.548h-5.27a.147.147 0 0 1 0-.295h5.269a.147.147 0 0 1 0 .295z" class="cls-10" transform="translate(-119.887 -42.506)"/>
        <path id="패스_18074" d="M2168.392 539.753a.217.217 0 0 1-.127-.041.22.22 0 0 1-.052-.309 4.147 4.147 0 0 0 .615-1.287.221.221 0 0 1 .426.12 4.6 4.6 0 0 1-.681 1.423.22.22 0 0 1-.181.093z" class="cls-7" transform="translate(-117.256 -30.56)"/>
        <path id="패스_18075" d="M2172.706 542.161a.22.22 0 0 1-.16-.068 3.158 3.158 0 0 1-.679-1.087.221.221 0 0 1 .416-.152 2.684 2.684 0 0 0 .582.933.221.221 0 0 1-.159.374z" class="cls-7" transform="translate(-118.933 -31.815)"/>
        <path id="패스_18076" d="M2174.683 538.327a.22.22 0 0 1-.183-.344l.574-.856a.221.221 0 1 1 .367.247l-.574.855a.223.223 0 0 1-.184.1z" class="cls-7" transform="translate(-120.121 -30.138)"/>
        <path id="패스_18077" d="M2181.374 539.612h-.023a3.171 3.171 0 0 1-1.542-.59.221.221 0 1 1 .26-.358 2.73 2.73 0 0 0 1.327.508.221.221 0 0 1-.022.441z" class="cls-7" transform="translate(-122.514 -30.863)"/>
        <path id="패스_18078" d="M2179.421 534.813a.221.221 0 0 1-.138-.395 9.468 9.468 0 0 0 1.187-1.117.221.221 0 1 1 .33.295 9.914 9.914 0 0 1-1.242 1.169.219.219 0 0 1-.136.047z" class="cls-7" transform="translate(-122.278 -28.405)"/>
        <path id="패스_18079" d="M2161.915 537.822a.226.226 0 0 1-.047 0l-1-.214a.221.221 0 1 1 .093-.433l1 .214a.221.221 0 0 1-.046.438z" class="cls-7" transform="translate(-113.851 -30.2)"/>
        <path id="패스_18080" d="M2164.474 544.237a.221.221 0 0 1-.159-.375l.706-.722a.221.221 0 1 1 .317.31l-.705.721a.22.22 0 0 1-.158.067z" class="cls-7" transform="translate(-115.472 -32.893)"/>
        <path id="패스_18081" d="M2167.739 534.2h-.786a.221.221 0 0 1 0-.442h.786a.221.221 0 1 1 0 .442z" class="cls-7" transform="translate(-116.601 -28.645)"/>
        <path id="패스_18082" d="M2172.731 533.479a.223.223 0 0 1-.085-.017.221.221 0 0 1-.12-.289l.357-.857a.221.221 0 1 1 .408.17l-.357.857a.221.221 0 0 1-.2.136z" class="cls-7" transform="translate(-119.232 -27.927)"/>
        <path id="패스_18083" d="M2179.659 543.227a.218.218 0 0 1-.113-.031 1.646 1.646 0 0 1-.576-.58.221.221 0 0 1 .382-.224 1.206 1.206 0 0 0 .421.424.221.221 0 0 1-.113.411z" class="cls-7" transform="translate(-122.16 -32.533)"/>
        <path id="패스_18084" d="M2188.354 539.693a.221.221 0 0 1-.084-.426l.859-.351a.221.221 0 1 1 .168.409l-.86.351a.217.217 0 0 1-.084.017z" class="cls-7" transform="translate(-126.346 -30.991)"/>
        <path id="패스_18085" d="M2191.557 543.6a1.076 1.076 0 0 1-.729-.284.221.221 0 0 1 .3-.325.654.654 0 0 0 .474.165.221.221 0 0 1 .031.441h-.076z" class="cls-7" transform="translate(-127.542 -32.83)"/>
        <path id="패스_18086" d="M2154.572 542.674a.213.213 0 0 1-.07-.011.222.222 0 0 1-.14-.28l.326-.987a.221.221 0 0 1 .42.139l-.325.988a.222.222 0 0 1-.21.151z" class="cls-7" transform="translate(-110.962 -32.06)"/>
        <path id="패스_18087" d="M2159.605 544.9a.218.218 0 0 1-.053-.007.222.222 0 0 1-.162-.268l.209-.858a.221.221 0 0 1 .43.1l-.209.859a.222.222 0 0 1-.215.168z" class="cls-7" transform="translate(-113.254 -33.098)"/>
        <path id="패스_18088" d="M2214.446 581.8a20.517 20.517 0 0 1 3.861 5.384c1.373 2.855 1.889 6.318.5 9.168a8.858 8.858 0 0 1-8.407 4.641c-6.274-.372-9.416-6.21-12.414-10.916-.8-1.255-8.913-14.764-10.473-17.11-.763-1.146-2.927-2.25-1.317-3.5a27.2 27.2 0 0 1 2.67-1.275c.908-.569 1.282-1.988 2.3-2.355a1.6 1.6 0 0 1 .958.048c5.442 1.5 9.447 6.2 13.938 9.275a54.341 54.341 0 0 1 8.381 6.64" class="cls-8" transform="translate(-125.184 -43.192)"/>
        <path id="패스_18089" d="M2187.327 577.35a5.074 5.074 0 0 0 .652.331 2.9 2.9 0 0 0 2.14.127c.555-.217.856-.751 1.366-.987.418-.2.945-.161 1.388-.393a4.164 4.164 0 0 0 1.955-2.329 5.882 5.882 0 0 0-.467-4.448 11.988 11.988 0 0 0-2.911-3.515 15.672 15.672 0 0 0-4.564-2.909c-1.556-.608-3.264-.8-4.871-1.266a.544.544 0 0 0-.5.023.467.467 0 0 0-.071.529 1.2 1.2 0 0 0 .365.42 12.066 12.066 0 0 0 1.162.843c.107.068.909.393.707.613a.184.184 0 0 1-.118.046 4.988 4.988 0 0 1-1.881-.372l-2.074-.574-2.073-.573a15.9 15.9 0 0 1-2.016-.557.618.618 0 0 0-.536.017.522.522 0 0 0-.115.582 1.314 1.314 0 0 0 .378.5 14.544 14.544 0 0 0 5.759 2.811c.1.032-.068.236-.167.209l-4.228-1.13a9.575 9.575 0 0 1-.947-.288 9.231 9.231 0 0 0-.886-.368.623.623 0 0 0-.374-.022c-.2.075-.224.271-.143.469a2.135 2.135 0 0 0 .977.954 14.651 14.651 0 0 0 1.537.788c.089.04 1.368.539 1.265.658a.286.286 0 0 1-.271.052 16.97 16.97 0 0 1-2.565-.605 1.308 1.308 0 0 0-.719-.094.511.511 0 0 0-.11.949 15.092 15.092 0 0 0 1.842 1.046c.316.153.635.3.958.439a5.117 5.117 0 0 1 .689.311.806.806 0 0 1-.47.046l-.65-.066c-.289-.029-1.477-.115-1.3.51.139.483 1.164.671 1.53.772 1.36.374 2.779.625 4.116 1.023a7.407 7.407 0 0 1 3.237 2.488 13.511 13.511 0 0 0 3 2.946" class="cls-8" transform="translate(-119.944 -41.436)"/>
        <path id="패스_18090" d="M2066.872 578.452a20.532 20.532 0 0 0-5.392 3.851c-2.221 2.258-3.827 5.371-3.436 8.515a8.862 8.862 0 0 0 6.459 7.106c6.06 1.672 10.917-2.841 15.273-6.328 1.161-.929 13.2-11.1 15.434-12.815 1.093-.84 3.5-1.186 2.376-2.889-.564-.859-1.49-1.3-2.115-2.068-.675-.831-.573-2.295-1.416-2.97a1.594 1.594 0 0 0-.923-.264c-5.635-.335-10.941 2.82-16.185 4.283a54.262 54.262 0 0 0-10.075 3.58" class="cls-8" transform="translate(-67.065 -45.373)"/>
        <path id="패스_18091" d="M2108.875 582.267a5 5 0 0 1-.724.1 2.9 2.9 0 0 1-2.067-.569c-.455-.385-.568-.987-.974-1.375-.333-.319-.843-.457-1.187-.82a4.162 4.162 0 0 1-1.1-2.834 5.878 5.878 0 0 1 1.877-4.06 11.964 11.964 0 0 1 3.889-2.388 15.671 15.671 0 0 1 5.259-1.283c1.668-.073 3.349.293 5.018.375a.545.545 0 0 1 .471.184.469.469 0 0 1-.1.523 1.211 1.211 0 0 1-.481.28 11.793 11.793 0 0 1-1.373.423c-.122.03-.986.079-.866.352a.187.187 0 0 0 .1.082 5.021 5.021 0 0 0 1.9.254l2.148.126 2.146.126a16.057 16.057 0 0 0 2.088.123.616.616 0 0 1 .5.188.521.521 0 0 1-.078.589 1.312 1.312 0 0 1-.518.348 14.555 14.555 0 0 1-6.357.8c-.1 0-.013.244.09.251l4.365.3a9.676 9.676 0 0 0 .99.032 9.461 9.461 0 0 1 .958-.062.621.621 0 0 1 .363.1c.166.135.124.329-.016.49a2.133 2.133 0 0 1-1.233.588 14.3 14.3 0 0 1-1.708.25c-.1.009-1.469.069-1.41.214.038.093.145.12.24.137a17.061 17.061 0 0 0 2.624.255 1.317 1.317 0 0 1 .712.143.512.512 0 0 1-.2.934 15.051 15.051 0 0 1-2.081.4c-.349.044-.7.081-1.049.106a5.294 5.294 0 0 0-.752.072.81.81 0 0 0 .43.195l.637.147c.282.066 1.435.367 1.063.9-.287.412-1.318.259-1.7.237-1.407-.085-2.832-.3-4.226-.359a7.418 7.418 0 0 0-3.867 1.31 13.479 13.479 0 0 1-3.795 1.82" class="cls-8" transform="translate(-87.489 -44.679)"/>
        <path id="패스_18092" d="M2154.059 635.928a.829.829 0 0 1-.31-.053.892.892 0 0 1-.3-.212 1.455 1.455 0 0 1-.436-1.3 1.967 1.967 0 0 1 1.087-1.377.073.073 0 0 1 .065.132 1.822 1.822 0 0 0-1.007 1.269 1.317 1.317 0 0 0 .4 1.174.732.732 0 0 0 .247.178.718.718 0 0 0 .317.041 1.309 1.309 0 0 0 1.05-.634.927.927 0 0 0-.009-.928.729.729 0 0 0-.525-.366.524.524 0 0 0-.454.145.925.925 0 0 0-.276.4.443.443 0 0 0 .217.476.074.074 0 0 1 .031.1.072.072 0 0 1-.1.031.588.588 0 0 1-.291-.641 1.032 1.032 0 0 1 .316-.47.669.669 0 0 1 .578-.187.878.878 0 0 1 .633.441 1.071 1.071 0 0 1 .01 1.071 1.466 1.466 0 0 1-1.173.71h-.069z" class="cls-13" transform="translate(-110.344 -73.803)"/>
        <path id="패스_18093" d="M2104.65 637.636a9.766 9.766 0 0 1-3.337-.588c-.367-.134-.731-.292-1.083-.445a8.826 8.826 0 0 0-4.149-.928l-.553-.027-.154-.009a7.186 7.186 0 0 1-2.064-.311 7.786 7.786 0 0 1-.954-.444 2.277 2.277 0 0 1-.854-.787 3.1 3.1 0 0 1-.466-1.538.075.075 0 0 1 .07-.078.072.072 0 0 1 .078.07 2.936 2.936 0 0 0 .442 1.465 2.127 2.127 0 0 0 .8.736 7.793 7.793 0 0 0 .936.436 7.087 7.087 0 0 0 2.022.3l.154.008c.184.011.368.019.552.028a8.975 8.975 0 0 1 4.2.939c.35.152.712.309 1.075.441a9.6 9.6 0 0 0 5.129.4.076.076 0 0 1 .087.059.074.074 0 0 1-.058.086 9.756 9.756 0 0 1-1.871.181z" class="cls-13" transform="translate(-82.124 -73.577)"/>
        <path id="패스_18094" d="M2098.067 643.883a.078.078 0 0 1-.033-.008 8.288 8.288 0 0 1-1.849-1.241 3.721 3.721 0 0 1-.751-.856 3.993 3.993 0 0 1-.409-1.113.074.074 0 1 1 .143-.034 3.883 3.883 0 0 0 .392 1.072 3.567 3.567 0 0 0 .723.822 8.082 8.082 0 0 0 1.816 1.218.074.074 0 0 1-.033.14z" class="cls-13" transform="translate(-83.944 -77.262)"/>
        <path id="패스_18095" d="M2201.041 629.173a.074.074 0 0 1-.039-.137 10.467 10.467 0 0 1 1.177-.647 8.264 8.264 0 0 1 2.425-.667c.12-.015.244-.027.368-.041a5.844 5.844 0 0 0 2.084-.476 3.5 3.5 0 0 0 1.455-2.038c.051-.127.1-.254.155-.379a.074.074 0 0 1 .136.057q-.078.187-.153.377a3.613 3.613 0 0 1-1.524 2.114 6.058 6.058 0 0 1-2.136.491l-.367.04a8.114 8.114 0 0 0-2.381.656 10.214 10.214 0 0 0-1.159.638.073.073 0 0 1-.039.011z" class="cls-13" transform="translate(-132.189 -70.052)"/>
        <path id="패스_18096" d="M2194.418 635.283a.076.076 0 0 1-.062-.033.073.073 0 0 1 .02-.1 25.49 25.49 0 0 1 2.436-1.469.074.074 0 0 1 .069.131 25.4 25.4 0 0 0-2.423 1.46.073.073 0 0 1-.041.013z" class="cls-13" transform="translate(-129.175 -74.119)"/>
        <path id="패스_18097" d="M2170.177 645.791a.074.074 0 0 1-.069-.048.073.073 0 0 1 .043-.095 10.4 10.4 0 0 1 2.567-.48l3.3-.342a17.414 17.414 0 0 0 3.1-.511 5.917 5.917 0 0 0 2.58-1.452l.365-.369a12.93 12.93 0 0 1 2.1-1.851 9.178 9.178 0 0 1 4.786-1.031c.218-.007.435-.015.65-.026a9.274 9.274 0 0 0 2.7-.433 5.55 5.55 0 0 0 3.161-2.927.074.074 0 1 1 .135.06 5.7 5.7 0 0 1-3.246 3.006 9.425 9.425 0 0 1-2.742.442l-.652.026a9.057 9.057 0 0 0-4.709 1.006 12.811 12.811 0 0 0-2.078 1.832l-.365.369a6.078 6.078 0 0 1-2.644 1.49 17.675 17.675 0 0 1-3.125.516l-3.3.342a10.29 10.29 0 0 0-2.532.472.067.067 0 0 1-.025 0z" class="cls-13" transform="translate(-118.124 -75.259)"/>
        <path id="패스_18098" d="M2070.684 585.183a.074.074 0 0 1-.044-.133 49.855 49.855 0 0 1 11.909-6.741.074.074 0 0 1 .054.137 49.744 49.744 0 0 0-11.874 6.721.071.071 0 0 1-.044.016z" class="cls-13" transform="translate(-72.823 -48.904)"/>
        <path id="패스_18099" d="M2231.31 590.54a.075.075 0 0 1-.058-.028 61.1 61.1 0 0 0-11.086-10.159c-.67-.5-1.374-.99-2.053-1.464a41.973 41.973 0 0 1-4-3.034.074.074 0 0 1-.006-.1.075.075 0 0 1 .1-.006 41.879 41.879 0 0 0 3.982 3.023c.681.476 1.385.967 2.057 1.468a61.178 61.178 0 0 1 11.112 10.183.074.074 0 0 1-.01.1.077.077 0 0 1-.046.017z" class="cls-13" transform="translate(-138.16 -47.727)"/>
        <path id="패스_18100" d="M2106.913 757.854a.147.147 0 0 1-.136-.091 22.1 22.1 0 0 1-1-3.052.148.148 0 0 1 .108-.178.143.143 0 0 1 .178.107 21.95 21.95 0 0 0 .984 3.012.148.148 0 0 1-.081.193.142.142 0 0 1-.056.01z" class="cls-10" transform="translate(-88.84 -129.156)"/>
        <path id="패스_18101" d="M2111.036 758.987a.148.148 0 0 1-.139-.1c-.347-1-.654-2.023-.913-3.051a.147.147 0 0 1 .107-.178.144.144 0 0 1 .179.107c.256 1.02.561 2.038.906 3.026a.148.148 0 0 1-.09.188.176.176 0 0 1-.049.008z" class="cls-10" transform="translate(-90.755 -129.67)"/>
        <path id="패스_18102" d="M2115.509 759.274a.148.148 0 0 1-.146-.128 21.089 21.089 0 0 0-.576-2.827.148.148 0 0 1 .285-.078 21.4 21.4 0 0 1 .584 2.865.147.147 0 0 1-.126.165h-.02z" class="cls-10" transform="translate(-92.942 -129.888)"/>
        <path id="패스_18103" d="M2120.154 759.159a.147.147 0 0 1-.144-.12c-.185-.989-.325-2-.418-2.991a.147.147 0 0 1 .133-.161.144.144 0 0 1 .161.133c.092.987.231 1.984.414 2.964a.147.147 0 0 1-.118.172h-.028z" class="cls-10" transform="translate(-95.132 -129.776)"/>
        <path id="패스_18104" d="M2125.206 758.169a.148.148 0 0 1-.144-.119l-.6-2.98a.147.147 0 0 1 .116-.174.15.15 0 0 1 .173.116l.6 2.98a.147.147 0 0 1-.115.173.2.2 0 0 1-.03 0z" class="cls-10" transform="translate(-97.35 -129.324)"/>
        <path id="패스_18105" d="M2129.426 757.351a.147.147 0 0 1-.146-.129l-.355-2.908a.147.147 0 0 1 .128-.164.152.152 0 0 1 .164.129l.355 2.908a.147.147 0 0 1-.128.164z" class="cls-10" transform="translate(-99.383 -128.984)"/>
        <path id="패스_18106" d="M2131.723 755.645a.148.148 0 0 1-.146-.131l-.3-2.569a.147.147 0 0 1 .293-.033l.3 2.569a.148.148 0 0 1-.13.163z" class="cls-10" transform="translate(-100.455 -128.362)"/>
        <path id="패스_18107" d="M2158.6 665.769a.147.147 0 0 1-.132-.083 3.6 3.6 0 0 1-.52-2.482v-.04a12.377 12.377 0 0 0-.1-3.721.147.147 0 0 1 .288-.064 12.617 12.617 0 0 1 .107 3.811v.041a4.618 4.618 0 0 0-.022.872 4.506 4.506 0 0 0 .514 1.454.148.148 0 0 1-.068.2.146.146 0 0 1-.065.015z" class="cls-10" transform="translate(-112.556 -85.772)"/>
        <path id="패스_18108" d="M2157.245 657.906a.751.751 0 1 0 .751.751.752.752 0 0 0-.751-.751zm0 1.8a1.046 1.046 0 1 1 1.046-1.046 1.047 1.047 0 0 1-1.046 1.046z" class="cls-10" transform="translate(-111.803 -85.022)"/>
        <path id="패스_18109" d="M2151.354 657.906a.751.751 0 1 0 .751.751.752.752 0 0 0-.751-.751zm0 1.8a1.046 1.046 0 1 1 1.046-1.046 1.047 1.047 0 0 1-1.046 1.046z" class="cls-10" transform="translate(-109.12 -85.022)"/>
        <path id="패스_18110" d="M2152.545 668.178a.187.187 0 0 1-.038 0 .148.148 0 0 1-.1-.18 3.105 3.105 0 0 0-.231-2.162 6.624 6.624 0 0 0-.625-.946 3.886 3.886 0 0 1-.892-1.752 4 4 0 0 1 .374-1.907 3.476 3.476 0 0 0 .342-1.836.147.147 0 0 1 .117-.172.148.148 0 0 1 .173.117 3.749 3.749 0 0 1-.355 1.994 3.73 3.73 0 0 0-.359 1.765 3.631 3.631 0 0 0 .837 1.614 6.9 6.9 0 0 1 .653.99 3.413 3.413 0 0 1 .253 2.369.149.149 0 0 1-.143.11z" class="cls-10" transform="translate(-109.269 -85.75)"/>
        <path id="패스_18111" d="M2127.111 676.763a.147.147 0 0 1-.147-.135 46.957 46.957 0 0 0-2.609-11.847.147.147 0 1 1 .278-.1 47.253 47.253 0 0 1 2.625 11.921.147.147 0 0 1-.134.159z" class="cls-10" transform="translate(-97.297 -88.192)"/>
        <path id="패스_18112" d="M2131.27 680.681a.146.146 0 0 1-.089-.031.148.148 0 0 1-.029-.207 13.283 13.283 0 0 0 2.605-9.231.146.146 0 0 1 .132-.161.148.148 0 0 1 .162.132 13.583 13.583 0 0 1-2.664 9.437.147.147 0 0 1-.117.059z" class="cls-10" transform="translate(-100.383 -91.139)"/>
        <path id="패스_18113" d="M2177.831 658.928a.122.122 0 0 1-.034 0 .147.147 0 0 1-.11-.177 8.263 8.263 0 0 1 2.6-4.319 12.891 12.891 0 0 1 3.453-2.018 29.38 29.38 0 0 1 12.622-2.285.148.148 0 0 1 .141.155.152.152 0 0 1-.154.14 29.026 29.026 0 0 0-12.495 2.261 12.673 12.673 0 0 0-3.375 1.969 7.969 7.969 0 0 0-2.51 4.164.148.148 0 0 1-.144.114z" class="cls-10" transform="translate(-121.579 -81.598)"/>
        <path id="패스_18114" d="M2219.668 795.793a.149.149 0 0 1-.134-.086 10 10 0 0 1-.889-3.748.147.147 0 0 1 .142-.153.155.155 0 0 1 .153.143 9.706 9.706 0 0 0 .863 3.636.147.147 0 0 1-.073.195.137.137 0 0 1-.062.014z" class="cls-10" transform="translate(-140.242 -146.113)"/>
        <path id="패스_18115" d="M2222.92 796.3a.153.153 0 0 1-.057-.011.845.845 0 0 1-.415-.727l-.486-3.2a.147.147 0 0 1 .124-.168.148.148 0 0 1 .168.124l.486 3.2c.031.211.085.435.237.5a.147.147 0 0 1-.057.283z" class="cls-10" transform="translate(-141.753 -146.289)"/>
        <path id="패스_18116" d="M2226.879 796.51a.149.149 0 0 1-.144-.115 19.5 19.5 0 0 1-.476-3.84.148.148 0 0 1 .144-.151c.081.017.149.063.151.144a19.18 19.18 0 0 0 .469 3.782.147.147 0 0 1-.111.177.16.16 0 0 1-.032 0z" class="cls-10" transform="translate(-143.71 -146.385)"/>
        <path id="패스_18117" d="M2231.642 796.414a.146.146 0 0 1-.144-.116 13.354 13.354 0 0 1-.273-3.958.147.147 0 0 1 .294.023 13.092 13.092 0 0 0 .267 3.871.147.147 0 0 1-.113.176.156.156 0 0 1-.031 0z" class="cls-10" transform="translate(-145.952 -146.295)"/>
        <path id="패스_18118" d="M2236.755 795.082a.147.147 0 0 1-.145-.121 14.789 14.789 0 0 1-.209-3.617.148.148 0 0 1 .294.02 14.491 14.491 0 0 0 .205 3.545.148.148 0 0 1-.119.171h-.027z" class="cls-10" transform="translate(-148.315 -145.84)"/>
        <path id="패스_18119" d="M2240.893 793.776a.148.148 0 0 1-.142-.109 16.511 16.511 0 0 1-.565-3.5.147.147 0 0 1 .139-.155.151.151 0 0 1 .155.14 16.234 16.234 0 0 0 .554 3.438.148.148 0 0 1-.1.181.141.141 0 0 1-.039.005z" class="cls-10" transform="translate(-150.052 -145.295)"/>
        <path id="패스_18120" d="M2243.285 792.763a.148.148 0 0 1-.144-.114 31.453 31.453 0 0 1-.58-3.265.147.147 0 0 1 .128-.164.15.15 0 0 1 .165.128 30.835 30.835 0 0 0 .575 3.233.148.148 0 0 1-.111.177.114.114 0 0 1-.033 0z" class="cls-10" transform="translate(-151.134 -144.934)"/>
        <path id="패스_18121" d="M2229.763 724.906a.147.147 0 0 1-.1-.255 21.417 21.417 0 0 0 6.517-12.486.145.145 0 0 1 .168-.124.147.147 0 0 1 .125.167 21.716 21.716 0 0 1-6.607 12.659.147.147 0 0 1-.1.04z" class="cls-10" transform="translate(-145.235 -109.802)"/>
        <path id="패스_18122" d="M2176.813 671.853a.147.147 0 0 1-.146-.135 9.787 9.787 0 0 1 .256-3.15.144.144 0 0 1 .178-.107.147.147 0 0 1 .108.178 9.474 9.474 0 0 0-.249 3.054.148.148 0 0 1-.135.159z" class="cls-10" transform="translate(-121.111 -89.959)"/>
        <path id="패스_18123" d="M2179.788 664.732h-.025a.148.148 0 0 1-.121-.17 8.434 8.434 0 0 1 3.841-5.492 16.46 16.46 0 0 1 6.392-2.284.146.146 0 0 1 .17.12.147.147 0 0 1-.12.17 16.2 16.2 0 0 0-6.279 2.24 8.139 8.139 0 0 0-3.713 5.294.147.147 0 0 1-.145.123z" class="cls-10" transform="translate(-122.475 -84.641)"/>
        <path id="패스_18124" d="M2341.44 786.926c0 3.658-9.241 6.624-20.641 6.624s-20.641-2.966-20.641-6.624 9.241-6.622 20.641-6.622 20.641 2.965 20.641 6.622" class="cls-7" transform="translate(-177.319 -140.87)"/>
        <path id="패스_18125" d="M2320.552 780.352c-11.028 0-20.346 2.9-20.346 6.327s9.318 6.329 20.346 6.329 20.346-2.9 20.346-6.329-9.318-6.327-20.346-6.327zm0 13.246c-11.74 0-20.936-3.039-20.936-6.919s9.2-6.917 20.936-6.917 20.936 3.038 20.936 6.917-9.2 6.919-20.936 6.919z" class="cls-8" transform="translate(-177.072 -140.623)"/>
        <path id="패스_18126" d="M2340.2 789.5c0 1.959-5.812 3.548-12.982 3.548s-12.981-1.589-12.981-3.548 5.812-3.547 12.981-3.547 12.982 1.589 12.982 3.547" class="cls-7" transform="translate(-183.736 -143.446)"/>
        <path id="패스_18127" d="M2326.969 786c-7.476 0-12.686 1.714-12.686 3.252s5.21 3.253 12.686 3.253 12.687-1.714 12.687-3.253-5.21-3.252-12.687-3.252zm0 7.1c-6.436 0-13.276-1.347-13.276-3.843s6.84-3.842 13.276-3.842 13.276 1.347 13.276 3.842-6.84 3.843-13.276 3.843z" class="cls-8" transform="translate(-183.489 -143.199)"/>
        <path id="패스_18128" d="M2333.29 778.862l-2.594-.155a6.023 6.023 0 0 0-1.853.081 2.038 2.038 0 0 0-1.415 1.107c-.455 1.11.515 2.285 1.516 2.946a5.68 5.68 0 0 0-3.009.029 2 2 0 0 0-1.259.836c-.74 1.337.737 1.764 1.666 1.587a24.771 24.771 0 0 1 4.531-.114 72.847 72.847 0 0 0 10.295-.644 5.536 5.536 0 0 0 1.809-.484 2.013 2.013 0 0 0 1.115-1.428c.156-1.146-1.344-2.982-2.389-3.277a8.082 8.082 0 0 1-2.455-.7c-.742-.5-1.064-1.423-1.637-2.112a3.536 3.536 0 0 0-2.068-1.211 2.293 2.293 0 0 0-2.582 1.164 3.3 3.3 0 0 0 .328 2.372" class="cls-6" transform="translate(-188.404 -138.58)"/>
        <path id="패스_18129" d="M2346.622 785.828a12.31 12.31 0 0 0-6 .725 2.67 2.67 0 0 0-1.307 1.093.9.9 0 0 0-.1.684c.278.855 1.759.267 2.4.9a11.2 11.2 0 0 0-5.37.5c-.348.155-.725.422-.712.8.019.527.712.7 1.239.713 2.633.076 5.264.1 7.9.032 1.936-.052 3.864-.219 5.794-.365a17.232 17.232 0 0 1 2.952-.181 3.9 3.9 0 0 0 2.138-.25 1.115 1.115 0 0 0 .739-.716.829.829 0 0 0-.323-.755 2.146 2.146 0 0 0-.777-.359 11.438 11.438 0 0 0-2.686-.451 3.2 3.2 0 0 1-.819-.1 3.352 3.352 0 0 1-1.439-1.3c-.99-1.247-2.205-.881-3.63-.971" class="cls-10" transform="translate(-193.447 -143.36)"/>
        <path id="패스_18130" d="M2351.162 799.008a1.388 1.388 0 0 0-1.33.966.55.55 0 0 0 .079.546.638.638 0 0 0 .477.122 5.007 5.007 0 0 0 3.017-1.154c.149-.125.3-.333.194-.495a.421.421 0 0 0-.35-.128 21.822 21.822 0 0 0-2.364.046" class="cls-10" transform="translate(-199.947 -149.325)"/>
        <path id="패스_18131" d="M2307.547 793.889c-.287-.188-.641.279-.484.584a.97.97 0 0 0 .893.4.9.9 0 0 0 .865-.386c.181-.385-.206-.841-.627-.9a2.049 2.049 0 0 0-1.2.354" class="cls-10" transform="translate(-180.433 -146.923)"/>
        <path id="패스_18132" fill="#f6baad" d="M2263.125 651.6a1.473 1.473 0 0 0 1.792-.865 111.947 111.947 0 0 0 7.256-13.511c1.834-4.058 3.772-8.108 3.85-12.645a2.782 2.782 0 0 0-.185-1.234c-.547-1.173-2.292-1.5-3.414-1.857-1.65-.532-3.423-.779-5.106-1.2-3.07-.775-6.119-1.644-9.235-2.223-1.886-.35-4.062-1.249-5.453.307-1.458 1.63-2.1 4.628-2.307 6.729a5.7 5.7 0 0 1-.282 1.59 5.3 5.3 0 0 1-1.485 1.791 29.179 29.179 0 0 0-8.986 16.8c-.2 1.248 10.552 4.183 11.6 4.406a116.568 116.568 0 0 0 11.954 1.916" transform="translate(-149.748 -66.734)"/>
        <path id="패스_18133" d="M2269.312 656.666zm-6.712 1.408a1.922 1.922 0 0 0-1.963 2.378 3.856 3.856 0 0 0 1.385 2.262 6.008 6.008 0 0 0 6.564.866 5.339 5.339 0 0 0 2.665-3.52 3.135 3.135 0 0 0-.375-2.665 1.794 1.794 0 0 0-1.556-.583 5.952 5.952 0 0 0-2.18.705 6.311 6.311 0 0 1-2.289.741 6.562 6.562 0 0 1-1.253-.091 7.432 7.432 0 0 0-1-.093zm3.423 6.413a6.456 6.456 0 0 1-4.194-1.55 4.149 4.149 0 0 1-1.484-2.444 2.389 2.389 0 0 1 1.235-2.516 3.683 3.683 0 0 1 2.058-.1 6.467 6.467 0 0 0 1.2.089 6.005 6.005 0 0 0 2.179-.712 6.158 6.158 0 0 1 2.292-.733 2.069 2.069 0 0 1 1.8.688 3.423 3.423 0 0 1 .437 2.92 5.638 5.638 0 0 1-2.815 3.715 5.814 5.814 0 0 1-2.7.645z" class="cls-7" transform="translate(-159.215 -84.519)"/>
        <path id="패스_18134" d="M2268.383 661.547a4.631 4.631 0 0 1-1.451-.231.147.147 0 1 1 .093-.28 4.438 4.438 0 0 0 4.049-.687.148.148 0 1 1 .18.234 4.734 4.734 0 0 1-2.872.964z" class="cls-7" transform="translate(-162.185 -86.255)"/>
        <path id="패스_18135" d="M2256.563 655.415a3.953 3.953 0 0 1-3.541-2.631 5.368 5.368 0 0 1 .66-4.622 8.97 8.97 0 0 1 3.585-3.073 8.446 8.446 0 0 1 3.477-1.029 4.9 4.9 0 0 1 3.441 1.1c1.838 1.608 1.356 4.065.642 6.255a.148.148 0 1 1-.281-.091c.684-2.1 1.153-4.447-.555-5.942a4.619 4.619 0 0 0-3.234-1.027 8.189 8.189 0 0 0-3.355 1 8.7 8.7 0 0 0-3.47 2.969 5.074 5.074 0 0 0-.632 4.365 3.609 3.609 0 0 0 3.43 2.431.14.14 0 0 1 .156.138.148.148 0 0 1-.138.157c-.062 0-.123.005-.185.005z" class="cls-7" transform="translate(-155.771 -78.844)"/>
        <path id="패스_18136" d="M2257.54 653.518a.154.154 0 0 1-.061-.014.148.148 0 0 1-.073-.2l.834-1.832a.147.147 0 1 1 .268.122l-.833 1.832a.148.148 0 0 1-.134.087z" class="cls-7" transform="translate(-157.888 -82.188)"/>
        <path id="패스_18137" d="M2262.14 652.447a.148.148 0 0 1-.066-.28l1.094-.548a.147.147 0 0 1 .132.264l-1.094.548a.151.151 0 0 1-.066.016z" class="cls-7" transform="translate(-159.983 -82.286)"/>
        <path id="패스_18138" d="M2266.744 647.657h-.016a.148.148 0 0 1-.131-.163 2.1 2.1 0 0 0-.069-.8.147.147 0 0 1 .283-.082 2.4 2.4 0 0 1 .079.92.147.147 0 0 1-.146.131z" class="cls-7" transform="translate(-162.047 -79.962)"/>
        <path id="패스_18139" d="M2268.333 655.105a.148.148 0 0 1-.028-.292l1.255-.249a.148.148 0 1 1 .058.289l-1.255.249h-.029z" class="cls-7" transform="translate(-162.804 -83.633)"/>
        <path id="패스_18140" d="M2271.469 649.755a.147.147 0 0 1-.147-.14 2.424 2.424 0 0 1 .214-1.121.149.149 0 0 1 .2-.073.147.147 0 0 1 .073.2 2.127 2.127 0 0 0-.188.984.147.147 0 0 1-.14.155z" class="cls-7" transform="translate(-164.231 -80.83)"/>
        <path id="패스_18141" d="M2258.177 660.256a.125.125 0 0 1-.038-.005.147.147 0 0 1-.105-.18l.321-1.224a.148.148 0 0 1 .286.076l-.321 1.224a.148.148 0 0 1-.143.11z" class="cls-7" transform="translate(-158.179 -85.535)"/>
        <path id="패스_18142" d="M2254.6 657.961a2.084 2.084 0 0 1-.372-.033.148.148 0 0 1-.119-.171.15.15 0 0 1 .171-.119 1.808 1.808 0 0 0 .854-.052.147.147 0 0 1 .088.281 2.1 2.1 0 0 1-.623.095z" class="cls-7" transform="translate(-156.39 -85.007)"/>
        <path id="패스_18143" d="M2272.091 627.011a1.924 1.924 0 0 0-.786.17 3.555 3.555 0 0 0-1.4 1.282 7.608 7.608 0 0 0-1.031 2.113.5.5 0 0 0 .052.424c1.769-.754 3.492-1.654 4.177-3.272a.461.461 0 0 0 .055-.239.353.353 0 0 0-.144-.183 1.469 1.469 0 0 0-.921-.295zm6.375 4.472a.566.566 0 0 0-.133.018 1.625 1.625 0 0 0-1.074 1.182 3.806 3.806 0 0 0-.107 1.227.449.449 0 0 0 .022.123 3.583 3.583 0 0 0 1.438-2.193c.044-.219.007-.295-.02-.32a.182.182 0 0 0-.126-.036zm2.053 4.709a.221.221 0 0 1-.19-.333.071.071 0 0 0 0-.07.75.75 0 0 0-.406-.323 11.7 11.7 0 0 0-2.4-.651.981.981 0 0 1-.452-.2 3.734 3.734 0 0 1-.635.284 1.326 1.326 0 0 1-1.6-.346 1.472 1.472 0 0 1 .081-1.342.5.5 0 0 0-.71-.628q-.524.3-1.051.593a1.377 1.377 0 0 1-1.1.162.557.557 0 0 1-.333-.383.933.933 0 0 1 .131-.655l.475-.93a.5.5 0 0 0-.08-.574.489.489 0 0 0-.554-.125c-.58.237-1.189.523-1.917.9a.923.923 0 0 1-.958-.055l-.055.023c-1.322.55-2.721 1.046-4.008.542a1.26 1.26 0 0 1-.554-.381.863.863 0 0 1-.164-.675 2.333 2.333 0 0 1 1.007-1.286.221.221 0 0 1 .248.367 1.878 1.878 0 0 0-.817.992.416.416 0 0 0 .08.335.817.817 0 0 0 .363.237 4.973 4.973 0 0 0 3.589-.5.952.952 0 0 1-.062-.727 8.051 8.051 0 0 1 1.091-2.237 3.977 3.977 0 0 1 1.585-1.432 2.112 2.112 0 0 1 2.163.183.761.761 0 0 1 .3.44.839.839 0 0 1-.081.5 5.705 5.705 0 0 1-2.624 2.646c.221-.1.435-.193.646-.279a.932.932 0 0 1 1.047.236.942.942 0 0 1 .149 1.074l-.475.929a.574.574 0 0 0-.1.339.119.119 0 0 0 .078.089.978.978 0 0 0 .708-.14q.524-.294 1.047-.591a.944.944 0 0 1 1.338 1.182 1.132 1.132 0 0 0-.11.945c.18.3.686.29 1.08.155a3.391 3.391 0 0 0 .5-.217.9.9 0 0 1-.082-.34 4.212 4.212 0 0 1 .124-1.366 2.058 2.058 0 0 1 1.395-1.493.694.694 0 0 1 .672.131.784.784 0 0 1 .146.725 4.033 4.033 0 0 1-1.559 2.425.591.591 0 0 0 .1.027 12.135 12.135 0 0 1 2.495.675 1.134 1.134 0 0 1 .664.59.511.511 0 0 1-.041.438.221.221 0 0 1-.192.11z" class="cls-5" transform="translate(-160.9 -70.881)"/>
        <path id="패스_18144" d="M2287.032 621.243l-20.635-5.474a.671.671 0 0 1-.476-.821l.451-1.7a.672.672 0 0 1 .821-.476l20.635 5.473a.672.672 0 0 1 .476.821l-.452 1.7a.67.67 0 0 1-.82.477" class="cls-3" transform="translate(-161.748 -64.589)"/>
        <path id="패스_18145" d="M2265.96 616.586a.131.131 0 0 1-.035 0 .146.146 0 0 1-.108-.178l.48-1.937a.148.148 0 0 1 .287.071l-.48 1.937a.148.148 0 0 1-.143.112z" class="cls-7" transform="translate(-161.723 -65.322)"/>
        <path id="패스_18146" d="M2270.407 617.689a.162.162 0 0 1-.036 0 .147.147 0 0 1-.107-.178l.48-1.937a.147.147 0 0 1 .286.071l-.48 1.936a.147.147 0 0 1-.143.112z" class="cls-7" transform="translate(-163.749 -65.825)"/>
        <path id="패스_18147" d="M2274.854 618.792a.163.163 0 0 1-.035 0 .147.147 0 0 1-.108-.178l.48-1.937a.148.148 0 0 1 .286.071l-.48 1.937a.149.149 0 0 1-.144.112z" class="cls-7" transform="translate(-165.773 -66.327)"/>
        <path id="패스_18148" d="M2279.3 619.9a.159.159 0 0 1-.036 0 .149.149 0 0 1-.108-.179l.481-1.937a.148.148 0 0 1 .287.071l-.481 1.937a.148.148 0 0 1-.143.112z" class="cls-7" transform="translate(-167.798 -66.829)"/>
        <path id="패스_18149" d="M2283.747 621a.132.132 0 0 1-.035 0 .147.147 0 0 1-.108-.178l.48-1.937a.149.149 0 0 1 .179-.108.147.147 0 0 1 .107.178l-.48 1.937a.148.148 0 0 1-.144.112z" class="cls-7" transform="translate(-169.824 -67.332)"/>
        <path id="패스_18150" d="M2288.194 622.1a.172.172 0 0 1-.036 0 .147.147 0 0 1-.107-.178l.481-1.937a.147.147 0 1 1 .285.071l-.48 1.936a.146.146 0 0 1-.143.113z" class="cls-7" transform="translate(-171.849 -67.835)"/>
        <path id="패스_18151" d="M2292.641 623.206a.164.164 0 0 1-.036 0 .147.147 0 0 1-.107-.178l.48-1.937a.147.147 0 1 1 .286.071l-.48 1.937a.147.147 0 0 1-.143.112z" class="cls-7" transform="translate(-173.874 -68.337)"/>
        <path id="패스_18152" d="M2297.087 624.309a.133.133 0 0 1-.035 0 .146.146 0 0 1-.107-.179l.48-1.937a.147.147 0 1 1 .286.071l-.48 1.937a.147.147 0 0 1-.143.112z" class="cls-7" transform="translate(-175.899 -68.84)"/>
        <path id="패스_18153" d="M2301.535 625.412a.168.168 0 0 1-.035 0 .147.147 0 0 1-.107-.179l.48-1.936a.147.147 0 1 1 .285.07l-.48 1.937a.146.146 0 0 1-.143.112z" class="cls-7" transform="translate(-177.925 -69.342)"/>
        <path id="패스_18154" d="M2305.981 626.517a.17.17 0 0 1-.036 0 .147.147 0 0 1-.107-.179l.481-1.938a.147.147 0 1 1 .286.071l-.481 1.937a.147.147 0 0 1-.143.112z" class="cls-7" transform="translate(-179.905 -69.844)"/>
        <path id="패스_18155" d="M2259.239 630.747a.221.221 0 0 1-.22-.2 14.079 14.079 0 0 1 .46-4.94.221.221 0 0 1 .427.118 13.646 13.646 0 0 0-.446 4.786.221.221 0 0 1-.2.238z" class="cls-5" transform="translate(-158.607 -70.37)"/>
        <path id="패스_18156" d="M2249.354 638.958a.221.221 0 0 1-.168-.364 39.635 39.635 0 0 1 7.4-6.772.221.221 0 1 1 .254.361 39.269 39.269 0 0 0-7.314 6.7.22.22 0 0 1-.169.078z" class="cls-5" transform="translate(-154.123 -73.257)"/>
        <path id="패스_18157" d="M2283.694 671.283a.221.221 0 0 1-.168-.365 12.332 12.332 0 0 0 2.085-3.481.221.221 0 0 1 .412.162 12.8 12.8 0 0 1-2.16 3.606.223.223 0 0 1-.169.078z" class="cls-5" transform="translate(-169.765 -89.432)"/>
        <path id="패스_18158" d="M2289.959 662.107a.2.2 0 0 1-.073-.013.221.221 0 0 1-.135-.282l.628-1.766a.221.221 0 1 1 .417.147l-.627 1.766a.223.223 0 0 1-.209.147z" class="cls-5" transform="translate(-172.619 -86.063)"/>
        <path id="패스_18159" d="M1962.863 576.616c-3.538-18.923-7.47-36.536-6.863-57.135.272-9.238 1.708-18.154 3.287-27.261 1.075-6.2 2.425-12.557 5.99-17.743 1.394-2.027 3.61-4.009 6.01-3.469 2.577.579 3.652 3.62 4.086 6.224.92 5.517.572 11.135.095 16.708-.461 5.384-.847 10.159-1.1 15.384a328.941 328.941 0 0 1-4.982 43.252c-1.887 9.795-5.064 35.437-6.519 24.041z" class="cls-12" transform="translate(-20.624)"/>
        <path id="패스_18160" d="M1970.209 630.689a.182.182 0 0 1-.181-.169 390.115 390.115 0 0 1 .463-56.486.188.188 0 0 1 .195-.166.182.182 0 0 1 .167.194 389.688 389.688 0 0 0-.463 56.435.181.181 0 0 1-.169.192z" class="cls-16" transform="translate(-26.68 -46.866)"/>
        <path id="패스_18161" d="M1971.978 560.8h-.008a.181.181 0 0 1-.173-.188c.145-3.387.181-6.839.1-10.255a.18.18 0 0 1 .176-.185.182.182 0 0 1 .181.176c.076 3.425.041 6.883-.1 10.278a.182.182 0 0 1-.181.174z" class="cls-16" transform="translate(-27.853 -36.09)"/>
        <path id="패스_18162" d="M1937.192 599.588c-8.125-12.62-16.237-24.161-21.257-39.314a126.817 126.817 0 0 1-4.515-20.843c-.746-4.845-1.3-9.89.365-14.789.651-1.916 2.018-4.059 4.223-4.43 2.366-.4 4.106 1.468 5.179 3.222 2.273 3.714 3.486 7.9 4.576 12.1 1.052 4.057 2.006 7.648 3.191 11.523a217.5 217.5 0 0 1 7.363 33c1.016 7.713 5.19 27.345.875 19.531z" class="cls-12" transform="translate(0 -22.447)"/>
        <path id="패스_18163" d="M1952.317 640.221a.18.18 0 0 1-.164-.106 256.055 256.055 0 0 1-14.8-41.179.181.181 0 0 1 .35-.094 255.763 255.763 0 0 0 14.781 41.123.179.179 0 0 1-.089.239.181.181 0 0 1-.074.016z" class="cls-16" transform="translate(-12.147 -58.183)"/>
        <path id="패스_18164" d="M1934.2 589.21a.18.18 0 0 1-.172-.127c-.79-2.513-1.687-5.028-2.668-7.475a.181.181 0 1 1 .336-.136c.983 2.456 1.885 4.98 2.677 7.5a.18.18 0 0 1-.118.226.177.177 0 0 1-.054.008z" class="cls-16" transform="translate(-9.412 -50.295)"/>
        <path id="패스_18165" fill="#416897" d="M1941.257 670.856h26.852a2.827 2.827 0 0 1 2.826 2.915l-1.016 32.848a2.785 2.785 0 0 1-1.323 2.311c-4.676 2.81-22.152 4.133-26.752-.473a2.772 2.772 0 0 1-.76-1.558l-2.623-32.8a2.827 2.827 0 0 1 2.8-3.243z" transform="translate(-12.642 -91.031)"/>
        <path id="패스_18166" d="M1961.9 670.886h-18.427a.181.181 0 0 1 0-.361h18.427a.181.181 0 1 1 0 .361z" class="cls-18" transform="translate(-14.86 -90.903)"/>
        <path id="패스_18167" d="M1980.75 670.9h-2.268a.18.18 0 1 1 0-.361h2.268a.18.18 0 1 1 0 .361z" class="cls-18" transform="translate(-30.818 -90.911)"/>
        <path id="패스_18168" d="M1955.547 709.534c-5.217.13-11.879-.893-14.724-2.1l1.262 15.791a2.773 2.773 0 0 0 .76 1.558c4.6 4.606 22.068 3.283 26.742.473a2.785 2.785 0 0 0 1.322-2.311l.611-16.5c-3.079 2.407-9.9 2.942-15.974 3.093z" class="cls-19" transform="translate(-13.733 -107.248)"/>
        <path id="패스_18169" d="M1945.754 692.445a.18.18 0 0 1-.18-.173c-.131-3.7-.407-7.458-.817-11.157a.18.18 0 1 1 .359-.04c.412 3.708.687 7.47.819 11.182a.181.181 0 0 1-.174.187z" class="cls-19" transform="translate(-15.526 -95.63)"/>
        <path id="패스_18170" d="M1949.575 697.819a.181.181 0 0 1-.181-.165l-.624-7.378a.183.183 0 0 1 .166-.2h.015a.182.182 0 0 1 .181.165l.624 7.377a.182.182 0 0 1-.165.2z" class="cls-19" transform="translate(-17.356 -99.805)"/>
    </g>
</svg>
