<svg xmlns="http://www.w3.org/2000/svg" id="invite_icon" width="24" height="24" viewBox="0 0 24 24">
    <defs>
        <style>
            .cls-3{fill:#18de74;stroke:#292a2b}
        </style>
    </defs>
    <g id="Fruit_Icon" transform="translate(-362.714 -4108.986)">
        <g id="패스_20126" fill="#fff" stroke="none">
            <path d="M9.214 17.928C4.41 17.928.5 14.02.5 9.214.5 4.41 4.41.5 9.214.5c4.805 0 8.714 3.91 8.714 8.714 0 4.805-3.909 8.714-8.714 8.714z" transform="translate(365 4113.542)"/>
            <path fill="#292a2b" d="M9.214 1C4.684 1 1 4.685 1 9.214c0 4.53 3.685 8.214 8.214 8.214 4.53 0 8.214-3.685 8.214-8.214C17.428 4.684 13.743 1 9.214 1m0-1c5.089 0 9.214 4.125 9.214 9.214s-4.125 9.214-9.214 9.214S0 14.303 0 9.214 4.125 0 9.214 0z" transform="translate(365 4113.542)"/>
        </g>
        <path id="패스_117" d="M376.332 4110.118a5.475 5.475 0 0 1 4.35 1.778 2.624 2.624 0 0 1 0 3.542 3.581 3.581 0 0 1-3.424-1.445 4.213 4.213 0 0 1-.926-3.875z" class="cls-3" transform="translate(-5.617)"/>
        <path id="패스_118" d="M.177.007S3.7-.249 5.645 2.243a3.3 3.3 0 0 1 0 4.453 4.5 4.5 0 0 1-4.3-1.817A5.3 5.3 0 0 1 .177.007z" class="cls-3" transform="rotate(120 -995.82 2167.553)"/>
        <path id="패스_119" fill="none" stroke="#292a2b" d="M679.182 4066.541c2.327 0 6.261-2.166 6.176-6.332" transform="translate(-305.164 62.16)"/>
    </g>
</svg>
