<svg xmlns="http://www.w3.org/2000/svg" width="60" height="60" viewBox="0 0 60 60">
    <circle cx="30" cy="30" r="30" fill="#5fbb92" opacity="0.1"/>
    <g fill="#fff">
        <path d="M12 23.25c-3.005 0-5.83-1.17-7.955-3.295S.75 15.005.75 12s1.17-5.83 3.295-7.955S8.995.75 12 .75s5.83 1.17 7.955 3.295S23.25 8.995 23.25 12s-1.17 5.83-3.295 7.955S15.005 23.25 12 23.25z" transform="translate(18 18)"/>
        <path fill="#292a2b" d="M12 1.5C6.21 1.5 1.5 6.21 1.5 12S6.21 22.5 12 22.5 22.5 17.79 22.5 12 17.79 1.5 12 1.5M12 0c6.627 0 12 5.373 12 12s-5.373 12-12 12S0 18.627 0 12 5.373 0 12 0z" transform="translate(18 18)"/>
    </g>
    <path fill="#5fbb92" d="M9.268.021C7.941-.125 7.1.509 6.111 1.552 5.07.509 4.281-.125 2.954.021A3.631 3.631 0 0 0 .042 4.074c.492 2.882 3.027 5.293 6.069 6.821 3.042-1.528 5.577-3.939 6.069-6.821A3.631 3.631 0 0 0 9.268.021z" transform="translate(23.971 24.942)"/>
    <path fill="none" stroke="#292a2b" d="M9.268.021C7.941-.125 7.1.509 6.111 1.552 5.07.509 4.281-.125 2.954.021A3.631 3.631 0 0 0 .042 4.074c.492 2.882 3.027 5.293 6.069 6.821 3.042-1.528 5.577-3.939 6.069-6.821A3.631 3.631 0 0 0 9.268.021z" transform="translate(23.971 24.942)"/>
</svg>
