<svg xmlns="http://www.w3.org/2000/svg" width="23.8" height="23" viewBox="0 0 23.8 23">
    <defs>
        <style>
            .cls-2{fill:#8d8f91;stroke:#8d8f91;stroke-width:.8px}
        </style>
    </defs>
    <g id="list_disabled_icon" transform="translate(.4)">
        <path id="사각형_5259" fill="#fff" d="M0 0H23V23H0z"/>
        <g id="noun_Ticket_2888654" transform="translate(0 3.749)">
            <path id="패스_20109" d="M27.231 26.307a.94.94 0 0 0 .769-.922v-1.65a2.522 2.522 0 0 0-2.52-2.52H7.52A2.523 2.523 0 0 0 5 23.735v2.089a.94.94 0 0 0 .769.921 2.081 2.081 0 0 1 0 4.09.941.941 0 0 0-.769.922v1.651a2.522 2.522 0 0 0 2.52 2.52h17.96a2.522 2.522 0 0 0 2.52-2.52v-2.089a.94.94 0 0 0-.769-.922 2.082 2.082 0 0 1 0-4.091zm-2.462 2.045a2.848 2.848 0 0 0 2.32 2.8.173.173 0 0 1 .144.168v2.089a1.755 1.755 0 0 1-1.753 1.753H7.52a1.755 1.755 0 0 1-1.753-1.753v-1.652a.173.173 0 0 1 .144-.168 2.848 2.848 0 0 0 0-5.6.173.173 0 0 1-.144-.168v-2.087a1.755 1.755 0 0 1 1.753-1.753h4.338v.566a.383.383 0 1 0 .767 0v-.566H25.48a1.755 1.755 0 0 1 1.753 1.753v1.651a.173.173 0 0 1-.144.168 2.848 2.848 0 0 0-2.32 2.799z" class="cls-2" transform="translate(-5 -21.215)"/>
            <path id="패스_20110" d="M32.216 58.114a.359.359 0 0 0-.383.329v1.342a.388.388 0 0 0 .767 0v-1.342a.359.359 0 0 0-.384-.329z" class="cls-2" transform="translate(-24.976 -48.536)"/>
            <path id="패스_20111" d="M32.216 31.915a.359.359 0 0 0-.383.329v1.342a.388.388 0 0 0 .767 0v-1.342a.359.359 0 0 0-.384-.329z" class="cls-2" transform="translate(-24.976 -29.027)"/>
            <path id="패스_20112" d="M32.216 45.014a.359.359 0 0 0-.383.329v1.342a.388.388 0 0 0 .767 0v-1.342a.359.359 0 0 0-.384-.329z" class="cls-2" transform="translate(-24.976 -38.779)"/>
        </g>
    </g>
</svg>
