<svg xmlns="http://www.w3.org/2000/svg" width="24" height="24" viewBox="0 0 24 24">
    <path fill="#fff" d="M0 0H24V24H0z"/>
    <path fill="#e96853" d="M0 0H3V6H0z" transform="translate(2 9)"/>
    <g>
        <path fill="#292a2b" d="M12 54.965l6.085 2.75a1.8 1.8 0 0 0 2.549-1.644v-3.912a3.568 3.568 0 0 0 0-7.063v-3.912a1.8 1.8 0 0 0-2.549-1.644L5.489 45.228H2.6a.6.6 0 0 0-.6.6v5.59a.6.6 0 0 0 .6.6h2.75A3.793 3.793 0 0 0 12 54.965zm-8.8-8.528h1.819v4.386H3.2zm5.214 8.558a2.6 2.6 0 0 1-1.892-2.5l4.3 1.943a2.607 2.607 0 0 1-2.404.557zm10.155 1.623L6.223 51.032v-4.809l12.35-5.586a.6.6 0 0 1 .85.551v2.319h-1.439a.6.6 0 1 0 0 1.2h1.439v1.2H16.78a.6.6 0 0 0 0 1.2h2.643v8.946a.6.6 0 0 1-.85.564zm2.058-5.68v-4.621a2.365 2.365 0 0 1 0 4.621z" transform="translate(-1 -37.004)"/>
    </g>
</svg>
