<svg xmlns="http://www.w3.org/2000/svg" id="profile_signature_image" width="90.316" height="44.803" viewBox="0 0 90.316 44.803">
    <defs>
        <style>
            .cls-1{fill:#5fbb92}
        </style>
    </defs>
    <g id="그룹_4">
        <path id="패스_11" d="M135.76 98.568h-16c-23.086-1.4-35.041-20.843-36.438-38.311a2.382 2.382 0 0 1 4.735-.385c1.239 15.5 11.728 32.738 31.839 33.954l15.867-.008a31.4 31.4 0 0 0 23.2-9.81 39.244 39.244 0 0 0 9.946-22.429 2.281 2.281 0 0 1 2.628-2.069 2.37 2.37 0 0 1 2.077 2.636 43.9 43.9 0 0 1-11.154 25.08 36.176 36.176 0 0 1-26.7 11.342z" class="cls-1" transform="translate(-83.313 -57.85)"/>
    </g>
    <g id="그룹_5" transform="translate(32.674 39.779)">
        <path id="사각형_1" d="M0 0h25.178a5.024 5.024 0 0 1-5.024 5.024H5.024A5.024 5.024 0 0 1 0 0z" class="cls-1"/>
    </g>
</svg>
