<svg xmlns="http://www.w3.org/2000/svg" width="24" height="24" viewBox="0 0 24 24">
    <g>
        <path fill="rgba(52,151,253,0)" d="M0 0H24V24H0z" transform="translate(-323 -56) translate(323 56)"/>
    </g>
    <g>
        <path d="M1.441 12.5l.942.432a.827.827 0 0 1 .432 1.039l-.369.971a2.322 2.322 0 0 0 .278 2.188 2.371 2.371 0 0 0 1.963 1.033 2.334 2.334 0 0 0 .85-.163l.971-.369a.7.7 0 0 1 .29-.051.81.81 0 0 1 .748.482l.432.942a2.387 2.387 0 0 0 4.346 0l.442-.948a.821.821 0 0 1 .748-.482.744.744 0 0 1 .29.051l.971.381a2.452 2.452 0 0 0 .851.17 2.446 2.446 0 0 0 1.963-1.05 2.393 2.393 0 0 0 .278-2.2l-.379-.971a.829.829 0 0 1 .432-1.033l.942-.432a2.387 2.387 0 0 0 0-4.346l-.942-.432a.827.827 0 0 1-.432-1.041l.369-.971a2.322 2.322 0 0 0-.278-2.188 2.371 2.371 0 0 0-1.963-1.033 2.334 2.334 0 0 0-.851.158l-.971.369a.7.7 0 0 1-.29.051.81.81 0 0 1-.738-.476l-.442-.942A2.371 2.371 0 0 0 10.151.24a2.431 2.431 0 0 0-2.213 1.418L7.5 2.6a.821.821 0 0 1-.748.482.744.744 0 0 1-.28-.051L5.5 2.659a2.392 2.392 0 0 0-3.093 3.064l.369.971a.829.829 0 0 1-.432 1.033l-.944.431A2.371 2.371 0 0 0 0 10.322 2.4 2.4 0 0 0 1.441 12.5zm.642-2.922l.942-.432a2.389 2.389 0 0 0 1.244-3.014L3.9 5.161a.788.788 0 0 1 .091-.748.8.8 0 0 1 .971-.3l.971.369a2.373 2.373 0 0 0 .839.158 2.4 2.4 0 0 0 2.172-1.41l.432-.942a.829.829 0 0 1 1.5.006l.423.936a2.4 2.4 0 0 0 2.174 1.418 2.287 2.287 0 0 0 .839-.158l.971-.369a.841.841 0 0 1 .971.3.786.786 0 0 1 .091.748l-.369.971a2.4 2.4 0 0 0 1.244 3l.942.432a.821.821 0 0 1-.006 1.493l-.936.434a2.389 2.389 0 0 0-1.244 3.013l.369.971a.788.788 0 0 1-.091.748.8.8 0 0 1-.971.3l-.971-.369a2.373 2.373 0 0 0-.839-.158 2.4 2.4 0 0 0-2.173 1.409l-.432.942a.817.817 0 0 1-1.487-.006l-.44-.936a2.4 2.4 0 0 0-2.174-1.4 2.287 2.287 0 0 0-.839.158l-.971.369a.841.841 0 0 1-.971-.3.786.786 0 0 1-.091-.748l.369-.971a2.4 2.4 0 0 0-1.244-3.013l-.94-.436a.819.819 0 0 1 0-1.5z" transform="translate(2.125 .997)"/>
        <path d="M36.508 40a3.406 3.406 0 1 0-3.408-3.4 3.406 3.406 0 0 0 3.408 3.4zm0-5.238a1.819 1.819 0 1 0 0 .008z" transform="translate(2.125 .997) translate(-26.394 -26.274)"/>
    </g>
</svg>
