<svg xmlns="http://www.w3.org/2000/svg" id="signature_img" width="132.67" height="65.813" viewBox="0 0 132.67 65.813">
    <defs>
        <style>
            .cls-1{fill:#5fbb92}
        </style>
    </defs>
    <g id="그룹_4" transform="translate(-.037 -9.466)">
        <path id="패스_11" d="M160.356 117.663h-23.507c-33.913-2.052-51.474-30.618-53.526-56.277-.3-3.694 5.9-5.4 6.956-.566 1.819 22.775 17.228 48.09 46.77 49.876l23.307-.011c13.246 0 25.67-5.247 34.079-14.41 8.143-8.853 13.046-19.935 14.61-32.948a3.351 3.351 0 0 1 3.861-3.04 3.481 3.481 0 0 1 3.051 3.872c-1.731 14.488-7.244 26.891-16.385 36.841-9.718 10.583-24.018 16.663-39.216 16.663z" class="cls-1" transform="translate(-83.276 -48.384)"/>
    </g>
    <g id="그룹_5" transform="translate(47.996 58.433)">
        <path id="사각형_1" d="M0 0h36.985v1.38a6 6 0 0 1-6 6H6a6 6 0 0 1-6-6V0z" class="cls-1"/>
    </g>
</svg>
