<svg xmlns="http://www.w3.org/2000/svg" id="ubt_cn4" width="23.632" height="26.19" viewBox="0 0 23.632 26.19">
    <defs>
        <style>
            .cls-1{fill:#a4a4a4}
        </style>
    </defs>
    <path id="패스_3798" d="M363.733 876.155h-21.874a.879.879 0 0 0 0 1.758h21.874a.879.879 0 1 0 0-1.758z" class="cls-1" transform="translate(-340.98 -851.723)"/>
    <path id="패스_3799" d="M344.276 788.093a.873.873 0 0 0 .172-.017l11.636-2.317.023-.007a.841.841 0 0 0 .1-.031c.019-.007.039-.012.058-.021a.882.882 0 0 0 .1-.053c.015-.009.032-.017.046-.027a.878.878 0 0 0 .123-.1l1.543-1.543a.879.879 0 1 0-1.244-1.243l-1.316 1.317-2.022.159.159-2.022 8.855-8.855 1.863 1.863-3.766 3.765a.879.879 0 0 0 1.243 1.243l4.387-4.387a.879.879 0 0 0 0-1.243l-3.106-3.106-3.106-3.106-3.106-3.106a.879.879 0 0 0-1.243 0l-9.7 9.7a.881.881 0 0 0-.1.123l-.025.044a.873.873 0 0 0-.054.1c-.008.018-.014.038-.02.057a.845.845 0 0 0-.032.1c0 .008-.005.014-.007.022l-2.317 11.637a.879.879 0 0 0 .862 1.051zm2.372-8.287l2.095-.165-.184 2.346a.879.879 0 0 0 .876.948h.069l2.346-.184-.165 2.1-4.2.836-1.672-1.687zm5.766 1.134l-2.022.159.159-2.022 8.855-8.855 1.863 1.863zm3.885-13.825l1.863 1.863-6.468 6.468-2.387 2.387-2.022.159.159-2.022z" class="cls-1" transform="translate(-342.866 -764.992)"/>
</svg>
