<svg xmlns="http://www.w3.org/2000/svg" width="26.833" height="28.427" viewBox="0 0 26.833 28.427">
    <defs>
        <style>
            .cls-2{fill:#ffda6e}.cls-3{fill:#444}
        </style>
    </defs>
    <g id="bt_cn5" transform="translate(-301.167 -588.182)">
        <g id="그룹_5994" transform="translate(305.627 595.443)">
            <g id="그룹_5038">
                <path id="합치기_7" fill="#ffda6e" stroke="rgba(0,0,0,0)" stroke-miterlimit="10" d="M.23.23a.786.786 0 0 0-.215.71l2.074 10.411c0 .006 0 .013.005.02a.777.777 0 0 0 .029.092c.006.018.011.035.018.051a.725.725 0 0 0 .049.09c.008.013.014.026.023.039a.769.769 0 0 0 .092.111l8.68 8.681a.788.788 0 0 0 1.113 0l2.778-2.779 2.779-2.779 2.781-2.777a.787.787 0 0 0 0-1.112l-3.4-3.4a.445.445 0 0 0-.061-.077L15.4 5.93l-1.579-1.574-1.574-1.575a.449.449 0 0 0-.077-.061l-.414-.414a.806.806 0 0 0-.11-.091l-.041-.024a.745.745 0 0 0-.087-.047c-.017-.008-.035-.013-.052-.019a.814.814 0 0 0-.091-.028l-.021-.006L.94.015A.744.744 0 0 0 .786 0 .786.786 0 0 0 .23.23zm2.679 7.184l-.748-3.755 1.5-1.5 3.754.748.148 1.875-2.1-.166h-.061a.786.786 0 0 0-.784.848l.165 2.1zm6.128-3.935l1.745.137-1.608 1.608zm2.4.738l.583.583a.783.783 0 0 0 .5.228l-1.8 1.8-.945-.945zM13.506 5.3l.944.944L12.294 8.4l-.944-.944zM6.4 8.067l-.142-1.809L8 6.395 6.7 7.7a.376.376 0 0 0-.051.062l-.013.023a.338.338 0 0 0-.027.05c0 .01-.007.019-.011.029a.5.5 0 0 0-.016.052.055.055 0 0 1 0 .012l-.052.261zm8.681-1.191l.255.255a.787.787 0 0 0 .064 1.043l.136.136-1.42 1.419a.445.445 0 0 0-.127.369l-1.065-1.065zM7.443 8.215L8.662 7l.945.945-.01.01-1.21 1.21-.83.066-.18-.18zm1.575 1.574l1.219-1.219.944.944-1.22 1.22-.83.065-.18-.18zm5.729.57l1.418-1.419 2.6 2.6-1.665 1.669-2.723-2.723a.445.445 0 0 0 .368-.128zm-11.126.487l-.143-1.809 1.809.142.867.866-.554 2.781zm6.971.518l1.22-1.22 4.177 4.177-1.668 1.667-2.76-2.76.26-.052h.012a.347.347 0 0 0 .052-.015.272.272 0 0 0 .029-.011.379.379 0 0 0 .05-.027.2.2 0 0 0 .023-.014.49.49 0 0 0 .063-.051l.782-.782a.446.446 0 0 0-.631-.63l-.667.668-.83.065-.18-.18zm-3.976.923l.3-1.484.512.512 1.522 1.526-1.484.3zM9.707 13.6l3.5 3.5-1.668 1.667-4.613-4.615z" transform="rotate(180 10.333 10.333)"/>
            </g>
            <path id="패스_3807" d="M3788.4 9410.358l-8.3 8.248 8.3 8.011 7.442 1.518 2.56-1.518-.332-4.408-2.228-4.74z" class="cls-2" transform="translate(-3779.263 -9409.11)"/>
        </g>
        <circle id="타원_1120" cx="11" cy="11" r="11" class="cls-2" transform="translate(304 593)"/>
        <g id="그룹_6062" transform="translate(301.167 588.182)">
            <path id="패스_5685" d="M352.576 797.517a9.977 9.977 0 1 1 9.977 9.977 9.988 9.988 0 0 1-9.977-9.977zm9.977 8.052a8.052 8.052 0 1 0-8.052-8.052 8.061 8.061 0 0 0 8.052 8.052z" class="cls-3" transform="translate(-349.291 -784.255)"/>
            <path id="패스_5686" d="M350.9 773.889a13.259 13.259 0 0 1 11.114 20.494l2.392 6.2a.963.963 0 0 1-1.255 1.24l-6.641-2.657a13.106 13.106 0 0 1-5.611 1.246.963.963 0 1 1 0-1.925 11.211 11.211 0 0 0 5.138-1.232.96.96 0 0 1 .847-.013l4.931 1.973-1.737-4.5a.963.963 0 0 1 .067-1.007 11.334 11.334 0 1 0-14.645 3.412.962.962 0 1 1-.919 1.691 13.264 13.264 0 0 1 6.322-24.923z" class="cls-3" transform="translate(-337.641 -773.889)"/>
        </g>
        <text id="_" fill="#444" font-family="TTModerngulrimB, '210 Moderngulrim'" font-size="14px" transform="translate(311 606)">
            <tspan x="0" y="0">?</tspan>
        </text>
    </g>
</svg>
