<svg xmlns="http://www.w3.org/2000/svg" width="23.632" height="26.19" viewBox="0 0 23.632 26.19">
    <defs>
        <style>
            .cls-3{fill:#444}
        </style>
    </defs>
    <g id="bt_cn4" transform="translate(-288.182 -588.182)">
        <g id="그룹_5994">
            <g id="그룹_5038" transform="translate(289.628 592.442)">
                <path id="합치기_7" fill="#ffda6e" stroke="rgba(0,0,0,0)" stroke-miterlimit="10" d="M.23 20.436a.786.786 0 0 1-.215-.709L2.088 9.316c0-.006 0-.013.005-.02a.777.777 0 0 1 .029-.096c.006-.018.011-.035.018-.051a.725.725 0 0 1 .049-.09c.008-.013.014-.026.023-.039a.769.769 0 0 1 .088-.106L10.985.23a.788.788 0 0 1 1.115 0l2.777 2.78 2.779 2.779 2.779 2.779a.787.787 0 0 1 0 1.112l-3.4 3.4a.445.445 0 0 1-.061.077l-1.574 1.58-1.58 1.574-1.574 1.575a.449.449 0 0 1-.077.061l-.414.414a.806.806 0 0 1-.11.091l-.041.024a.745.745 0 0 1-.087.047c-.017.008-.035.013-.052.019a.814.814 0 0 1-.091.028l-.021.006L.94 20.651a.744.744 0 0 1-.154.015.786.786 0 0 1-.556-.23zm2.678-7.184l-.748 3.755 1.5 1.5 3.754-.748.148-1.875-2.1.166h-.061a.786.786 0 0 1-.784-.848l.165-2.1zm6.128 3.936l1.745-.137-1.608-1.608zm2.4-.738l.583-.583a.783.783 0 0 1 .5-.228l-1.8-1.8-.945.945zm2.065-1.085l.944-.944-2.157-2.157-.944.944zM6.4 12.6l-.142 1.809L8 14.272l-1.3-1.3a.376.376 0 0 1-.051-.062l-.013-.023a.338.338 0 0 1-.027-.05c0-.01-.007-.019-.011-.029a.5.5 0 0 1-.016-.052.055.055 0 0 0 0-.012l-.052-.261zm8.681 1.191l.255-.255a.787.787 0 0 1 .062-1.042l.136-.136-1.419-1.419a.445.445 0 0 1-.127-.369l-1.065 1.065zm-7.639-1.34l1.219 1.22.945-.945-.01-.01-1.21-1.21-.83-.066-.18.18zm1.575-1.574l1.219 1.223.944-.944-1.22-1.22-.83-.065-.18.18zm5.729-.57l1.419 1.419 2.6-2.6L17.1 7.457l-2.723 2.723a.445.445 0 0 1 .368.128zM3.62 9.821l-.142 1.809 1.809-.142.867-.866L5.6 7.841zm6.971-.521l1.22 1.22 4.177-4.177-1.667-1.665-2.76 2.76.26.052h.012a.347.347 0 0 1 .052.015.272.272 0 0 1 .029.011.379.379 0 0 1 .05.027.2.2 0 0 1 .023.014.49.49 0 0 1 .063.051l.782.782a.446.446 0 0 1-.631.63l-.667-.668-.83-.065-.18.18zm-3.976-.92l.3 1.484.512-.512 1.522-1.526-1.484-.3zm3.091-1.311l3.5-3.5L11.542 1.9 6.926 6.515z"/>
            </g>
            <path id="패스_3807" fill="#ffda6e" d="M3790.111 9410.358l8.3 8.248-8.3 8.011-7.442 1.518-2.56-1.518.332-4.408 2.228-4.74z" transform="translate(-3488.959 -8816.668)"/>
        </g>
        <g id="그룹_5035" transform="translate(288.182 588.182)">
            <path id="패스_3798" d="M363.733 876.155h-21.874a.879.879 0 0 0 0 1.758h21.874a.879.879 0 1 0 0-1.758z" class="cls-3" transform="translate(-340.98 -851.723)"/>
            <path id="패스_3799" d="M344.276 788.093a.873.873 0 0 0 .172-.017l11.636-2.317.023-.007a.841.841 0 0 0 .1-.031c.019-.007.039-.012.058-.021a.882.882 0 0 0 .1-.053c.015-.009.032-.017.046-.027a.878.878 0 0 0 .123-.1l1.543-1.543a.879.879 0 1 0-1.244-1.243l-1.316 1.317-2.022.159.159-2.022 8.855-8.855 1.863 1.863-3.766 3.765a.879.879 0 0 0 1.243 1.243l4.387-4.387a.879.879 0 0 0 0-1.243l-3.106-3.106-3.106-3.106-3.106-3.106a.879.879 0 0 0-1.243 0l-9.7 9.7a.881.881 0 0 0-.1.123l-.025.044a.873.873 0 0 0-.054.1c-.008.018-.014.038-.02.057a.845.845 0 0 0-.032.1c0 .008-.005.014-.007.022l-2.317 11.637a.879.879 0 0 0 .862 1.051zm2.372-8.287l2.095-.165-.184 2.346a.879.879 0 0 0 .876.948h.069l2.346-.184-.165 2.1-4.2.836-1.672-1.687zm5.766 1.134l-2.022.159.159-2.022 8.855-8.855 1.863 1.863zm3.885-13.825l1.863 1.863-6.468 6.468-2.387 2.387-2.022.159.159-2.022z" class="cls-3" transform="translate(-342.866 -764.992)"/>
        </g>
    </g>
</svg>
