<svg xmlns="http://www.w3.org/2000/svg" width="30.992" height="21.413" viewBox="0 0 30.992 21.413">
    <path fill="#a4a4a4" d="M352.326 366.489h-.165v-3.733l.247-.1a1.4 1.4 0 0 0-.019-2.6l-13.689-5.431a2.481 2.481 0 0 0-1.834 0l-13.693 5.427a1.4 1.4 0 0 0-.019 2.6l3.331 1.378v8.219c0 2.463 6.742 3.611 11.3 3.611a.879.879 0 1 0 0-1.758c-5.353 0-9.013-1.339-9.539-1.963v-7.379l8.588 3.552a2.473 2.473 0 0 0 1.9 0l8.588-3.552v6.9c-.206.312-1.388 1.119-3.882 1.753a.879.879 0 0 0 .216 1.731.869.869 0 0 0 .217-.027c1.566-.4 5.207-1.524 5.207-3.378v-7.711l2.426-1v3.46h-.165a.591.591 0 0 0-.591.591v3.071a.591.591 0 0 0 .591.591h.989a.591.591 0 0 0 .591-.591v-3.07a.591.591 0 0 0-.595-.591zm-14.268.2a.726.726 0 0 1-.559 0l-12.868-5.322 12.878-5.1a.728.728 0 0 1 .538 0l12.878 5.1z" transform="translate(-322.283 -354.45)"/>
</svg>
