<svg xmlns="http://www.w3.org/2000/svg" width="31.599" height="21.413" viewBox="0 0 31.599 21.413">
    <g>
        <path fill="#ffda6e" d="M10.468 18.475l-.106-.178c-3.352-.364-6.741-1.324-6.741-2.946V8.264L.748 7.076a1.21 1.21 0 0 1 .016-2.244L12.572.152a2.136 2.136 0 0 1 1.582 0l11.807 4.68a1.211 1.211 0 0 1 .017 2.244l-.212.087v3.219h.141a.51.51 0 0 1 .509.509v2.649a.509.509 0 0 1-.509.509h-.852a.509.509 0 0 1-.509-.509v-2.648a.51.51 0 0 1 .509-.509h.145V7.4l-2.092.865v6.649c0 1.451-2.587 2.385-4.074 2.8a19.072 19.072 0 0 1-5.978 1.025 10.467 10.467 0 0 1-2.588-.264z" transform="translate(-201.283 -592.797) translate(206.156 595.183)"/>
        <path fill="#444" d="M352.326 366.489h-.165v-3.733l.247-.1a1.4 1.4 0 0 0-.019-2.6l-13.689-5.431a2.481 2.481 0 0 0-1.834 0l-13.693 5.427a1.4 1.4 0 0 0-.019 2.6l3.331 1.378v8.219c0 2.463 6.742 3.611 11.3 3.611a.879.879 0 1 0 0-1.758c-5.353 0-9.013-1.339-9.539-1.963v-7.379l8.588 3.552a2.473 2.473 0 0 0 1.9 0l8.588-3.552v6.9c-.206.312-1.388 1.119-3.882 1.753a.879.879 0 0 0 .216 1.731.869.869 0 0 0 .217-.027c1.566-.4 5.207-1.524 5.207-3.378v-7.711l2.426-1v3.46h-.165a.591.591 0 0 0-.591.591v3.071a.591.591 0 0 0 .591.591h.989a.591.591 0 0 0 .591-.591v-3.07a.591.591 0 0 0-.595-.591zm-14.268.2a.726.726 0 0 1-.559 0l-12.868-5.322 12.878-5.1a.728.728 0 0 1 .538 0l12.878 5.1z" transform="translate(-201.283 -592.797) translate(-121 238.347)"/>
    </g>
</svg>
