<svg xmlns="http://www.w3.org/2000/svg" id="ubt_cn2" width="24.278" height="26.081" viewBox="0 0 24.278 26.081">
    <defs>
        <style>
            .cls-1{fill:#a4a4a4}
        </style>
    </defs>
    <path id="패스_3795" d="M573.874 560.21h-5.346l.834-1.913c.068.005.136.01.2.01a2.794 2.794 0 1 0-1.827-.689l-1.13 2.592h-5.277l-1.13-2.592a2.78 2.78 0 1 0-1.827.689c.069 0 .137-.005.2-.01l.834 1.913h-5.274a2.275 2.275 0 0 0-2.273 2.273v14.065a2.275 2.275 0 0 0 2.273 2.273h13.045a.879.879 0 0 0 0-1.758h-13.034a.515.515 0 0 1-.514-.514v-14.067a.515.515 0 0 1 .514-.515h19.733a.515.515 0 0 1 .514.515v14.065a.515.515 0 0 1-.514.514h-1.867a.879.879 0 0 0 0 1.758h1.867a2.275 2.275 0 0 0 2.273-2.273v-14.064a2.275 2.275 0 0 0-2.274-2.272zm-4.307-5.712a1.026 1.026 0 1 1-1.026 1.025 1.027 1.027 0 0 1 1.026-1.023zm-12.216 1.025a1.026 1.026 0 1 1 1.026 1.026 1.027 1.027 0 0 1-1.026-1.026z" class="cls-1" transform="translate(-551.869 -552.739)"/>
    <path id="패스_3796" d="M583.3 600.405a6.3 6.3 0 1 0 6.3 6.3 6.307 6.307 0 0 0-6.3-6.3zm0 10.841a4.541 4.541 0 1 1 4.541-4.541 4.546 4.546 0 0 1-4.541 4.541z" class="cls-1" transform="translate(-571.48 -589.929)"/>
    <path id="패스_3797" d="M596.416 614.409a.879.879 0 0 0-1.319.761v4.737a.879.879 0 0 0 1.319.761l4.1-2.369a.879.879 0 0 0 0-1.523zm.44 3.976v-1.692l1.465.846z" class="cls-1" transform="translate(-585.596 -600.763)"/>
</svg>
