<svg xmlns="http://www.w3.org/2000/svg" width="26.833" height="28.004" viewBox="0 0 26.833 28.004">
    <defs>
        <style>
            .cls-1{fill:#a4a4a4}
        </style>
    </defs>
    <g id="ubt_cn5" transform="translate(-301.167 -588.182)">
        <g id="그룹_6062" transform="translate(301.167 588.182)">
            <path id="패스_5685" d="M352.576 797.517a9.977 9.977 0 1 1 9.977 9.977 9.988 9.988 0 0 1-9.977-9.977zm9.977 8.052a8.052 8.052 0 1 0-8.052-8.052 8.061 8.061 0 0 0 8.052 8.052z" class="cls-1" transform="translate(-349.291 -784.255)"/>
            <path id="패스_5686" d="M350.9 773.889a13.259 13.259 0 0 1 11.114 20.494l2.392 6.2a.963.963 0 0 1-1.255 1.24l-6.641-2.657a13.106 13.106 0 0 1-5.611 1.246.963.963 0 1 1 0-1.925 11.211 11.211 0 0 0 5.138-1.232.96.96 0 0 1 .847-.013l4.931 1.973-1.737-4.5a.963.963 0 0 1 .067-1.007 11.334 11.334 0 1 0-14.645 3.412.962.962 0 1 1-.919 1.691 13.264 13.264 0 0 1 6.322-24.923z" class="cls-1" transform="translate(-337.641 -773.889)"/>
        </g>
        <text id="_" fill="#a4a4a4" font-family="TTModerngulrimB, '210 Moderngulrim'" font-size="14px" transform="translate(311 606)">
            <tspan x="0" y="0">?</tspan>
        </text>
    </g>
</svg>
