<svg xmlns="http://www.w3.org/2000/svg" width="22.29" height="25.741" viewBox="0 0 22.29 25.741">
    <defs>
        <style>
            .cls-2{fill:#444}
        </style>
    </defs>
    <g id="bt_cn1" transform="translate(-43.71 -591.259)">
        <rect id="사각형_4653" width="19" height="22" fill="#ffda6e" rx="3" transform="translate(47 595)"/>
        <g id="그룹_5036" transform="translate(43.71 591.259)">
            <path id="패스_3801" d="M149.837 562.4h-15.9a2.48 2.48 0 0 0-2.477 2.478v19.076a2.48 2.48 0 0 0 2.477 2.477h10.278a.879.879 0 1 0 0-1.758h-7.436v-20.518h13.054a.72.72 0 0 1 .719.719v19.076a.72.72 0 0 1-.719.719h-.975a.879.879 0 1 0 0 1.758h.975a2.48 2.48 0 0 0 2.477-2.477v-19.075a2.48 2.48 0 0 0-2.473-2.475zm-14.812 22.27h-1.084a.72.72 0 0 1-.719-.719v-19.076a.72.72 0 0 1 .719-.719h1.084z" class="cls-2" transform="translate(-131.464 -562.397)"/>
            <path id="사각형_4651" d="M0 0H6.96V1.612H0z" class="cls-2" transform="translate(10.667 16.464)"/>
            <path id="사각형_4652" d="M0 0H5.495V1.612H0z" class="cls-2" transform="translate(12.133 18.845)"/>
            <path id="패스_3802" d="M172 587.679V584.9a.989.989 0 0 0-.989-.989h-9.524a.989.989 0 0 0-.989.989v2.784a.989.989 0 0 0 .989.989h9.524a.989.989 0 0 0 .989-.994zm-1.758-.769h-7.985v-1.245h7.985z" class="cls-2" transform="translate(-154.118 -579.179)"/>
        </g>
    </g>
</svg>
